<?xml version="1.0" standalone="no"?>
<!DOCTYPE svg PUBLIC "-//W3C//DTD SVG 1.1//EN" "http://www.w3.org/Graphics/SVG/1.1/DTD/svg11.dtd" >
<svg xmlns="http://www.w3.org/2000/svg" xmlns:xlink="http://www.w3.org/1999/xlink" version="1.1">
<metadata>
Created by FontForge 20201107 at Tue Oct  5 17:31:20 2021
 By Jimmy Wärting
Copyright \(c\) 2016 by Maxitype. All rights reserved.
</metadata>
<defs>
<font id="Selecta-Bold" horiz-adv-x="620" >
  <font-face 
    font-family="Selecta"
    font-weight="700"
    font-stretch="normal"
    units-per-em="1000"
    panose-1="2 3 5 4 7 2 2 2 2 3"
    ascent="690"
    descent="-310"
    x-height="500"
    cap-height="660"
    bbox="-472 -240 1284 910"
    underline-thickness="115"
    underline-position="-137"
    stemh="130"
    stemv="140"
    unicode-range="U+000D-1F78B"
  />
<missing-glyph horiz-adv-x="710" 
d="M635 -180h-560v860h560v-860zM200 565v-630h310v630h-310z" />
    <glyph glyph-name="f_f" unicode="ff" horiz-adv-x="630" 
d="M225 0h-140v393h-75v107h75v40c0 110 60 150 155 150c34 0 63 -4 75 -7v-95h-25c-40 0 -65 -12 -65 -55v-33h165v40c0 110 60 150 155 150c34 0 63 -4 75 -7v-95h-25c-40 0 -65 -12 -65 -55v-33h80v-107h-80v-393h-140v393h-165v-393z" />
    <glyph glyph-name="f_f_i" unicode="ffi" horiz-adv-x="880" 
d="M755 548c-42 0 -77 32 -77 77s35 78 77 78c43 0 78 -33 78 -78s-35 -77 -78 -77zM225 0h-140v393h-75v107h75v40c0 110 60 150 155 150c34 0 63 -4 75 -7v-95h-25c-40 0 -65 -12 -65 -55v-33h165v40c0 110 60 150 155 150c34 0 63 -4 75 -7v-95h-25
c-40 0 -65 -12 -65 -55v-33h295v-500h-140v393h-155v-393h-140v393h-165v-393z" />
    <glyph glyph-name="f_f_l" unicode="ffl" horiz-adv-x="880" 
d="M225 0h-140v393h-75v107h75v40c0 110 60 150 155 150c34 0 63 -4 75 -7v-95h-25c-40 0 -65 -12 -65 -55v-33h165v40c0 110 60 150 155 150c34 0 63 -4 75 -7v-95h-25c-40 0 -65 -12 -65 -55v-33h80v-107h-80v-393h-140v393h-165v-393zM825 0h-140v680h140v-680z" />
    <glyph glyph-name="fi" unicode="fi" horiz-adv-x="575" 
d="M450 548c-42 0 -77 32 -77 77s35 78 77 78c43 0 78 -33 78 -78s-35 -77 -78 -77zM225 0h-140v393h-75v107h75v40c0 110 60 150 155 150c34 0 63 -4 75 -7v-95h-25c-40 0 -65 -12 -65 -55v-33h295v-500h-140v393h-155v-393z" />
    <glyph glyph-name="fl" unicode="fl" horiz-adv-x="575" 
d="M225 0h-140v393h-75v107h75v40c0 110 60 150 155 150c34 0 63 -4 75 -7v-95h-25c-40 0 -65 -12 -65 -55v-33h80v-107h-80v-393zM520 0h-140v680h140v-680z" />
    <glyph glyph-name=".notdef" horiz-adv-x="710" 
d="M635 -180h-560v860h560v-860zM200 565v-630h310v630h-310z" />
    <glyph glyph-name=".null" horiz-adv-x="0" 
 />
    <glyph glyph-name="CR" unicode="&#xd;" horiz-adv-x="240" 
 />
    <glyph glyph-name="space" unicode=" " horiz-adv-x="240" 
 />
    <glyph glyph-name="A" unicode="A" horiz-adv-x="670" 
d="M673 0h-150l-51 143h-274l-50 -143h-151l253 660h170zM335 530l-93 -265h187z" />
    <glyph glyph-name="Aacute" unicode="&#xc1;" horiz-adv-x="670" 
d="M320 860h163l-100 -120h-128zM673 0h-150l-51 143h-274l-50 -143h-151l253 660h170zM335 530l-93 -265h187z" />
    <glyph glyph-name="Abreve" unicode="&#x102;" horiz-adv-x="670" 
d="M335 725c-75 0 -142 44 -145 135h98c2 -35 22 -47 47 -47s45 12 48 47h97c-2 -91 -70 -135 -145 -135zM673 0h-150l-51 143h-274l-50 -143h-151l253 660h170zM335 530l-93 -265h187z" />
    <glyph glyph-name="uni01CD" unicode="&#x1cd;" horiz-adv-x="670" 
d="M500 860l-95 -120h-140l-95 120h125l40 -50l40 50h125zM673 0h-150l-51 143h-274l-50 -143h-151l253 660h170zM335 530l-93 -265h187z" />
    <glyph glyph-name="Acircumflex" unicode="&#xc2;" horiz-adv-x="670" 
d="M375 740l-40 50l-40 -50h-125l95 120h140l95 -120h-125zM673 0h-150l-51 143h-274l-50 -143h-151l253 660h170zM335 530l-93 -265h187z" />
    <glyph glyph-name="Adieresis" unicode="&#xc4;" horiz-adv-x="670" 
d="M230 708c-42 0 -77 32 -77 77s35 78 77 78c43 0 78 -33 78 -78s-35 -77 -78 -77zM440 708c-43 0 -77 32 -77 77s34 78 77 78s78 -33 78 -78s-35 -77 -78 -77zM673 0h-150l-51 143h-274l-50 -143h-151l253 660h170zM335 530l-93 -265h187z" />
    <glyph glyph-name="Agrave" unicode="&#xc0;" horiz-adv-x="670" 
d="M350 860l65 -120h-127l-100 120h162zM673 0h-150l-51 143h-274l-50 -143h-151l253 660h170zM335 530l-93 -265h187z" />
    <glyph glyph-name="Amacron" unicode="&#x100;" horiz-adv-x="670" 
d="M185 835h300v-100h-300v100zM673 0h-150l-51 143h-274l-50 -143h-151l253 660h170zM335 530l-93 -265h187z" />
    <glyph glyph-name="Aogonek" unicode="&#x104;" horiz-adv-x="670" 
d="M673 0h-5c-35 -15 -64 -34 -64 -54c0 -15 14 -21 34 -21h30v-105h-60c-80 0 -125 40 -125 95c0 36 15 62 37 85h3l-51 143h-274l-50 -143h-151l253 660h170zM335 530l-93 -265h187z" />
    <glyph glyph-name="Aring" unicode="&#xc5;" horiz-adv-x="670" 
d="M335 715c-56 0 -97 41 -97 98s41 97 97 97s98 -40 98 -97s-42 -98 -98 -98zM335 848c-20 0 -35 -15 -35 -35s15 -35 35 -35s35 15 35 35s-15 35 -35 35zM673 0h-150l-51 143h-274l-50 -143h-151l253 660h170zM335 530l-93 -265h187z" />
    <glyph glyph-name="Atilde" unicode="&#xc3;" horiz-adv-x="670" 
d="M290 770c-20 0 -30 -17 -30 -35h-97c0 70 40 125 110 125c60 0 77 -35 107 -35c20 0 30 18 30 35h98c0 -70 -40 -125 -110 -125c-60 0 -78 35 -108 35zM673 0h-150l-51 143h-274l-50 -143h-151l253 660h170zM335 530l-93 -265h187z" />
    <glyph glyph-name="AE" unicode="&#xc6;" horiz-adv-x="910" 
d="M870 660v-127h-287v-130h267v-123h-267v-152h287v-128h-422v143h-241l-72 -143h-160l350 660h545zM403 533l-135 -268h180v268h-45z" />
    <glyph glyph-name="B" unicode="B" horiz-adv-x="645" 
d="M385 0h-310v660h290c135 0 220 -70 220 -180c0 -80 -57 -120 -102 -130c50 -10 122 -59 122 -159c0 -115 -85 -191 -220 -191zM215 535v-135h145c55 0 85 25 85 65c0 45 -30 70 -85 70h-145zM215 283v-158h165c55 0 85 35 85 80s-30 78 -85 78h-165z" />
    <glyph glyph-name="C" unicode="C" horiz-adv-x="710" 
d="M365 -10c-190 0 -335 150 -335 340s145 340 335 340c180 0 295 -130 315 -275h-142c-15 80 -75 148 -173 148c-107 0 -192 -83 -192 -213s85 -212 192 -212c98 0 158 67 173 147h142c-20 -145 -135 -275 -315 -275z" />
    <glyph glyph-name="Cacute" unicode="&#x106;" horiz-adv-x="710" 
d="M413 740h-128l65 120h163zM365 -10c-190 0 -335 150 -335 340s145 340 335 340c180 0 295 -130 315 -275h-142c-15 80 -75 148 -173 148c-107 0 -192 -83 -192 -213s85 -212 192 -212c98 0 158 67 173 147h142c-20 -145 -135 -275 -315 -275z" />
    <glyph glyph-name="Ccaron" unicode="&#x10c;" horiz-adv-x="710" 
d="M435 740h-140l-95 120h125l40 -50l40 50h125zM365 -10c-190 0 -335 150 -335 340s145 340 335 340c180 0 295 -130 315 -275h-142c-15 80 -75 148 -173 148c-107 0 -192 -83 -192 -213s85 -212 192 -212c98 0 158 67 173 147h142c-20 -145 -135 -275 -315 -275z" />
    <glyph glyph-name="Ccedilla" unicode="&#xc7;" horiz-adv-x="710" 
d="M365 -10c-190 0 -335 150 -335 340s145 340 335 340c180 0 295 -130 315 -275h-142c-15 80 -75 148 -173 148c-107 0 -192 -83 -192 -213s85 -212 192 -212c98 0 158 67 173 147h142c-20 -145 -135 -275 -315 -275zM365 -213c-42 0 -77 33 -77 78s35 77 77 77
c43 0 78 -32 78 -77s-35 -78 -78 -78z" />
    <glyph glyph-name="Cdotaccent" unicode="&#x10a;" horiz-adv-x="710" 
d="M365 708c-42 0 -77 32 -77 77s35 78 77 78c43 0 78 -33 78 -78s-35 -77 -78 -77zM365 -10c-190 0 -335 150 -335 340s145 340 335 340c180 0 295 -130 315 -275h-142c-15 80 -75 148 -173 148c-107 0 -192 -83 -192 -213s85 -212 192 -212c98 0 158 67 173 147h142
c-20 -145 -135 -275 -315 -275z" />
    <glyph glyph-name="D" unicode="D" horiz-adv-x="690" 
d="M318 0h-243v660h230c220 0 350 -130 350 -330s-117 -330 -337 -330zM215 533v-405h90c138 0 208 72 208 202s-70 203 -208 203h-90z" />
    <glyph glyph-name="Eth" unicode="&#xd0;" horiz-adv-x="690" 
d="M75 660h230c220 0 350 -130 350 -330s-117 -330 -337 -330h-243v290h-65v120h65v250zM215 128h90c138 0 208 72 208 202s-70 203 -208 203h-90v-123h155v-120h-155v-162z" />
    <glyph glyph-name="Dcaron" unicode="&#x10e;" horiz-adv-x="690" 
d="M405 740h-140l-95 120h125l40 -50l40 50h125zM318 0h-243v660h230c220 0 350 -130 350 -330s-117 -330 -337 -330zM215 533v-405h90c138 0 208 72 208 202s-70 203 -208 203h-90z" />
    <glyph glyph-name="Dcroat" unicode="&#x110;" horiz-adv-x="690" 
d="M75 660h230c220 0 350 -130 350 -330s-117 -330 -337 -330h-243v290h-65v120h65v250zM215 128h90c138 0 208 72 208 202s-70 203 -208 203h-90v-123h155v-120h-155v-162z" />
    <glyph glyph-name="E" unicode="E" horiz-adv-x="585" 
d="M545 0h-470v660h470v-127h-330v-130h310v-123h-310v-152h330v-128z" />
    <glyph glyph-name="Eacute" unicode="&#xc9;" horiz-adv-x="585" 
d="M358 740h-128l65 120h163zM545 0h-470v660h470v-127h-330v-130h310v-123h-310v-152h330v-128z" />
    <glyph glyph-name="Ecaron" unicode="&#x11a;" horiz-adv-x="585" 
d="M380 740h-140l-95 120h125l40 -50l40 50h125zM545 0h-470v660h470v-127h-330v-130h310v-123h-310v-152h330v-128z" />
    <glyph glyph-name="Ecircumflex" unicode="&#xca;" horiz-adv-x="585" 
d="M270 740h-125l95 120h140l95 -120h-125l-40 50zM545 0h-470v660h470v-127h-330v-130h310v-123h-310v-152h330v-128z" />
    <glyph glyph-name="Edieresis" unicode="&#xcb;" horiz-adv-x="585" 
d="M205 708c-42 0 -77 32 -77 77s35 78 77 78c43 0 78 -33 78 -78s-35 -77 -78 -77zM415 708c-43 0 -77 32 -77 77s34 78 77 78s78 -33 78 -78s-35 -77 -78 -77zM545 0h-470v660h470v-127h-330v-130h310v-123h-310v-152h330v-128z" />
    <glyph glyph-name="Edotaccent" unicode="&#x116;" horiz-adv-x="585" 
d="M310 708c-42 0 -77 32 -77 77s35 78 77 78c43 0 78 -33 78 -78s-35 -77 -78 -77zM545 0h-470v660h470v-127h-330v-130h310v-123h-310v-152h330v-128z" />
    <glyph glyph-name="Egrave" unicode="&#xc8;" horiz-adv-x="585" 
d="M390 740h-127l-100 120h162zM545 0h-470v660h470v-127h-330v-130h310v-123h-310v-152h330v-128z" />
    <glyph glyph-name="Emacron" unicode="&#x112;" horiz-adv-x="585" 
d="M460 735h-300v100h300v-100zM545 0h-470v660h470v-127h-330v-130h310v-123h-310v-152h330v-128z" />
    <glyph glyph-name="Eogonek" unicode="&#x118;" horiz-adv-x="585" 
d="M545 660v-127h-330v-130h310v-123h-310v-152h330v-128c-35 -15 -64 -34 -64 -54c0 -15 14 -21 34 -21h30v-105h-60c-80 0 -125 40 -125 95c0 36 15 62 48 85h-333v660h470z" />
    <glyph glyph-name="uni1EBC" unicode="&#x1ebc;" horiz-adv-x="585" 
d="M235 735h-97c0 70 40 125 110 125c60 0 77 -35 107 -35c20 0 30 18 30 35h98c0 -70 -40 -125 -110 -125c-60 0 -78 35 -108 35c-20 0 -30 -17 -30 -35zM545 0h-470v660h470v-127h-330v-130h310v-123h-310v-152h330v-128z" />
    <glyph glyph-name="F" unicode="F" horiz-adv-x="560" 
d="M215 0h-140v660h460v-127h-320v-130h300v-123h-300v-280z" />
    <glyph glyph-name="G" unicode="G" horiz-adv-x="720" 
d="M370 -10c-190 0 -340 150 -340 340s150 340 340 340c180 0 295 -125 315 -245h-142c-20 63 -75 118 -173 118c-105 0 -197 -80 -197 -213c0 -132 90 -212 197 -212c100 0 153 57 168 117h-168v115h320v-32c0 -190 -130 -328 -320 -328z" />
    <glyph glyph-name="Gbreve" unicode="&#x11e;" horiz-adv-x="720" 
d="M370 725c-75 0 -142 44 -145 135h98c2 -35 22 -47 47 -47s45 12 48 47h97c-2 -91 -70 -135 -145 -135zM370 -10c-190 0 -340 150 -340 340s150 340 340 340c180 0 295 -125 315 -245h-142c-20 63 -75 118 -173 118c-105 0 -197 -80 -197 -213c0 -132 90 -212 197 -212
c100 0 153 57 168 117h-168v115h320v-32c0 -190 -130 -328 -320 -328z" />
    <glyph glyph-name="uni0122" unicode="&#x122;" horiz-adv-x="720" 
d="M370 -10c-190 0 -340 150 -340 340s150 340 340 340c180 0 295 -125 315 -245h-142c-20 63 -75 118 -173 118c-105 0 -197 -80 -197 -213c0 -132 90 -212 197 -212c100 0 153 57 168 117h-168v115h320v-32c0 -190 -130 -328 -320 -328zM375 -200h-115l45 120h153z" />
    <glyph glyph-name="Gdotaccent" unicode="&#x120;" horiz-adv-x="720" 
d="M370 708c-42 0 -77 32 -77 77s35 78 77 78c43 0 78 -33 78 -78s-35 -77 -78 -77zM370 -10c-190 0 -340 150 -340 340s150 340 340 340c180 0 295 -125 315 -245h-142c-20 63 -75 118 -173 118c-105 0 -197 -80 -197 -213c0 -132 90 -212 197 -212c100 0 153 57 168 117
h-168v115h320v-32c0 -190 -130 -328 -320 -328z" />
    <glyph glyph-name="H" unicode="H" horiz-adv-x="710" 
d="M215 0h-140v660h140v-262h280v262h140v-660h-140v273h-280v-273z" />
    <glyph glyph-name="Hbar" unicode="&#x126;" horiz-adv-x="710" 
d="M500 590v70h140v-660h-140v273h-280v-273h-140v660h140v-70h280zM220 398h280v72h-280v-72z" />
    <glyph glyph-name="Hcircumflex" unicode="&#x124;" horiz-adv-x="710" 
d="M315 740h-125l95 120h140l95 -120h-125l-40 50zM215 0h-140v660h140v-262h280v262h140v-660h-140v273h-280v-273z" />
    <glyph glyph-name="I" unicode="I" horiz-adv-x="280" 
d="M210 0h-140v660h140v-660z" />
    <glyph glyph-name="IJ" unicode="&#x132;" horiz-adv-x="805" 
d="M210 0h-140v660h140v-660zM510 -10c-142 0 -225 80 -225 220v20h140v-20c0 -60 25 -92 85 -92s88 32 88 92v450h140v-450c0 -150 -85 -220 -228 -220z" />
    <glyph glyph-name="Iacute" unicode="&#xcd;" horiz-adv-x="280" 
d="M188 740h-128l65 120h163zM210 0h-140v660h140v-660z" />
    <glyph glyph-name="uni01CF" unicode="&#x1cf;" horiz-adv-x="280" 
d="M210 740h-140l-95 120h125l40 -50l40 50h125zM210 0h-140v660h140v-660z" />
    <glyph glyph-name="Icircumflex" unicode="&#xce;" horiz-adv-x="280" 
d="M100 740h-125l95 120h140l95 -120h-125l-40 50zM210 0h-140v660h140v-660z" />
    <glyph glyph-name="Idieresis" unicode="&#xcf;" horiz-adv-x="280" 
d="M35 708c-43 0 -78 32 -78 77s35 78 78 78s78 -33 78 -78s-35 -77 -78 -77zM245 708c-43 0 -77 32 -77 77s34 78 77 78s78 -33 78 -78s-35 -77 -78 -77zM210 0h-140v660h140v-660z" />
    <glyph glyph-name="Idotaccent" unicode="&#x130;" horiz-adv-x="280" 
d="M140 708c-42 0 -77 32 -77 77s35 78 77 78c43 0 78 -33 78 -78s-35 -77 -78 -77zM210 0h-140v660h140v-660z" />
    <glyph glyph-name="Igrave" unicode="&#xcc;" horiz-adv-x="280" 
d="M220 740h-127l-101 120h163zM210 0h-140v660h140v-660z" />
    <glyph glyph-name="Imacron" unicode="&#x12a;" horiz-adv-x="280" 
d="M290 735h-300v100h300v-100zM210 0h-140v660h140v-660z" />
    <glyph glyph-name="Iogonek" unicode="&#x12e;" horiz-adv-x="280" 
d="M210 660v-660c-35 -15 -64 -34 -64 -54c0 -15 14 -21 34 -21h30v-105h-60c-80 0 -125 40 -125 95c0 36 15 62 48 85h-3v660h140z" />
    <glyph glyph-name="Itilde" unicode="&#x128;" horiz-adv-x="280" 
d="M65 735h-98c0 70 41 125 111 125c60 0 77 -35 107 -35c20 0 30 18 30 35h98c0 -70 -40 -125 -110 -125c-60 0 -78 35 -108 35c-20 0 -30 -17 -30 -35zM210 0h-140v660h140v-660z" />
    <glyph glyph-name="J" unicode="J" horiz-adv-x="525" 
d="M230 -10c-142 0 -225 80 -225 220v20h140v-20c0 -60 25 -92 85 -92s88 32 88 92v450h140v-450c0 -150 -85 -220 -228 -220z" />
    <glyph glyph-name="Jcircumflex" unicode="&#x134;" horiz-adv-x="525" 
d="M348 740h-125l95 120h140l95 -120h-125l-40 50zM230 -10c-142 0 -225 80 -225 220v20h140v-20c0 -60 25 -92 85 -92s88 32 88 92v450h140v-450c0 -150 -85 -220 -228 -220z" />
    <glyph glyph-name="K" unicode="K" horiz-adv-x="630" 
d="M215 0h-140v660h140v-270l220 270h173l-260 -310l280 -350h-183l-230 305v-305z" />
    <glyph glyph-name="uni0136" unicode="&#x136;" horiz-adv-x="630" 
d="M215 0h-140v660h140v-270l220 270h173l-260 -310l280 -350h-183l-230 305v-305zM315 -200h-115l45 120h153z" />
    <glyph glyph-name="L" unicode="L" horiz-adv-x="540" 
d="M525 0h-450v660h140v-530h310v-130z" />
    <glyph glyph-name="Lacute" unicode="&#x139;" horiz-adv-x="540" 
d="M193 740h-128l65 120h163zM525 0h-450v660h140v-530h310v-130z" />
    <glyph glyph-name="Lcaron" unicode="&#x13d;" horiz-adv-x="540" 
d="M525 0h-450v660h140v-530h310v-130zM421 540h-127l64 120h163z" />
    <glyph glyph-name="uni013B" unicode="&#x13b;" horiz-adv-x="540" 
d="M525 0h-450v660h140v-530h310v-130zM305 -200h-115l45 120h153z" />
    <glyph glyph-name="Ldot" unicode="&#x13f;" horiz-adv-x="542" 
d="M525 0h-450v660h140v-530h310v-130zM377 268c-42 0 -77 32 -77 77s35 78 77 78c43 0 78 -33 78 -78s-35 -77 -78 -77z" />
    <glyph glyph-name="Lslash" unicode="&#x141;" horiz-adv-x="540" 
d="M214 279v-149h310v-130h-450v192l-59 -37v138l59 37v330h140v-243l146 91v-138z" />
    <glyph glyph-name="M" unicode="M" horiz-adv-x="920" 
d="M220 0h-140v660h220l160 -485l160 485h220v-660h-140v520l-172 -520h-135l-173 520v-520z" />
    <glyph glyph-name="N" unicode="N" horiz-adv-x="710" 
d="M215 0h-140v660h135l285 -427v427h140v-660h-135l-285 428v-428z" />
    <glyph glyph-name="Nacute" unicode="&#x143;" horiz-adv-x="710" 
d="M398 740h-128l65 120h163zM215 0h-140v660h135l285 -427v427h140v-660h-135l-285 428v-428z" />
    <glyph glyph-name="Ncaron" unicode="&#x147;" horiz-adv-x="710" 
d="M420 740h-140l-95 120h125l40 -50l40 50h125zM215 0h-140v660h135l285 -427v427h140v-660h-135l-285 428v-428z" />
    <glyph glyph-name="uni0145" unicode="&#x145;" horiz-adv-x="710" 
d="M215 0h-140v660h135l285 -427v427h140v-660h-135l-285 428v-428zM355 -200h-115l45 120h153z" />
    <glyph glyph-name="Eng" unicode="&#x14a;" horiz-adv-x="710" 
d="M440 -180c-117 0 -195 62 -195 180h140c0 -38 23 -58 58 -58s57 20 57 58l-285 428v-428h-140v660h135l285 -427v427h140v-660c0 -118 -77 -180 -195 -180z" />
    <glyph glyph-name="Ntilde" unicode="&#xd1;" horiz-adv-x="710" 
d="M275 735h-97c0 70 40 125 110 125c60 0 77 -35 107 -35c20 0 30 18 30 35h98c0 -70 -40 -125 -110 -125c-60 0 -78 35 -108 35c-20 0 -30 -17 -30 -35zM215 0h-140v660h135l285 -427v427h140v-660h-135l-285 428v-428z" />
    <glyph glyph-name="O" unicode="O" horiz-adv-x="740" 
d="M370 -10c-190 0 -340 140 -340 340c0 190 150 340 340 340s340 -150 340 -340c0 -200 -150 -340 -340 -340zM370 118c108 0 198 82 198 212s-90 213 -198 213c-107 0 -197 -83 -197 -213s90 -212 197 -212z" />
    <glyph glyph-name="Oacute" unicode="&#xd3;" horiz-adv-x="740" 
d="M418 740h-128l65 120h163zM370 -10c-190 0 -340 140 -340 340c0 190 150 340 340 340s340 -150 340 -340c0 -200 -150 -340 -340 -340zM370 118c108 0 198 82 198 212s-90 213 -198 213c-107 0 -197 -83 -197 -213s90 -212 197 -212z" />
    <glyph glyph-name="uni01D1" unicode="&#x1d1;" horiz-adv-x="740" 
d="M440 740h-140l-95 120h125l40 -50l40 50h125zM370 -10c-190 0 -340 140 -340 340c0 190 150 340 340 340s340 -150 340 -340c0 -200 -150 -340 -340 -340zM370 118c108 0 198 82 198 212s-90 213 -198 213c-107 0 -197 -83 -197 -213s90 -212 197 -212z" />
    <glyph glyph-name="Ocircumflex" unicode="&#xd4;" horiz-adv-x="740" 
d="M330 740h-125l95 120h140l95 -120h-125l-40 50zM370 -10c-190 0 -340 140 -340 340c0 190 150 340 340 340s340 -150 340 -340c0 -200 -150 -340 -340 -340zM370 118c108 0 198 82 198 212s-90 213 -198 213c-107 0 -197 -83 -197 -213s90 -212 197 -212z" />
    <glyph glyph-name="Odieresis" unicode="&#xd6;" horiz-adv-x="740" 
d="M265 708c-42 0 -77 32 -77 77s35 78 77 78c43 0 78 -33 78 -78s-35 -77 -78 -77zM475 708c-43 0 -77 32 -77 77s34 78 77 78s78 -33 78 -78s-35 -77 -78 -77zM370 -10c-190 0 -340 140 -340 340c0 190 150 340 340 340s340 -150 340 -340c0 -200 -150 -340 -340 -340z
M370 118c108 0 198 82 198 212s-90 213 -198 213c-107 0 -197 -83 -197 -213s90 -212 197 -212z" />
    <glyph glyph-name="Ograve" unicode="&#xd2;" horiz-adv-x="740" 
d="M450 740h-127l-100 120h162zM370 -10c-190 0 -340 140 -340 340c0 190 150 340 340 340s340 -150 340 -340c0 -200 -150 -340 -340 -340zM370 118c108 0 198 82 198 212s-90 213 -198 213c-107 0 -197 -83 -197 -213s90 -212 197 -212z" />
    <glyph glyph-name="Ohungarumlaut" unicode="&#x150;" horiz-adv-x="740" 
d="M335 740h-127l65 120h162zM535 740h-127l75 120h152zM370 -10c-190 0 -340 140 -340 340c0 190 150 340 340 340s340 -150 340 -340c0 -200 -150 -340 -340 -340zM370 118c108 0 198 82 198 212s-90 213 -198 213c-107 0 -197 -83 -197 -213s90 -212 197 -212z" />
    <glyph glyph-name="Omacron" unicode="&#x14c;" horiz-adv-x="740" 
d="M520 735h-300v100h300v-100zM370 -10c-190 0 -340 140 -340 340c0 190 150 340 340 340s340 -150 340 -340c0 -200 -150 -340 -340 -340zM370 118c108 0 198 82 198 212s-90 213 -198 213c-107 0 -197 -83 -197 -213s90 -212 197 -212z" />
    <glyph glyph-name="Oslash" unicode="&#xd8;" horiz-adv-x="740" 
d="M370 670c190 0 340 -150 340 -340c0 -200 -150 -340 -340 -340s-340 140 -340 340c0 190 150 340 340 340zM370 543c-107 0 -197 -83 -197 -213c0 -32 6 -62 16 -87l276 276c-28 16 -61 24 -95 24zM370 118c108 0 198 82 198 212c0 36 -7 69 -19 97l-281 -281
c30 -18 65 -28 102 -28z" />
    <glyph glyph-name="Oslashacute" unicode="&#x1fe;" horiz-adv-x="740" 
d="M355 860h163l-100 -120h-128zM370 670c190 0 340 -150 340 -340c0 -200 -150 -340 -340 -340s-340 140 -340 340c0 190 150 340 340 340zM370 543c-107 0 -197 -83 -197 -213c0 -32 6 -62 16 -87l276 276c-28 16 -61 24 -95 24zM370 118c108 0 198 82 198 212
c0 36 -7 69 -19 97l-281 -281c30 -18 65 -28 102 -28z" />
    <glyph glyph-name="Otilde" unicode="&#xd5;" horiz-adv-x="740" 
d="M295 735h-97c0 70 40 125 110 125c60 0 77 -35 107 -35c20 0 30 18 30 35h98c0 -70 -40 -125 -110 -125c-60 0 -78 35 -108 35c-20 0 -30 -17 -30 -35zM370 -10c-190 0 -340 140 -340 340c0 190 150 340 340 340s340 -150 340 -340c0 -200 -150 -340 -340 -340zM370 118
c108 0 198 82 198 212s-90 213 -198 213c-107 0 -197 -83 -197 -213s90 -212 197 -212z" />
    <glyph glyph-name="OE" unicode="&#x152;" horiz-adv-x="1105" 
d="M373 -10c-185 0 -343 143 -343 340c0 190 158 340 343 340c87 0 165 -30 217 -85v75h470v-127h-330v-130h310v-123h-310v-152h330v-128h-470v75c-52 -57 -130 -85 -217 -85zM378 118c110 0 207 82 207 212s-97 213 -207 213s-208 -83 -208 -213s98 -212 208 -212z" />
    <glyph glyph-name="P" unicode="P" horiz-adv-x="630" 
d="M215 0h-140v660h300c140 0 230 -77 230 -207s-90 -208 -230 -208h-160v-245zM215 535v-165h150c65 0 100 30 100 83c0 52 -35 82 -100 82h-150z" />
    <glyph glyph-name="Thorn" unicode="&#xde;" horiz-adv-x="640" 
d="M215 0h-140v660h140v-107h160c140 0 230 -78 230 -208s-90 -207 -230 -207h-160v-138zM215 428v-165h150c65 0 100 30 100 82c0 53 -35 83 -100 83h-150z" />
    <glyph glyph-name="Q" unicode="Q" horiz-adv-x="740" 
d="M627 109l101 -109h-160l-32 35c-50 -29 -107 -45 -166 -45c-190 0 -340 140 -340 340c0 190 150 340 340 340s340 -150 340 -340c0 -85 -32 -162 -83 -221zM370 118c25 0 50 6 73 16l-145 156h160l75 -80c23 34 37 75 37 120c0 130 -90 213 -200 213s-200 -83 -200 -213
s90 -212 200 -212z" />
    <glyph glyph-name="R" unicode="R" horiz-adv-x="635" 
d="M215 0h-140v660h295c140 0 228 -82 228 -212c0 -110 -58 -163 -125 -188l147 -260h-167l-120 238h-118v-238zM215 535v-175h140c70 0 103 35 103 88c0 52 -33 87 -103 87h-140z" />
    <glyph glyph-name="Racute" unicode="&#x154;" horiz-adv-x="635" 
d="M368 740h-128l65 120h163zM215 0h-140v660h295c140 0 228 -82 228 -212c0 -110 -58 -163 -125 -188l147 -260h-167l-120 238h-118v-238zM215 535v-175h140c70 0 103 35 103 88c0 52 -33 87 -103 87h-140z" />
    <glyph glyph-name="Rcaron" unicode="&#x158;" horiz-adv-x="635" 
d="M390 740h-140l-95 120h125l40 -50l40 50h125zM215 0h-140v660h295c140 0 228 -82 228 -212c0 -110 -58 -163 -125 -188l147 -260h-167l-120 238h-118v-238zM215 535v-175h140c70 0 103 35 103 88c0 52 -33 87 -103 87h-140z" />
    <glyph glyph-name="uni0156" unicode="&#x156;" horiz-adv-x="635" 
d="M215 0h-140v660h295c140 0 228 -82 228 -212c0 -110 -58 -163 -125 -188l147 -260h-167l-120 238h-118v-238zM215 535v-175h140c70 0 103 35 103 88c0 52 -33 87 -103 87h-140zM325 -200h-115l45 120h153z" />
    <glyph glyph-name="S" unicode="S" 
d="M310 -10c-162 0 -272 80 -275 225h145c3 -60 48 -105 143 -105c70 0 117 34 117 81c0 48 -46 61 -115 74l-52 10c-105 20 -228 47 -228 190c0 129 105 205 265 205c153 0 263 -75 265 -215h-144c-2 60 -48 95 -133 95c-60 0 -108 -26 -108 -73c0 -46 50 -59 115 -72
l53 -10c105 -20 227 -47 227 -190c0 -137 -105 -215 -275 -215z" />
    <glyph glyph-name="Sacute" unicode="&#x15a;" 
d="M358 740h-128l65 120h163zM310 -10c-162 0 -272 80 -275 225h145c3 -60 48 -105 143 -105c70 0 117 34 117 81c0 48 -46 61 -115 74l-52 10c-105 20 -228 47 -228 190c0 129 105 205 265 205c153 0 263 -75 265 -215h-144c-2 60 -48 95 -133 95c-60 0 -108 -26 -108 -73
c0 -46 50 -59 115 -72l53 -10c105 -20 227 -47 227 -190c0 -137 -105 -215 -275 -215z" />
    <glyph glyph-name="Scaron" unicode="&#x160;" 
d="M380 740h-140l-95 120h125l40 -50l40 50h125zM310 -10c-162 0 -272 80 -275 225h145c3 -60 48 -105 143 -105c70 0 117 34 117 81c0 48 -46 61 -115 74l-52 10c-105 20 -228 47 -228 190c0 129 105 205 265 205c153 0 263 -75 265 -215h-144c-2 60 -48 95 -133 95
c-60 0 -108 -26 -108 -73c0 -46 50 -59 115 -72l53 -10c105 -20 227 -47 227 -190c0 -137 -105 -215 -275 -215z" />
    <glyph glyph-name="Scedilla" unicode="&#x15e;" 
d="M310 -10c-162 0 -272 80 -275 225h145c3 -60 48 -105 143 -105c70 0 117 34 117 81c0 48 -46 61 -115 74l-52 10c-105 20 -228 47 -228 190c0 129 105 205 265 205c153 0 263 -75 265 -215h-144c-2 60 -48 95 -133 95c-60 0 -108 -26 -108 -73c0 -46 50 -59 115 -72
l53 -10c105 -20 227 -47 227 -190c0 -137 -105 -215 -275 -215zM310 -213c-42 0 -77 33 -77 78s35 77 77 77c43 0 78 -32 78 -77s-35 -78 -78 -78z" />
    <glyph glyph-name="uni0218" unicode="&#x218;" 
d="M310 -10c-162 0 -272 80 -275 225h145c3 -60 48 -105 143 -105c70 0 117 34 117 81c0 48 -46 61 -115 74l-52 10c-105 20 -228 47 -228 190c0 129 105 205 265 205c153 0 263 -75 265 -215h-144c-2 60 -48 95 -133 95c-60 0 -108 -26 -108 -73c0 -46 50 -59 115 -72
l53 -10c105 -20 227 -47 227 -190c0 -137 -105 -215 -275 -215zM315 -200h-115l45 120h153z" />
    <glyph glyph-name="uni1E9E" unicode="&#x1e9e;" horiz-adv-x="640" 
d="M215 0h-140v660h508v-112l-138 -148c75 -10 173 -45 173 -185c0 -145 -98 -215 -260 -215h-68v130h55c68 0 133 20 133 85c0 70 -65 85 -133 85h-55v100l115 133h-190v-533z" />
    <glyph glyph-name="T" unicode="T" horiz-adv-x="570" 
d="M355 0h-140v533h-205v127h550v-127h-205v-533z" />
    <glyph glyph-name="Tbar" unicode="&#x166;" horiz-adv-x="570" 
d="M560 660v-127h-205v-133h125v-120h-125v-280h-140v280h-125v120h125v133h-205v127h550z" />
    <glyph glyph-name="Tcaron" unicode="&#x164;" horiz-adv-x="570" 
d="M355 740h-140l-95 120h125l40 -50l40 50h125zM355 0h-140v533h-205v127h550v-127h-205v-533z" />
    <glyph glyph-name="uni0162" unicode="&#x162;" horiz-adv-x="570" 
d="M355 0h-140v533h-205v127h550v-127h-205v-533zM285 -213c-42 0 -77 33 -77 78s35 77 77 77c43 0 78 -32 78 -77s-35 -78 -78 -78z" />
    <glyph glyph-name="uni021A" unicode="&#x21a;" horiz-adv-x="570" 
d="M355 0h-140v533h-205v127h550v-127h-205v-533zM290 -200h-115l45 120h153z" />
    <glyph glyph-name="U" unicode="U" horiz-adv-x="680" 
d="M340 -10c-162 0 -270 80 -270 240v430h140v-410c0 -97 58 -132 130 -132c73 0 130 35 130 132v410h140v-430c0 -160 -107 -240 -270 -240z" />
    <glyph glyph-name="Uacute" unicode="&#xda;" horiz-adv-x="680" 
d="M388 740h-128l65 120h163zM340 -10c-162 0 -270 80 -270 240v430h140v-410c0 -97 58 -132 130 -132c73 0 130 35 130 132v410h140v-430c0 -160 -107 -240 -270 -240z" />
    <glyph glyph-name="uni01D3" unicode="&#x1d3;" horiz-adv-x="680" 
d="M410 740h-140l-95 120h125l40 -50l40 50h125zM340 -10c-162 0 -270 80 -270 240v430h140v-410c0 -97 58 -132 130 -132c73 0 130 35 130 132v410h140v-430c0 -160 -107 -240 -270 -240z" />
    <glyph glyph-name="Ucircumflex" unicode="&#xdb;" horiz-adv-x="680" 
d="M300 740h-125l95 120h140l95 -120h-125l-40 50zM340 -10c-162 0 -270 80 -270 240v430h140v-410c0 -97 58 -132 130 -132c73 0 130 35 130 132v410h140v-430c0 -160 -107 -240 -270 -240z" />
    <glyph glyph-name="Udieresis" unicode="&#xdc;" horiz-adv-x="680" 
d="M235 708c-42 0 -77 32 -77 77s35 78 77 78c43 0 78 -33 78 -78s-35 -77 -78 -77zM445 708c-43 0 -77 32 -77 77s34 78 77 78s78 -33 78 -78s-35 -77 -78 -77zM340 -10c-162 0 -270 80 -270 240v430h140v-410c0 -97 58 -132 130 -132c73 0 130 35 130 132v410h140v-430
c0 -160 -107 -240 -270 -240z" />
    <glyph glyph-name="Ugrave" unicode="&#xd9;" horiz-adv-x="680" 
d="M420 740h-127l-100 120h162zM340 -10c-162 0 -270 80 -270 240v430h140v-410c0 -97 58 -132 130 -132c73 0 130 35 130 132v410h140v-430c0 -160 -107 -240 -270 -240z" />
    <glyph glyph-name="Uhungarumlaut" unicode="&#x170;" horiz-adv-x="680" 
d="M305 740h-127l65 120h162zM505 740h-127l75 120h152zM340 -10c-162 0 -270 80 -270 240v430h140v-410c0 -97 58 -132 130 -132c73 0 130 35 130 132v410h140v-430c0 -160 -107 -240 -270 -240z" />
    <glyph glyph-name="Umacron" unicode="&#x16a;" horiz-adv-x="680" 
d="M490 735h-300v100h300v-100zM340 -10c-162 0 -270 80 -270 240v430h140v-410c0 -97 58 -132 130 -132c73 0 130 35 130 132v410h140v-430c0 -160 -107 -240 -270 -240z" />
    <glyph glyph-name="Uogonek" unicode="&#x172;" horiz-adv-x="680" 
d="M470 250v410h140v-430c0 -129 -70 -206 -183 -231c-33 -15 -61 -34 -61 -53c0 -15 14 -21 34 -21h30v-105h-60c-80 0 -125 40 -125 95c0 33 12 57 39 78c-130 17 -214 96 -214 237v430h140v-410c0 -97 58 -132 130 -132c73 0 130 35 130 132z" />
    <glyph glyph-name="Uring" unicode="&#x16e;" horiz-adv-x="680" 
d="M340 715c-56 0 -97 41 -97 98s41 97 97 97s98 -40 98 -97s-42 -98 -98 -98zM340 778c20 0 35 15 35 35s-15 35 -35 35s-35 -15 -35 -35s15 -35 35 -35zM340 -10c-162 0 -270 80 -270 240v430h140v-410c0 -97 58 -132 130 -132c73 0 130 35 130 132v410h140v-430
c0 -160 -107 -240 -270 -240z" />
    <glyph glyph-name="Utilde" unicode="&#x168;" horiz-adv-x="680" 
d="M265 735h-97c0 70 40 125 110 125c60 0 77 -35 107 -35c20 0 30 18 30 35h98c0 -70 -40 -125 -110 -125c-60 0 -78 35 -108 35c-20 0 -30 -17 -30 -35zM340 -10c-162 0 -270 80 -270 240v430h140v-410c0 -97 58 -132 130 -132c73 0 130 35 130 132v410h140v-430
c0 -160 -107 -240 -270 -240z" />
    <glyph glyph-name="V" unicode="V" horiz-adv-x="670" 
d="M418 0h-165l-253 660h150l185 -510l185 510h150z" />
    <glyph glyph-name="W" unicode="W" horiz-adv-x="920" 
d="M348 0h-150l-193 660h158l110 -475l112 475h150l113 -475l110 475h157l-192 -660h-150l-113 465z" />
    <glyph glyph-name="Wacute" unicode="&#x1e82;" horiz-adv-x="920" 
d="M508 740h-128l65 120h163zM348 0h-150l-193 660h158l110 -475l112 475h150l113 -475l110 475h157l-192 -660h-150l-113 465z" />
    <glyph glyph-name="Wcircumflex" unicode="&#x174;" horiz-adv-x="920" 
d="M420 740h-125l95 120h140l95 -120h-125l-40 50zM348 0h-150l-193 660h158l110 -475l112 475h150l113 -475l110 475h157l-192 -660h-150l-113 465z" />
    <glyph glyph-name="Wdieresis" unicode="&#x1e84;" horiz-adv-x="920" 
d="M355 708c-42 0 -77 32 -77 77s35 78 77 78c43 0 78 -33 78 -78s-35 -77 -78 -77zM565 708c-43 0 -77 32 -77 77s34 78 77 78s78 -33 78 -78s-35 -77 -78 -77zM348 0h-150l-193 660h158l110 -475l112 475h150l113 -475l110 475h157l-192 -660h-150l-113 465z" />
    <glyph glyph-name="Wgrave" unicode="&#x1e80;" horiz-adv-x="920" 
d="M540 740h-127l-100 120h162zM348 0h-150l-193 660h158l110 -475l112 475h150l113 -475l110 475h157l-192 -660h-150l-113 465z" />
    <glyph glyph-name="X" unicode="X" horiz-adv-x="640" 
d="M168 0h-168l240 340l-230 320h168l142 -210l143 210h167l-230 -320l240 -340h-167l-153 225z" />
    <glyph glyph-name="Y" unicode="Y" 
d="M380 0h-140v220l-248 440h153l165 -300l165 300h153l-248 -440v-220z" />
    <glyph glyph-name="Yacute" unicode="&#xdd;" 
d="M358 740h-128l65 120h163zM380 0h-140v220l-248 440h153l165 -300l165 300h153l-248 -440v-220z" />
    <glyph glyph-name="Ycircumflex" unicode="&#x176;" 
d="M270 740h-125l95 120h140l95 -120h-125l-40 50zM380 0h-140v220l-248 440h153l165 -300l165 300h153l-248 -440v-220z" />
    <glyph glyph-name="Ydieresis" unicode="&#x178;" 
d="M205 708c-42 0 -77 32 -77 77s35 78 77 78c43 0 78 -33 78 -78s-35 -77 -78 -77zM415 708c-43 0 -77 32 -77 77s34 78 77 78s78 -33 78 -78s-35 -77 -78 -77zM380 0h-140v220l-248 440h153l165 -300l165 300h153l-248 -440v-220z" />
    <glyph glyph-name="Ygrave" unicode="&#x1ef2;" 
d="M390 740h-127l-100 120h162zM380 0h-140v220l-248 440h153l165 -300l165 300h153l-248 -440v-220z" />
    <glyph glyph-name="uni1EF8" unicode="&#x1ef8;" 
d="M235 735h-97c0 70 40 125 110 125c60 0 77 -35 107 -35c20 0 30 18 30 35h98c0 -70 -40 -125 -110 -125c-60 0 -78 35 -108 35c-20 0 -30 -17 -30 -35zM380 0h-140v220l-248 440h153l165 -300l165 300h153l-248 -440v-220z" />
    <glyph glyph-name="Z" unicode="Z" horiz-adv-x="590" 
d="M575 0h-550v115l353 418h-333v127h520v-115l-347 -417h357v-128z" />
    <glyph glyph-name="Zacute" unicode="&#x179;" horiz-adv-x="590" 
d="M353 740h-128l65 120h163zM575 0h-550v115l353 418h-333v127h520v-115l-347 -417h357v-128z" />
    <glyph glyph-name="Zcaron" unicode="&#x17d;" horiz-adv-x="590" 
d="M375 740h-140l-95 120h125l40 -50l40 50h125zM575 0h-550v115l353 418h-333v127h520v-115l-347 -417h357v-128z" />
    <glyph glyph-name="Zdotaccent" unicode="&#x17b;" horiz-adv-x="590" 
d="M305 708c-42 0 -77 32 -77 77s35 78 77 78c43 0 78 -33 78 -78s-35 -77 -78 -77zM575 0h-550v115l353 418h-333v127h520v-115l-347 -417h357v-128z" />
    <glyph glyph-name="Adieresis.ss01" horiz-adv-x="670" 
d="M165 840h140v-120h-140v120zM365 840h140v-120h-140v120zM673 0h-150l-51 143h-274l-50 -143h-151l253 660h170zM335 530l-93 -265h187z" />
    <glyph glyph-name="Ccedilla.ss01" horiz-adv-x="710" 
d="M365 -10c-190 0 -335 150 -335 340s145 340 335 340c180 0 295 -130 315 -275h-142c-15 80 -75 148 -173 148c-107 0 -192 -83 -192 -213s85 -212 192 -212c98 0 158 67 173 147h142c-20 -145 -135 -275 -315 -275zM378 -200h-163l100 120h125z" />
    <glyph glyph-name="Edieresis.ss01" horiz-adv-x="585" 
d="M280 720h-140v120h140v-120zM480 720h-140v120h140v-120zM545 0h-470v660h470v-127h-330v-130h310v-123h-310v-152h330v-128z" />
    <glyph glyph-name="Edotaccent.ss01" horiz-adv-x="585" 
d="M380 720h-140v120h140v-120zM545 0h-470v660h470v-127h-330v-130h310v-123h-310v-152h330v-128z" />
    <glyph glyph-name="Gdotaccent.ss01" horiz-adv-x="720" 
d="M440 720h-140v120h140v-120zM370 -10c-190 0 -340 150 -340 340s150 340 340 340c180 0 295 -125 315 -245h-142c-20 63 -75 118 -173 118c-105 0 -197 -80 -197 -213c0 -132 90 -212 197 -212c100 0 153 57 168 117h-168v115h320v-32c0 -190 -130 -328 -320 -328z" />
    <glyph glyph-name="Ldot.ss01" horiz-adv-x="600" 
d="M525 0h-450v660h140v-530h310v-130zM456 260h-165v150h165v-150z" />
    <glyph glyph-name="Scedilla.ss01" 
d="M310 -10c-162 0 -272 80 -275 225h145c3 -60 48 -105 143 -105c70 0 117 34 117 81c0 48 -46 61 -115 74l-52 10c-105 20 -228 47 -228 190c0 129 105 205 265 205c153 0 263 -75 265 -215h-144c-2 60 -48 95 -133 95c-60 0 -108 -26 -108 -73c0 -46 50 -59 115 -72
l53 -10c105 -20 227 -47 227 -190c0 -137 -105 -215 -275 -215zM323 -200h-163l100 120h125z" />
    <glyph glyph-name="uni0162.ss01" horiz-adv-x="570" 
d="M355 0h-140v533h-205v127h550v-127h-205v-533zM298 -200h-163l100 120h125z" />
    <glyph glyph-name="Udieresis.ss01" horiz-adv-x="680" 
d="M310 720h-140v120h140v-120zM510 720h-140v120h140v-120zM340 -10c-162 0 -270 80 -270 240v430h140v-410c0 -97 58 -132 130 -132c73 0 130 35 130 132v410h140v-430c0 -160 -107 -240 -270 -240z" />
    <glyph glyph-name="Wdieresis.ss01" horiz-adv-x="920" 
d="M430 720h-140v120h140v-120zM630 720h-140v120h140v-120zM348 0h-150l-193 660h158l110 -475l112 475h150l113 -475l110 475h157l-192 -660h-150l-113 465z" />
    <glyph glyph-name="Ydieresis.ss01" 
d="M280 720h-140v120h140v-120zM480 720h-140v120h140v-120zM380 0h-140v220l-248 440h153l165 -300l165 300h153l-248 -440v-220z" />
    <glyph glyph-name="Zdotaccent.ss01" horiz-adv-x="590" 
d="M375 720h-140v120h140v-120zM575 0h-550v115l353 418h-333v127h520v-115l-347 -417h357v-128z" />
    <glyph glyph-name="Adieresis.ss04" horiz-adv-x="670" 
d="M185 720h300v-20h-300v20zM673 0h-150l-51 143h-274l-50 -143h-151l253 660h170zM335 530l-93 -265h187z" />
    <glyph glyph-name="Eacute.ss04" horiz-adv-x="585" 
d="M545 700h-300v20h300v-20zM545 0h-470v660h470v-127h-330v-130h310v-123h-310v-152h330v-128z" />
    <glyph glyph-name="Ecircumflex.ss04" horiz-adv-x="585" 
d="M460 700h-300v20h300v-20zM545 0h-470v660h470v-127h-330v-130h310v-123h-310v-152h330v-128z" />
    <glyph glyph-name="Egrave.ss04" horiz-adv-x="585" 
d="M375 700h-300v20h300v-20zM545 0h-470v660h470v-127h-330v-130h310v-123h-310v-152h330v-128z" />
    <glyph glyph-name="Odieresis.ss04" horiz-adv-x="740" 
d="M520 710h-300v20h300v-20zM370 -10c-190 0 -340 140 -340 340c0 190 150 340 340 340s340 -150 340 -340c0 -200 -150 -340 -340 -340zM370 118c108 0 198 82 198 212s-90 213 -198 213c-107 0 -197 -83 -197 -213s90 -212 197 -212z" />
    <glyph glyph-name="Udieresis.ss04" horiz-adv-x="680" 
d="M490 700h-300v20h300v-20zM340 -10c-162 0 -270 80 -270 240v430h140v-410c0 -97 58 -132 130 -132c73 0 130 35 130 132v410h140v-430c0 -160 -107 -240 -270 -240z" />
    <glyph glyph-name="a" unicode="a" horiz-adv-x="545" 
d="M213 -10c-98 0 -183 55 -183 153c0 92 75 132 168 147l92 15c30 5 58 10 58 45c0 38 -28 58 -73 58c-55 0 -90 -25 -92 -78h-138c0 113 100 180 230 180c160 0 215 -75 215 -195v-315h-130v50c-35 -42 -90 -60 -147 -60zM255 95c48 0 95 28 95 73v67l-75 -17
c-50 -12 -95 -25 -95 -68c0 -40 38 -55 75 -55z" />
    <glyph glyph-name="aacute" unicode="&#xe1;" horiz-adv-x="545" 
d="M323 580h-128l65 120h163zM213 -10c-98 0 -183 55 -183 153c0 92 75 132 168 147l92 15c30 5 58 10 58 45c0 38 -28 58 -73 58c-55 0 -90 -25 -92 -78h-138c0 113 100 180 230 180c160 0 215 -75 215 -195v-315h-130v50c-35 -42 -90 -60 -147 -60zM255 95
c48 0 95 28 95 73v67l-75 -17c-50 -12 -95 -25 -95 -68c0 -40 38 -55 75 -55z" />
    <glyph glyph-name="abreve" unicode="&#x103;" horiz-adv-x="545" 
d="M275 565c-75 0 -142 44 -145 135h98c2 -35 22 -47 47 -47s45 12 48 47h97c-2 -91 -70 -135 -145 -135zM213 -10c-98 0 -183 55 -183 153c0 92 75 132 168 147l92 15c30 5 58 10 58 45c0 38 -28 58 -73 58c-55 0 -90 -25 -92 -78h-138c0 113 100 180 230 180
c160 0 215 -75 215 -195v-315h-130v50c-35 -42 -90 -60 -147 -60zM255 95c48 0 95 28 95 73v67l-75 -17c-50 -12 -95 -25 -95 -68c0 -40 38 -55 75 -55z" />
    <glyph glyph-name="uni01CE" unicode="&#x1ce;" horiz-adv-x="545" 
d="M345 580h-140l-95 120h125l40 -50l40 50h125zM213 -10c-98 0 -183 55 -183 153c0 92 75 132 168 147l92 15c30 5 58 10 58 45c0 38 -28 58 -73 58c-55 0 -90 -25 -92 -78h-138c0 113 100 180 230 180c160 0 215 -75 215 -195v-315h-130v50c-35 -42 -90 -60 -147 -60z
M255 95c48 0 95 28 95 73v67l-75 -17c-50 -12 -95 -25 -95 -68c0 -40 38 -55 75 -55z" />
    <glyph glyph-name="acircumflex" unicode="&#xe2;" horiz-adv-x="545" 
d="M235 580h-125l95 120h140l95 -120h-125l-40 50zM213 -10c-98 0 -183 55 -183 153c0 92 75 132 168 147l92 15c30 5 58 10 58 45c0 38 -28 58 -73 58c-55 0 -90 -25 -92 -78h-138c0 113 100 180 230 180c160 0 215 -75 215 -195v-315h-130v50c-35 -42 -90 -60 -147 -60z
M255 95c48 0 95 28 95 73v67l-75 -17c-50 -12 -95 -25 -95 -68c0 -40 38 -55 75 -55z" />
    <glyph glyph-name="adieresis" unicode="&#xe4;" horiz-adv-x="545" 
d="M170 548c-42 0 -77 32 -77 77s35 78 77 78c43 0 78 -33 78 -78s-35 -77 -78 -77zM380 548c-43 0 -77 32 -77 77s34 78 77 78s78 -33 78 -78s-35 -77 -78 -77zM213 -10c-98 0 -183 55 -183 153c0 92 75 132 168 147l92 15c30 5 58 10 58 45c0 38 -28 58 -73 58
c-55 0 -90 -25 -92 -78h-138c0 113 100 180 230 180c160 0 215 -75 215 -195v-315h-130v50c-35 -42 -90 -60 -147 -60zM255 95c48 0 95 28 95 73v67l-75 -17c-50 -12 -95 -25 -95 -68c0 -40 38 -55 75 -55z" />
    <glyph glyph-name="agrave" unicode="&#xe0;" horiz-adv-x="545" 
d="M355 580h-127l-100 120h162zM213 -10c-98 0 -183 55 -183 153c0 92 75 132 168 147l92 15c30 5 58 10 58 45c0 38 -28 58 -73 58c-55 0 -90 -25 -92 -78h-138c0 113 100 180 230 180c160 0 215 -75 215 -195v-315h-130v50c-35 -42 -90 -60 -147 -60zM255 95
c48 0 95 28 95 73v67l-75 -17c-50 -12 -95 -25 -95 -68c0 -40 38 -55 75 -55z" />
    <glyph glyph-name="amacron" unicode="&#x101;" horiz-adv-x="545" 
d="M425 575h-300v100h300v-100zM213 -10c-98 0 -183 55 -183 153c0 92 75 132 168 147l92 15c30 5 58 10 58 45c0 38 -28 58 -73 58c-55 0 -90 -25 -92 -78h-138c0 113 100 180 230 180c160 0 215 -75 215 -195v-315h-130v50c-35 -42 -90 -60 -147 -60zM255 95
c48 0 95 28 95 73v67l-75 -17c-50 -12 -95 -25 -95 -68c0 -40 38 -55 75 -55z" />
    <glyph glyph-name="aogonek" unicode="&#x105;" horiz-adv-x="545" 
d="M490 315v-315c-35 -15 -64 -34 -64 -54c0 -15 14 -21 34 -21h30v-105h-60c-80 0 -125 40 -125 95c0 36 18 62 55 85v50c-35 -42 -90 -60 -147 -60c-98 0 -183 55 -183 153c0 92 75 132 168 147l92 15c30 5 58 10 58 45c0 38 -28 58 -73 58c-55 0 -90 -25 -92 -78h-138
c0 113 100 180 230 180c160 0 215 -75 215 -195zM350 168v67l-75 -17c-50 -12 -95 -25 -95 -68c0 -40 38 -55 75 -55c48 0 95 28 95 73z" />
    <glyph glyph-name="aring" unicode="&#xe5;" horiz-adv-x="545" 
d="M275 555c-56 0 -97 41 -97 98s41 97 97 97s98 -40 98 -97s-42 -98 -98 -98zM275 618c20 0 35 15 35 35s-15 35 -35 35s-35 -15 -35 -35s15 -35 35 -35zM213 -10c-98 0 -183 55 -183 153c0 92 75 132 168 147l92 15c30 5 58 10 58 45c0 38 -28 58 -73 58
c-55 0 -90 -25 -92 -78h-138c0 113 100 180 230 180c160 0 215 -75 215 -195v-315h-130v50c-35 -42 -90 -60 -147 -60zM255 95c48 0 95 28 95 73v67l-75 -17c-50 -12 -95 -25 -95 -68c0 -40 38 -55 75 -55z" />
    <glyph glyph-name="aringacute" unicode="&#x1fb;" horiz-adv-x="535" 
d="M260 560c-55 0 -95 40 -95 95c0 23 6 36 25 70l65 115h155l-95 -107c25 -20 40 -43 40 -78c0 -55 -40 -95 -95 -95zM260 625c18 0 30 13 30 30c0 18 -12 30 -30 30c-17 0 -30 -12 -30 -30c0 -17 13 -30 30 -30zM213 -10c-98 0 -183 55 -183 153c0 92 75 132 168 147
l92 15c30 5 58 10 58 45c0 38 -28 58 -73 58c-55 0 -90 -25 -92 -78h-138c0 113 100 180 230 180c160 0 215 -75 215 -195v-315h-130v50c-35 -42 -90 -60 -147 -60zM255 95c48 0 95 28 95 73v67l-75 -17c-50 -12 -95 -25 -95 -68c0 -40 38 -55 75 -55z" />
    <glyph glyph-name="atilde" unicode="&#xe3;" horiz-adv-x="545" 
d="M200 575h-97c0 70 40 125 110 125c60 0 77 -35 107 -35c20 0 30 18 30 35h98c0 -70 -40 -125 -110 -125c-60 0 -78 35 -108 35c-20 0 -30 -17 -30 -35zM213 -10c-98 0 -183 55 -183 153c0 92 75 132 168 147l92 15c30 5 58 10 58 45c0 38 -28 58 -73 58
c-55 0 -90 -25 -92 -78h-138c0 113 100 180 230 180c160 0 215 -75 215 -195v-315h-130v50c-35 -42 -90 -60 -147 -60zM255 95c48 0 95 28 95 73v67l-75 -17c-50 -12 -95 -25 -95 -68c0 -40 38 -55 75 -55z" />
    <glyph glyph-name="ae" unicode="&#xe6;" horiz-adv-x="885" 
d="M223 -10c-108 0 -193 55 -193 153c0 92 75 132 168 147l92 15c30 5 58 10 58 45c0 36 -28 58 -73 58c-55 0 -90 -27 -92 -78h-138c0 111 100 180 230 180c80 0 133 -29 165 -80c43 53 98 80 170 80c158 0 245 -110 245 -280v-25h-357c12 -72 62 -105 122 -105
c55 0 90 30 110 70l118 -45c-43 -85 -113 -135 -228 -135c-82 0 -147 33 -190 80c-47 -52 -115 -80 -207 -80zM498 295h218c0 68 -48 105 -106 105c-57 0 -102 -37 -112 -105zM255 95c48 0 95 28 95 73v67l-75 -17c-50 -12 -95 -25 -95 -68c0 -40 38 -55 75 -55z" />
    <glyph glyph-name="aeacute" unicode="&#x1fd;" horiz-adv-x="885" 
d="M483 580h-128l65 120h163zM223 -10c-108 0 -193 55 -193 153c0 92 75 132 168 147l92 15c30 5 58 10 58 45c0 36 -28 58 -73 58c-55 0 -90 -27 -92 -78h-138c0 111 100 180 230 180c80 0 133 -29 165 -80c43 53 98 80 170 80c158 0 245 -110 245 -280v-25h-357
c12 -72 62 -105 122 -105c55 0 90 30 110 70l118 -45c-43 -85 -113 -135 -228 -135c-82 0 -147 33 -190 80c-47 -52 -115 -80 -207 -80zM498 295h218c0 68 -48 105 -106 105c-57 0 -102 -37 -112 -105zM255 95c48 0 95 28 95 73v67l-75 -17c-50 -12 -95 -25 -95 -68
c0 -40 38 -55 75 -55z" />
    <glyph glyph-name="b" unicode="b" horiz-adv-x="600" 
d="M343 -10c-79 0 -132 40 -150 70v-60h-135v680h140v-240c16 30 66 70 145 70c135 0 230 -110 230 -260c0 -160 -95 -260 -230 -260zM315 105c75 0 118 55 118 145c0 70 -40 145 -118 145c-82 0 -117 -75 -117 -145s35 -145 117 -145z" />
    <glyph glyph-name="c" unicode="c" horiz-adv-x="535" 
d="M280 -10c-155 0 -250 110 -250 260s105 260 250 260s220 -107 230 -205h-137c-8 35 -30 90 -93 90c-60 0 -105 -55 -105 -145c0 -92 45 -145 105 -145c63 0 85 55 93 90h137c-10 -97 -85 -205 -230 -205z" />
    <glyph glyph-name="cacute" unicode="&#x107;" horiz-adv-x="535" 
d="M328 580h-128l65 120h163zM280 -10c-155 0 -250 110 -250 260s105 260 250 260s220 -107 230 -205h-137c-8 35 -30 90 -93 90c-60 0 -105 -55 -105 -145c0 -92 45 -145 105 -145c63 0 85 55 93 90h137c-10 -97 -85 -205 -230 -205z" />
    <glyph glyph-name="ccaron" unicode="&#x10d;" horiz-adv-x="535" 
d="M350 580h-140l-95 120h125l40 -50l40 50h125zM280 -10c-155 0 -250 110 -250 260s105 260 250 260s220 -107 230 -205h-137c-8 35 -30 90 -93 90c-60 0 -105 -55 -105 -145c0 -92 45 -145 105 -145c63 0 85 55 93 90h137c-10 -97 -85 -205 -230 -205z" />
    <glyph glyph-name="ccedilla" unicode="&#xe7;" horiz-adv-x="535" 
d="M280 -10c-155 0 -250 110 -250 260s105 260 250 260s220 -107 230 -205h-137c-8 35 -30 90 -93 90c-60 0 -105 -55 -105 -145c0 -92 45 -145 105 -145c63 0 85 55 93 90h137c-10 -97 -85 -205 -230 -205zM280 -213c-42 0 -77 33 -77 78s35 77 77 77c43 0 78 -32 78 -77
s-35 -78 -78 -78z" />
    <glyph glyph-name="cdotaccent" unicode="&#x10b;" horiz-adv-x="535" 
d="M280 548c-42 0 -77 32 -77 77s35 78 77 78c43 0 78 -33 78 -78s-35 -77 -78 -77zM280 -10c-155 0 -250 110 -250 260s105 260 250 260s220 -107 230 -205h-137c-8 35 -30 90 -93 90c-60 0 -105 -55 -105 -145c0 -92 45 -145 105 -145c63 0 85 55 93 90h137
c-10 -97 -85 -205 -230 -205z" />
    <glyph glyph-name="d" unicode="d" horiz-adv-x="600" 
d="M258 -10c-135 0 -230 100 -230 260c0 150 95 260 230 260c78 0 129 -40 145 -70v240h140v-680h-135v60c-18 -30 -72 -70 -150 -70zM285 105c83 0 118 75 118 145s-35 145 -118 145c-77 0 -117 -75 -117 -145c0 -90 42 -145 117 -145z" />
    <glyph glyph-name="eth" unicode="&#xf0;" horiz-adv-x="550" 
d="M435 608l-72 -30c90 -90 157 -211 157 -348c0 -140 -107 -240 -245 -240c-137 0 -245 100 -245 240s108 235 245 235c15 0 35 -2 50 -5l-74 71l-126 -53l-37 87l88 37l-81 78h163l31 -31l109 46zM275 113c68 0 105 47 105 117s-37 118 -105 118c-67 0 -105 -48 -105 -118
s38 -117 105 -117z" />
    <glyph glyph-name="dcaron" unicode="&#x10f;" horiz-adv-x="600" 
d="M258 -10c-135 0 -230 100 -230 260c0 150 95 260 230 260c78 0 129 -40 145 -70v240h140v-680h-135v60c-18 -30 -72 -70 -150 -70zM696 560h-127l64 120h163zM285 105c83 0 118 75 118 145s-35 145 -118 145c-77 0 -117 -75 -117 -145c0 -90 42 -145 117 -145z" />
    <glyph glyph-name="dcroat" unicode="&#x111;" horiz-adv-x="600" 
d="M607 680v-105h-64v-575h-135v60c-18 -30 -72 -70 -150 -70c-135 0 -230 100 -230 260c0 150 95 260 230 260c78 0 129 -40 145 -70v135h-150v105h354zM285 105c83 0 118 75 118 145s-35 145 -118 145c-77 0 -117 -75 -117 -145c0 -90 42 -145 117 -145z" />
    <glyph glyph-name="e" unicode="e" horiz-adv-x="555" 
d="M290 -10c-157 0 -260 100 -260 260c0 150 103 260 250 260c158 0 245 -110 245 -280v-25h-357c12 -72 62 -105 122 -105c55 0 90 30 110 70l118 -45c-43 -85 -113 -135 -228 -135zM168 295h218c0 68 -48 105 -106 105c-57 0 -102 -37 -112 -105z" />
    <glyph glyph-name="eacute" unicode="&#xe9;" horiz-adv-x="555" 
d="M328 580h-128l65 120h163zM290 -10c-157 0 -260 100 -260 260c0 150 103 260 250 260c158 0 245 -110 245 -280v-25h-357c12 -72 62 -105 122 -105c55 0 90 30 110 70l118 -45c-43 -85 -113 -135 -228 -135zM168 295h218c0 68 -48 105 -106 105c-57 0 -102 -37 -112 -105
z" />
    <glyph glyph-name="ecaron" unicode="&#x11b;" horiz-adv-x="555" 
d="M350 580h-140l-95 120h125l40 -50l40 50h125zM290 -10c-157 0 -260 100 -260 260c0 150 103 260 250 260c158 0 245 -110 245 -280v-25h-357c12 -72 62 -105 122 -105c55 0 90 30 110 70l118 -45c-43 -85 -113 -135 -228 -135zM168 295h218c0 68 -48 105 -106 105
c-57 0 -102 -37 -112 -105z" />
    <glyph glyph-name="uni0229" unicode="&#x229;" horiz-adv-x="555" 
d="M290 -10c-157 0 -260 100 -260 260c0 150 103 260 250 260c158 0 245 -110 245 -280v-25h-357c12 -72 62 -105 122 -105c55 0 90 30 110 70l118 -45c-43 -85 -113 -135 -228 -135zM168 295h218c0 68 -48 105 -106 105c-57 0 -102 -37 -112 -105zM290 -213
c-42 0 -77 33 -77 78s35 77 77 77c43 0 78 -32 78 -77s-35 -78 -78 -78z" />
    <glyph glyph-name="ecircumflex" unicode="&#xea;" horiz-adv-x="555" 
d="M240 580h-125l95 120h140l95 -120h-125l-40 50zM290 -10c-157 0 -260 100 -260 260c0 150 103 260 250 260c158 0 245 -110 245 -280v-25h-357c12 -72 62 -105 122 -105c55 0 90 30 110 70l118 -45c-43 -85 -113 -135 -228 -135zM168 295h218c0 68 -48 105 -106 105
c-57 0 -102 -37 -112 -105z" />
    <glyph glyph-name="edieresis" unicode="&#xeb;" horiz-adv-x="555" 
d="M175 548c-42 0 -77 32 -77 77s35 78 77 78c43 0 78 -33 78 -78s-35 -77 -78 -77zM385 548c-43 0 -77 32 -77 77s34 78 77 78s78 -33 78 -78s-35 -77 -78 -77zM290 -10c-157 0 -260 100 -260 260c0 150 103 260 250 260c158 0 245 -110 245 -280v-25h-357
c12 -72 62 -105 122 -105c55 0 90 30 110 70l118 -45c-43 -85 -113 -135 -228 -135zM168 295h218c0 68 -48 105 -106 105c-57 0 -102 -37 -112 -105z" />
    <glyph glyph-name="edotaccent" unicode="&#x117;" horiz-adv-x="555" 
d="M280 548c-42 0 -77 32 -77 77s35 78 77 78c43 0 78 -33 78 -78s-35 -77 -78 -77zM290 -10c-157 0 -260 100 -260 260c0 150 103 260 250 260c158 0 245 -110 245 -280v-25h-357c12 -72 62 -105 122 -105c55 0 90 30 110 70l118 -45c-43 -85 -113 -135 -228 -135zM168 295
h218c0 68 -48 105 -106 105c-57 0 -102 -37 -112 -105z" />
    <glyph glyph-name="egrave" unicode="&#xe8;" horiz-adv-x="555" 
d="M360 580h-127l-100 120h162zM290 -10c-157 0 -260 100 -260 260c0 150 103 260 250 260c158 0 245 -110 245 -280v-25h-357c12 -72 62 -105 122 -105c55 0 90 30 110 70l118 -45c-43 -85 -113 -135 -228 -135zM168 295h218c0 68 -48 105 -106 105
c-57 0 -102 -37 -112 -105z" />
    <glyph glyph-name="emacron" unicode="&#x113;" horiz-adv-x="555" 
d="M430 575h-300v100h300v-100zM290 -10c-157 0 -260 100 -260 260c0 150 103 260 250 260c158 0 245 -110 245 -280v-25h-357c12 -72 62 -105 122 -105c55 0 90 30 110 70l118 -45c-43 -85 -113 -135 -228 -135zM168 295h218c0 68 -48 105 -106 105
c-57 0 -102 -37 -112 -105z" />
    <glyph glyph-name="eogonek" unicode="&#x119;" horiz-adv-x="555" 
d="M525 230v-25h-357c12 -72 62 -105 122 -105c55 0 90 30 110 70l118 -45c-33 -65 -81 -109 -152 -126c-34 -15 -61 -34 -61 -53c0 -15 14 -21 34 -21h30v-105h-60c-80 0 -125 40 -125 95c0 34 13 59 42 81c-120 24 -196 117 -196 254c0 150 103 260 250 260
c158 0 245 -110 245 -280zM168 295h218c0 68 -48 105 -106 105c-57 0 -102 -37 -112 -105z" />
    <glyph glyph-name="uni1EBD" unicode="&#x1ebd;" horiz-adv-x="555" 
d="M205 575h-97c0 70 40 125 110 125c60 0 77 -35 107 -35c20 0 30 18 30 35h98c0 -70 -40 -125 -110 -125c-60 0 -78 35 -108 35c-20 0 -30 -17 -30 -35zM290 -10c-157 0 -260 100 -260 260c0 150 103 260 250 260c158 0 245 -110 245 -280v-25h-357
c12 -72 62 -105 122 -105c55 0 90 30 110 70l118 -45c-43 -85 -113 -135 -228 -135zM168 295h218c0 68 -48 105 -106 105c-57 0 -102 -37 -112 -105z" />
    <glyph glyph-name="f" unicode="f" horiz-adv-x="325" 
d="M225 0h-140v393h-75v107h75v40c0 110 60 150 155 150c34 0 63 -4 75 -7v-95h-25c-40 0 -65 -12 -65 -55v-33h80v-107h-80v-393z" />
    <glyph glyph-name="g" unicode="g" horiz-adv-x="595" 
d="M295 -190c-142 0 -232 67 -235 180h140c3 -43 35 -73 100 -73s100 36 100 111v57c-13 -30 -59 -70 -137 -70c-130 0 -223 98 -223 245c0 138 93 250 223 250c75 0 125 -40 142 -70v60h135v-470c0 -145 -82 -220 -245 -220zM290 125c76 0 110 59 110 135
c0 68 -30 135 -110 135c-70 0 -110 -67 -110 -135c0 -87 40 -135 110 -135z" />
    <glyph glyph-name="gbreve" unicode="&#x11f;" horiz-adv-x="595" 
d="M290 565c-75 0 -142 44 -145 135h98c2 -35 22 -47 47 -47s45 12 48 47h97c-2 -91 -70 -135 -145 -135zM295 -190c-142 0 -232 67 -235 180h140c3 -43 35 -73 100 -73s100 36 100 111v57c-13 -30 -59 -70 -137 -70c-130 0 -223 98 -223 245c0 138 93 250 223 250
c75 0 125 -40 142 -70v60h135v-470c0 -145 -82 -220 -245 -220zM290 125c76 0 110 59 110 135c0 68 -30 135 -110 135c-70 0 -110 -67 -110 -135c0 -87 40 -135 110 -135z" />
    <glyph glyph-name="uni0123" unicode="&#x123;" horiz-adv-x="595" 
d="M316 700h115l-45 -120h-153zM295 -190c-142 0 -232 67 -235 180h140c3 -43 35 -73 100 -73s100 36 100 111v57c-13 -30 -59 -70 -137 -70c-130 0 -223 98 -223 245c0 138 93 250 223 250c75 0 125 -40 142 -70v60h135v-470c0 -145 -82 -220 -245 -220zM290 125
c76 0 110 59 110 135c0 68 -30 135 -110 135c-70 0 -110 -67 -110 -135c0 -87 40 -135 110 -135z" />
    <glyph glyph-name="gdotaccent" unicode="&#x121;" horiz-adv-x="595" 
d="M290 548c-42 0 -77 32 -77 77s35 78 77 78c43 0 78 -33 78 -78s-35 -77 -78 -77zM295 -190c-142 0 -232 67 -235 180h140c3 -43 35 -73 100 -73s100 36 100 111v57c-13 -30 -59 -70 -137 -70c-130 0 -223 98 -223 245c0 138 93 250 223 250c75 0 125 -40 142 -70v60h135
v-470c0 -145 -82 -220 -245 -220zM290 125c76 0 110 59 110 135c0 68 -30 135 -110 135c-70 0 -110 -67 -110 -135c0 -87 40 -135 110 -135z" />
    <glyph glyph-name="h" unicode="h" horiz-adv-x="575" 
d="M198 0h-140v680h140v-240c20 30 65 70 140 70c122 0 185 -85 185 -200v-310h-140v293c0 70 -33 102 -85 102c-73 0 -100 -52 -100 -127v-268z" />
    <glyph glyph-name="hbar" unicode="&#x127;" horiz-adv-x="575" 
d="M338 510c122 0 185 -85 185 -200v-310h-140v293c0 70 -33 102 -85 102c-73 0 -100 -52 -100 -127v-268h-140v583h-78v97h340v-97h-122v-143c20 30 65 70 140 70z" />
    <glyph glyph-name="hcircumflex" unicode="&#x125;" horiz-adv-x="575" 
d="M262 740h-125l95 120h140l95 -120h-125l-40 50zM198 0h-140v680h140v-240c20 30 65 70 140 70c122 0 185 -85 185 -200v-310h-140v293c0 70 -33 102 -85 102c-73 0 -100 -52 -100 -127v-268z" />
    <glyph glyph-name="i" unicode="i" horiz-adv-x="250" 
d="M125 548c-42 0 -77 32 -77 77s35 78 77 78c43 0 78 -33 78 -78s-35 -77 -78 -77zM195 0h-140v500h140v-500z" />
    <glyph glyph-name="dotlessi" unicode="&#x131;" horiz-adv-x="250" 
d="M195 0h-140v500h140v-500z" />
    <glyph glyph-name="iacute" unicode="&#xed;" horiz-adv-x="250" 
d="M173 580h-128l65 120h163zM195 0h-140v500h140v-500z" />
    <glyph glyph-name="uni01D0" unicode="&#x1d0;" horiz-adv-x="250" 
d="M195 580h-140l-95 120h125l40 -50l40 50h125zM195 0h-140v500h140v-500z" />
    <glyph glyph-name="icircumflex" unicode="&#xee;" horiz-adv-x="250" 
d="M85 580h-125l95 120h140l95 -120h-125l-40 50zM195 0h-140v500h140v-500z" />
    <glyph glyph-name="idieresis" unicode="&#xef;" horiz-adv-x="250" 
d="M20 548c-43 0 -78 32 -78 77s35 78 78 78s78 -33 78 -78s-35 -77 -78 -77zM230 548c-43 0 -77 32 -77 77s34 78 77 78s78 -33 78 -78s-35 -77 -78 -77zM195 0h-140v500h140v-500z" />
    <glyph glyph-name="i.loclTRK" horiz-adv-x="250" 
d="M125 548c-42 0 -77 32 -77 77s35 78 77 78c43 0 78 -33 78 -78s-35 -77 -78 -77zM195 0h-140v500h140v-500z" />
    <glyph glyph-name="igrave" unicode="&#xec;" horiz-adv-x="250" 
d="M205 580h-127l-101 120h163zM195 0h-140v500h140v-500z" />
    <glyph glyph-name="ij" unicode="&#x133;" horiz-adv-x="500" 
d="M125 548c-42 0 -77 32 -77 77s35 78 77 78c43 0 78 -33 78 -78s-35 -77 -78 -77zM375 548c-42 0 -77 32 -77 77s35 78 77 78c43 0 78 -33 78 -78s-35 -77 -78 -77zM195 0h-140v500h140v-500zM305 -185c-22 0 -53 2 -75 5v100h28c30 0 47 7 47 57v523h140v-540
c0 -110 -50 -145 -140 -145z" />
    <glyph glyph-name="imacron" unicode="&#x12b;" horiz-adv-x="250" 
d="M275 575h-300v100h300v-100zM195 0h-140v500h140v-500z" />
    <glyph glyph-name="iogonek" unicode="&#x12f;" horiz-adv-x="250" 
d="M125 548c-42 0 -77 32 -77 77s35 78 77 78c43 0 78 -33 78 -78s-35 -77 -78 -77zM55 0v500h140v-500c-35 -15 -64 -34 -64 -54c0 -15 14 -21 34 -21h30v-105h-60c-80 0 -125 40 -125 95c0 36 15 62 45 85z" />
    <glyph glyph-name="itilde" unicode="&#x129;" horiz-adv-x="250" 
d="M50 575h-98c0 70 40 125 111 125c60 0 77 -35 107 -35c20 0 30 18 30 35h98c0 -70 -40 -125 -110 -125c-60 0 -78 35 -108 35c-20 0 -30 -17 -30 -35zM195 0h-140v500h140v-500z" />
    <glyph glyph-name="j" unicode="j" horiz-adv-x="250" 
d="M125 548c-42 0 -77 32 -77 77s35 78 77 78c43 0 78 -33 78 -78s-35 -77 -78 -77zM55 -185c-22 0 -53 2 -75 5v100h28c30 0 47 7 47 57v523h140v-540c0 -110 -50 -145 -140 -145z" />
    <glyph glyph-name="uni0237" unicode="&#x237;" horiz-adv-x="250" 
d="M55 -185c-22 0 -53 2 -75 5v100h28c30 0 47 7 47 57v523h140v-540c0 -110 -50 -145 -140 -145z" />
    <glyph glyph-name="jcircumflex" unicode="&#x135;" horiz-adv-x="250" 
d="M85 580h-125l95 120h140l95 -120h-125l-40 50zM55 -185c-22 0 -53 2 -75 5v100h28c30 0 47 7 47 57v523h140v-540c0 -110 -50 -145 -140 -145z" />
    <glyph glyph-name="k" unicode="k" horiz-adv-x="540" 
d="M198 0h-140v680h140v-375l157 195h163l-195 -230l215 -270h-173l-167 230v-230z" />
    <glyph glyph-name="uni0137" unicode="&#x137;" horiz-adv-x="540" 
d="M198 0h-140v680h140v-375l157 195h163l-195 -230l215 -270h-173l-167 230v-230zM265 -200h-115l45 120h153z" />
    <glyph glyph-name="kgreenlandic" unicode="&#x138;" horiz-adv-x="540" 
d="M198 0h-140v500h140v-199l82 94c50 58 100 115 215 115h10v-128h-10c-55 0 -80 -27 -135 -82l-38 -40l216 -260h-173l-167 225v-225z" />
    <glyph glyph-name="l" unicode="l" horiz-adv-x="250" 
d="M195 0h-140v680h140v-680z" />
    <glyph glyph-name="lacute" unicode="&#x13a;" horiz-adv-x="250" 
d="M173 760h-128l65 120h163zM195 0h-140v680h140v-680z" />
    <glyph glyph-name="lcaron" unicode="&#x13e;" horiz-adv-x="260" 
d="M195 0h-140v680h140v-680zM354 560h-127l64 120h163z" />
    <glyph glyph-name="uni013C" unicode="&#x13c;" horiz-adv-x="250" 
d="M195 0h-140v680h140v-680zM130 -200h-115l45 120h153z" />
    <glyph glyph-name="ldot" unicode="&#x140;" horiz-adv-x="416" 
d="M195 0h-140v680h140v-680zM319 263c-42 0 -77 32 -77 77s35 78 77 78c43 0 78 -33 78 -78s-35 -77 -78 -77z" />
    <glyph glyph-name="lslash" unicode="&#x142;" horiz-adv-x="280" 
d="M210 474l55 34v-138l-55 -34v-336h-140v249l-55 -34v138l55 34v293h140v-206z" />
    <glyph glyph-name="m" unicode="m" horiz-adv-x="875" 
d="M198 0h-140v500h135v-60c20 30 60 70 137 70c85 0 130 -45 150 -80c25 35 73 80 158 80c145 0 187 -95 187 -200v-310h-140v293c0 70 -32 102 -80 102c-62 0 -93 -42 -93 -117v-278h-140v293c0 70 -32 102 -79 102c-68 0 -95 -52 -95 -127v-268z" />
    <glyph glyph-name="n" unicode="n" horiz-adv-x="575" 
d="M198 0h-140v500h135v-60c20 30 70 70 145 70c122 0 185 -85 185 -200v-310h-140v293c0 70 -33 102 -85 102c-73 0 -100 -52 -100 -127v-268z" />
    <glyph glyph-name="nacute" unicode="&#x144;" horiz-adv-x="575" 
d="M348 580h-128l65 120h163zM198 0h-140v500h135v-60c20 30 70 70 145 70c122 0 185 -85 185 -200v-310h-140v293c0 70 -33 102 -85 102c-73 0 -100 -52 -100 -127v-268z" />
    <glyph glyph-name="napostrophe" unicode="&#x149;" horiz-adv-x="735" 
d="M125 380h-115l45 280h155zM358 0h-140v500h135v-60c20 30 70 70 145 70c122 0 185 -85 185 -200v-310h-140v293c0 70 -33 102 -85 102c-73 0 -100 -52 -100 -127v-268z" />
    <glyph glyph-name="ncaron" unicode="&#x148;" horiz-adv-x="575" 
d="M370 580h-140l-95 120h125l40 -50l40 50h125zM198 0h-140v500h135v-60c20 30 70 70 145 70c122 0 185 -85 185 -200v-310h-140v293c0 70 -33 102 -85 102c-73 0 -100 -52 -100 -127v-268z" />
    <glyph glyph-name="uni0146" unicode="&#x146;" horiz-adv-x="575" 
d="M198 0h-140v500h135v-60c20 30 70 70 145 70c122 0 185 -85 185 -200v-310h-140v293c0 70 -33 102 -85 102c-73 0 -100 -52 -100 -127v-268zM305 -200h-115l45 120h153z" />
    <glyph glyph-name="eng" unicode="&#x14b;" horiz-adv-x="575" 
d="M383 -185c-22 0 -53 2 -75 5v100h27c30 0 48 7 48 57v316c0 70 -33 102 -85 102c-68 0 -100 -52 -100 -122v-273h-140v500h135v-60c10 15 55 70 145 70c122 0 185 -85 185 -200v-350c0 -110 -50 -145 -140 -145z" />
    <glyph glyph-name="ntilde" unicode="&#xf1;" horiz-adv-x="575" 
d="M225 575h-97c0 70 40 125 110 125c60 0 77 -35 107 -35c20 0 30 18 30 35h98c0 -70 -40 -125 -110 -125c-60 0 -78 35 -108 35c-20 0 -30 -17 -30 -35zM198 0h-140v500h135v-60c20 30 70 70 145 70c122 0 185 -85 185 -200v-310h-140v293c0 70 -33 102 -85 102
c-73 0 -100 -52 -100 -127v-268z" />
    <glyph glyph-name="o" unicode="o" horiz-adv-x="580" 
d="M290 -10c-147 0 -260 100 -260 260c0 150 113 260 260 260c148 0 260 -110 260 -260c0 -160 -112 -260 -260 -260zM290 105c77 0 120 55 120 145c0 80 -43 145 -120 145c-76 0 -120 -65 -120 -145c0 -90 44 -145 120 -145z" />
    <glyph glyph-name="oacute" unicode="&#xf3;" horiz-adv-x="580" 
d="M338 580h-128l65 120h163zM290 -10c-147 0 -260 100 -260 260c0 150 113 260 260 260c148 0 260 -110 260 -260c0 -160 -112 -260 -260 -260zM290 105c77 0 120 55 120 145c0 80 -43 145 -120 145c-76 0 -120 -65 -120 -145c0 -90 44 -145 120 -145z" />
    <glyph glyph-name="uni01D2" unicode="&#x1d2;" horiz-adv-x="580" 
d="M360 580h-140l-95 120h125l40 -50l40 50h125zM290 -10c-147 0 -260 100 -260 260c0 150 113 260 260 260c148 0 260 -110 260 -260c0 -160 -112 -260 -260 -260zM290 105c77 0 120 55 120 145c0 80 -43 145 -120 145c-76 0 -120 -65 -120 -145c0 -90 44 -145 120 -145z
" />
    <glyph glyph-name="ocircumflex" unicode="&#xf4;" horiz-adv-x="580" 
d="M250 580h-125l95 120h140l95 -120h-125l-40 50zM290 -10c-147 0 -260 100 -260 260c0 150 113 260 260 260c148 0 260 -110 260 -260c0 -160 -112 -260 -260 -260zM290 105c77 0 120 55 120 145c0 80 -43 145 -120 145c-76 0 -120 -65 -120 -145c0 -90 44 -145 120 -145z
" />
    <glyph glyph-name="odieresis" unicode="&#xf6;" horiz-adv-x="580" 
d="M185 548c-42 0 -77 32 -77 77s35 78 77 78c43 0 78 -33 78 -78s-35 -77 -78 -77zM395 548c-43 0 -77 32 -77 77s34 78 77 78s78 -33 78 -78s-35 -77 -78 -77zM290 -10c-147 0 -260 100 -260 260c0 150 113 260 260 260c148 0 260 -110 260 -260
c0 -160 -112 -260 -260 -260zM290 105c77 0 120 55 120 145c0 80 -43 145 -120 145c-76 0 -120 -65 -120 -145c0 -90 44 -145 120 -145z" />
    <glyph glyph-name="ograve" unicode="&#xf2;" horiz-adv-x="580" 
d="M370 580h-127l-100 120h162zM290 -10c-147 0 -260 100 -260 260c0 150 113 260 260 260c148 0 260 -110 260 -260c0 -160 -112 -260 -260 -260zM290 105c77 0 120 55 120 145c0 80 -43 145 -120 145c-76 0 -120 -65 -120 -145c0 -90 44 -145 120 -145z" />
    <glyph glyph-name="ohungarumlaut" unicode="&#x151;" horiz-adv-x="580" 
d="M255 580h-127l65 120h162zM455 580h-127l75 120h152zM290 -10c-147 0 -260 100 -260 260c0 150 113 260 260 260c148 0 260 -110 260 -260c0 -160 -112 -260 -260 -260zM290 105c77 0 120 55 120 145c0 80 -43 145 -120 145c-76 0 -120 -65 -120 -145
c0 -90 44 -145 120 -145z" />
    <glyph glyph-name="omacron" unicode="&#x14d;" horiz-adv-x="580" 
d="M440 575h-300v100h300v-100zM290 -10c-147 0 -260 100 -260 260c0 150 113 260 260 260c148 0 260 -110 260 -260c0 -160 -112 -260 -260 -260zM290 105c77 0 120 55 120 145c0 80 -43 145 -120 145c-76 0 -120 -65 -120 -145c0 -90 44 -145 120 -145z" />
    <glyph glyph-name="oslash" unicode="&#xf8;" horiz-adv-x="580" 
d="M290 510c148 0 260 -110 260 -260c0 -160 -112 -260 -260 -260c-147 0 -260 100 -260 260c0 150 113 260 260 260zM290 395c-76 0 -120 -65 -120 -145c0 -18 2 -35 5 -50l177 177c-17 12 -38 18 -62 18zM290 105c77 0 120 55 120 145c0 14 -1 28 -4 41l-173 -173
c16 -9 35 -13 57 -13z" />
    <glyph glyph-name="oslashacute" unicode="&#x1ff;" horiz-adv-x="580" 
d="M275 700h163l-100 -120h-128zM290 510c148 0 260 -110 260 -260c0 -160 -112 -260 -260 -260c-147 0 -260 100 -260 260c0 150 113 260 260 260zM290 395c-76 0 -120 -65 -120 -145c0 -18 2 -35 5 -50l177 177c-17 12 -38 18 -62 18zM290 105c77 0 120 55 120 145
c0 14 -1 28 -4 41l-173 -173c16 -9 35 -13 57 -13z" />
    <glyph glyph-name="otilde" unicode="&#xf5;" horiz-adv-x="580" 
d="M215 575h-97c0 70 40 125 110 125c60 0 77 -35 107 -35c20 0 30 18 30 35h98c0 -70 -40 -125 -110 -125c-60 0 -78 35 -108 35c-20 0 -30 -17 -30 -35zM290 -10c-147 0 -260 100 -260 260c0 150 113 260 260 260c148 0 260 -110 260 -260c0 -160 -112 -260 -260 -260z
M290 105c77 0 120 55 120 145c0 80 -43 145 -120 145c-76 0 -120 -65 -120 -145c0 -90 44 -145 120 -145z" />
    <glyph glyph-name="oe" unicode="&#x153;" horiz-adv-x="945" 
d="M285 -10c-142 0 -255 100 -255 260c0 150 113 260 260 260c80 0 150 -35 195 -100c40 65 105 100 185 100c158 0 245 -110 245 -280v-25h-357c12 -72 62 -105 122 -105c55 0 90 30 110 70l118 -45c-43 -85 -113 -135 -228 -135c-85 0 -155 35 -195 100
c-45 -65 -115 -100 -200 -100zM558 295h218c0 68 -48 105 -106 105c-57 0 -102 -37 -112 -105zM290 105c77 0 120 55 120 145c0 80 -43 145 -120 145c-76 0 -120 -65 -120 -145c0 -90 44 -145 120 -145z" />
    <glyph glyph-name="p" unicode="p" horiz-adv-x="600" 
d="M198 -180h-140v680h135v-60c18 30 71 70 150 70c135 0 230 -100 230 -260c0 -150 -95 -260 -230 -260c-79 0 -129 40 -145 70v-240zM315 106c78 0 118 74 118 144c0 90 -43 145 -118 145c-82 0 -117 -75 -117 -145s35 -144 117 -144z" />
    <glyph glyph-name="thorn" unicode="&#xfe;" horiz-adv-x="600" 
d="M198 -180h-140v860h140v-240c17 30 68 70 145 70c135 0 230 -100 230 -260c0 -150 -95 -260 -230 -260c-79 0 -129 40 -145 70v-240zM315 106c78 0 118 74 118 144c0 90 -43 145 -118 145c-76 0 -117 -67 -117 -145c0 -70 35 -144 117 -144z" />
    <glyph glyph-name="q" unicode="q" horiz-adv-x="600" 
d="M543 -180h-140v240c-16 -30 -67 -70 -145 -70c-135 0 -230 110 -230 260c0 160 95 260 230 260c78 0 132 -40 150 -70v60h135v-680zM285 106c83 0 118 74 118 144s-35 145 -118 145c-75 0 -117 -55 -117 -145c0 -70 40 -144 117 -144z" />
    <glyph glyph-name="r" unicode="r" horiz-adv-x="390" 
d="M203 0h-140v500h132v-70c18 40 50 80 125 80c16 0 34 -1 45 -2v-125c-14 1 -33 2 -45 2c-90 0 -117 -52 -117 -140v-245z" />
    <glyph glyph-name="racute" unicode="&#x155;" horiz-adv-x="390" 
d="M243 580h-128l65 120h163zM203 0h-140v500h132v-70c18 40 50 80 125 80c16 0 34 -1 45 -2v-125c-14 1 -33 2 -45 2c-90 0 -117 -52 -117 -140v-245z" />
    <glyph glyph-name="rcaron" unicode="&#x159;" horiz-adv-x="390" 
d="M265 580h-140l-95 120h125l40 -50l40 50h125zM203 0h-140v500h132v-70c18 40 50 80 125 80c16 0 34 -1 45 -2v-125c-14 1 -33 2 -45 2c-90 0 -117 -52 -117 -140v-245z" />
    <glyph glyph-name="uni0157" unicode="&#x157;" horiz-adv-x="390" 
d="M203 0h-140v500h132v-70c18 40 50 80 125 80c16 0 34 -1 45 -2v-125c-14 1 -33 2 -45 2c-90 0 -117 -52 -117 -140v-245zM135 -200h-115l45 120h153z" />
    <glyph glyph-name="s" unicode="s" horiz-adv-x="510" 
d="M255 -10c-120 0 -222 60 -225 175h140c3 -42 40 -72 95 -72c45 0 75 20 75 55c0 32 -31 42 -60 47l-85 15c-57 10 -155 35 -155 135c0 105 95 165 215 165c110 0 213 -57 215 -167h-140c-2 42 -40 65 -82 65c-35 0 -68 -18 -68 -50c0 -30 26 -39 60 -45l85 -15
c57 -10 155 -36 155 -139c0 -107 -95 -169 -225 -169z" />
    <glyph glyph-name="sacute" unicode="&#x15b;" horiz-adv-x="510" 
d="M303 580h-128l65 120h163zM255 -10c-120 0 -222 60 -225 175h140c3 -42 40 -72 95 -72c45 0 75 20 75 55c0 32 -31 42 -60 47l-85 15c-57 10 -155 35 -155 135c0 105 95 165 215 165c110 0 213 -57 215 -167h-140c-2 42 -40 65 -82 65c-35 0 -68 -18 -68 -50
c0 -30 26 -39 60 -45l85 -15c57 -10 155 -36 155 -139c0 -107 -95 -169 -225 -169z" />
    <glyph glyph-name="scaron" unicode="&#x161;" horiz-adv-x="510" 
d="M325 580h-140l-95 120h125l40 -50l40 50h125zM255 -10c-120 0 -222 60 -225 175h140c3 -42 40 -72 95 -72c45 0 75 20 75 55c0 32 -31 42 -60 47l-85 15c-57 10 -155 35 -155 135c0 105 95 165 215 165c110 0 213 -57 215 -167h-140c-2 42 -40 65 -82 65
c-35 0 -68 -18 -68 -50c0 -30 26 -39 60 -45l85 -15c57 -10 155 -36 155 -139c0 -107 -95 -169 -225 -169z" />
    <glyph glyph-name="scedilla" unicode="&#x15f;" horiz-adv-x="510" 
d="M255 -10c-120 0 -222 60 -225 175h140c3 -42 40 -72 95 -72c45 0 75 20 75 55c0 32 -31 42 -60 47l-85 15c-57 10 -155 35 -155 135c0 105 95 165 215 165c110 0 213 -57 215 -167h-140c-2 42 -40 65 -82 65c-35 0 -68 -18 -68 -50c0 -30 26 -39 60 -45l85 -15
c57 -10 155 -36 155 -139c0 -107 -95 -169 -225 -169zM255 -213c-42 0 -77 33 -77 78s35 77 77 77c43 0 78 -32 78 -77s-35 -78 -78 -78z" />
    <glyph glyph-name="uni0219" unicode="&#x219;" horiz-adv-x="510" 
d="M255 -10c-120 0 -222 60 -225 175h140c3 -42 40 -72 95 -72c45 0 75 20 75 55c0 32 -31 42 -60 47l-85 15c-57 10 -155 35 -155 135c0 105 95 165 215 165c110 0 213 -57 215 -167h-140c-2 42 -40 65 -82 65c-35 0 -68 -18 -68 -50c0 -30 26 -39 60 -45l85 -15
c57 -10 155 -36 155 -139c0 -107 -95 -169 -225 -169zM260 -200h-115l45 120h153z" />
    <glyph glyph-name="germandbls" unicode="&#xdf;" horiz-adv-x="555" 
d="M195 0h-140v500c0 130 85 190 220 190s210 -67 210 -177c0 -65 -30 -110 -90 -133c83 -20 130 -78 130 -173c0 -135 -80 -207 -240 -207h-40v122h28c80 0 112 32 112 97s-32 98 -112 98h-28v108h18c55 0 82 28 82 73s-25 70 -72 70c-49 0 -78 -23 -78 -78v-490z" />
    <glyph glyph-name="longs" unicode="&#x17f;" horiz-adv-x="305" 
d="M235 0h-140v393h-75v107h75v40c0 110 60 150 155 150c34 0 63 -4 75 -7v-100h-25c-40 0 -65 -12 -65 -55v-528z" />
    <glyph glyph-name="t" unicode="t" horiz-adv-x="350" 
d="M240 -5c-95 0 -155 35 -155 145v253h-75v102h20c55 0 73 25 73 80v55h122v-130h100v-107h-100v-238c0 -45 23 -55 63 -55h42v-100c-32 -3 -68 -5 -90 -5z" />
    <glyph glyph-name="tbar" unicode="&#x167;" horiz-adv-x="340" 
d="M288 100h42v-100c-32 -3 -68 -5 -90 -5c-95 0 -155 35 -155 145v83h-75v97h75v73h-75v102h20c55 0 73 25 73 80v55h122v-130h100v-107h-100v-73h90v-97h-90v-68c0 -45 23 -55 63 -55z" />
    <glyph glyph-name="tcaron" unicode="&#x165;" horiz-adv-x="340" 
d="M376 560h-127l64 120h163zM240 -5c-95 0 -155 35 -155 145v253h-75v102h20c55 0 73 25 73 80v55h122v-130h100v-107h-100v-238c0 -45 23 -55 63 -55h42v-100c-32 -3 -68 -5 -90 -5z" />
    <glyph glyph-name="uni0163" unicode="&#x163;" horiz-adv-x="350" 
d="M240 -5c-95 0 -155 35 -155 145v253h-75v102h20c55 0 73 25 73 80v55h122v-130h100v-107h-100v-238c0 -45 23 -55 63 -55h42v-100c-32 -3 -68 -5 -90 -5zM210 -213c-42 0 -77 33 -77 78s35 77 77 77c43 0 78 -32 78 -77s-35 -78 -78 -78z" />
    <glyph glyph-name="uni021B" unicode="&#x21b;" horiz-adv-x="350" 
d="M240 -5c-95 0 -155 35 -155 145v253h-75v102h20c55 0 73 25 73 80v55h122v-130h100v-107h-100v-238c0 -45 23 -55 63 -55h42v-100c-32 -3 -68 -5 -90 -5zM215 -200h-115l45 120h153z" />
    <glyph glyph-name="u" unicode="u" horiz-adv-x="570" 
d="M240 -10c-120 0 -187 70 -187 200v310h140v-292c0 -70 35 -103 87 -103c65 0 93 53 93 123v272h140v-500h-135v60c-20 -30 -63 -70 -138 -70z" />
    <glyph glyph-name="uacute" unicode="&#xfa;" horiz-adv-x="570" 
d="M333 580h-128l65 120h163zM240 -10c-120 0 -187 70 -187 200v310h140v-292c0 -70 35 -103 87 -103c65 0 93 53 93 123v272h140v-500h-135v60c-20 -30 -63 -70 -138 -70z" />
    <glyph glyph-name="uni01D4" unicode="&#x1d4;" horiz-adv-x="570" 
d="M355 580h-140l-95 120h125l40 -50l40 50h125zM240 -10c-120 0 -187 70 -187 200v310h140v-292c0 -70 35 -103 87 -103c65 0 93 53 93 123v272h140v-500h-135v60c-20 -30 -63 -70 -138 -70z" />
    <glyph glyph-name="ucircumflex" unicode="&#xfb;" horiz-adv-x="570" 
d="M245 580h-125l95 120h140l95 -120h-125l-40 50zM240 -10c-120 0 -187 70 -187 200v310h140v-292c0 -70 35 -103 87 -103c65 0 93 53 93 123v272h140v-500h-135v60c-20 -30 -63 -70 -138 -70z" />
    <glyph glyph-name="udieresis" unicode="&#xfc;" horiz-adv-x="570" 
d="M180 548c-42 0 -77 32 -77 77s35 78 77 78c43 0 78 -33 78 -78s-35 -77 -78 -77zM390 548c-43 0 -77 32 -77 77s34 78 77 78s78 -33 78 -78s-35 -77 -78 -77zM240 -10c-120 0 -187 70 -187 200v310h140v-292c0 -70 35 -103 87 -103c65 0 93 53 93 123v272h140v-500h-135
v60c-20 -30 -63 -70 -138 -70z" />
    <glyph glyph-name="ugrave" unicode="&#xf9;" horiz-adv-x="570" 
d="M365 580h-127l-100 120h162zM240 -10c-120 0 -187 70 -187 200v310h140v-292c0 -70 35 -103 87 -103c65 0 93 53 93 123v272h140v-500h-135v60c-20 -30 -63 -70 -138 -70z" />
    <glyph glyph-name="uhungarumlaut" unicode="&#x171;" horiz-adv-x="570" 
d="M250 580h-127l65 120h162zM450 580h-127l75 120h152zM240 -10c-120 0 -187 70 -187 200v310h140v-292c0 -70 35 -103 87 -103c65 0 93 53 93 123v272h140v-500h-135v60c-20 -30 -63 -70 -138 -70z" />
    <glyph glyph-name="umacron" unicode="&#x16b;" horiz-adv-x="570" 
d="M435 575h-300v100h300v-100zM240 -10c-120 0 -187 70 -187 200v310h140v-292c0 -70 35 -103 87 -103c65 0 93 53 93 123v272h140v-500h-135v60c-20 -30 -63 -70 -138 -70z" />
    <glyph glyph-name="uogonek" unicode="&#x173;" horiz-adv-x="570" 
d="M513 500v-500c-35 -15 -64 -34 -64 -54c0 -15 14 -21 34 -21h30v-105h-60c-80 0 -125 40 -125 95c0 36 17 62 50 85v60c-20 -30 -63 -70 -138 -70c-120 0 -187 70 -187 200v310h140v-292c0 -70 35 -103 87 -103c65 0 93 53 93 123v272h140z" />
    <glyph glyph-name="uring" unicode="&#x16f;" horiz-adv-x="570" 
d="M285 555c-56 0 -97 41 -97 98s41 97 97 97s98 -40 98 -97s-42 -98 -98 -98zM285 618c20 0 35 15 35 35s-15 35 -35 35s-35 -15 -35 -35s15 -35 35 -35zM240 -10c-120 0 -187 70 -187 200v310h140v-292c0 -70 35 -103 87 -103c65 0 93 53 93 123v272h140v-500h-135v60
c-20 -30 -63 -70 -138 -70z" />
    <glyph glyph-name="utilde" unicode="&#x169;" horiz-adv-x="570" 
d="M210 575h-97c0 70 40 125 110 125c60 0 77 -35 107 -35c20 0 30 18 30 35h98c0 -70 -40 -125 -110 -125c-60 0 -78 35 -108 35c-20 0 -30 -17 -30 -35zM240 -10c-120 0 -187 70 -187 200v310h140v-292c0 -70 35 -103 87 -103c65 0 93 53 93 123v272h140v-500h-135v60
c-20 -30 -63 -70 -138 -70z" />
    <glyph glyph-name="v" unicode="v" horiz-adv-x="510" 
d="M325 0h-140l-180 500h143l107 -345l108 345h142z" />
    <glyph glyph-name="w" unicode="w" horiz-adv-x="780" 
d="M293 0h-138l-150 500h138l81 -340l96 340h140l96 -340l82 340h137l-150 -500h-137l-98 340z" />
    <glyph glyph-name="wacute" unicode="&#x1e83;" horiz-adv-x="780" 
d="M438 580h-128l65 120h163zM293 0h-138l-150 500h138l81 -340l96 340h140l96 -340l82 340h137l-150 -500h-137l-98 340z" />
    <glyph glyph-name="wcircumflex" unicode="&#x175;" horiz-adv-x="780" 
d="M350 580h-125l95 120h140l95 -120h-125l-40 50zM293 0h-138l-150 500h138l81 -340l96 340h140l96 -340l82 340h137l-150 -500h-137l-98 340z" />
    <glyph glyph-name="wdieresis" unicode="&#x1e85;" horiz-adv-x="780" 
d="M285 548c-42 0 -77 32 -77 77s35 78 77 78c43 0 78 -33 78 -78s-35 -77 -78 -77zM495 548c-43 0 -77 32 -77 77s34 78 77 78s78 -33 78 -78s-35 -77 -78 -77zM293 0h-138l-150 500h138l81 -340l96 340h140l96 -340l82 340h137l-150 -500h-137l-98 340z" />
    <glyph glyph-name="wgrave" unicode="&#x1e81;" horiz-adv-x="780" 
d="M470 580h-127l-100 120h162zM293 0h-138l-150 500h138l81 -340l96 340h140l96 -340l82 340h137l-150 -500h-137l-98 340z" />
    <glyph glyph-name="x" unicode="x" horiz-adv-x="510" 
d="M148 0h-151l183 260l-167 240h150l92 -142l93 142h150l-168 -240l183 -260h-150l-108 163z" />
    <glyph glyph-name="y" unicode="y" horiz-adv-x="530" 
d="M260 -180h-137l70 190l-188 490h143l117 -330l118 330h142z" />
    <glyph glyph-name="yacute" unicode="&#xfd;" horiz-adv-x="530" 
d="M306 580h-128l65 120h163zM260 -180h-137l70 190l-188 490h143l117 -330l118 330h142z" />
    <glyph glyph-name="ycircumflex" unicode="&#x177;" horiz-adv-x="530" 
d="M218 580h-125l95 120h140l95 -120h-125l-40 50zM260 -180h-137l70 190l-188 490h143l117 -330l118 330h142z" />
    <glyph glyph-name="ydieresis" unicode="&#xff;" horiz-adv-x="530" 
d="M153 548c-42 0 -77 32 -77 77s35 78 77 78c43 0 78 -33 78 -78s-35 -77 -78 -77zM363 548c-43 0 -77 32 -77 77s34 78 77 78s78 -33 78 -78s-35 -77 -78 -77zM260 -180h-137l70 190l-188 490h143l117 -330l118 330h142z" />
    <glyph glyph-name="ygrave" unicode="&#x1ef3;" horiz-adv-x="530" 
d="M338 580h-127l-100 120h162zM260 -180h-137l70 190l-188 490h143l117 -330l118 330h142z" />
    <glyph glyph-name="uni1EF9" unicode="&#x1ef9;" horiz-adv-x="530" 
d="M183 575h-97c0 70 40 125 110 125c60 0 77 -35 107 -35c20 0 30 18 30 35h98c0 -70 -40 -125 -110 -125c-60 0 -78 35 -108 35c-20 0 -30 -17 -30 -35zM260 -180h-137l70 190l-188 490h143l117 -330l118 330h142z" />
    <glyph glyph-name="z" unicode="z" horiz-adv-x="475" 
d="M440 0h-410v110l240 275h-220v115h390v-110l-240 -275h240v-115z" />
    <glyph glyph-name="zacute" unicode="&#x17a;" horiz-adv-x="475" 
d="M293 580h-128l65 120h163zM440 0h-410v110l240 275h-220v115h390v-110l-240 -275h240v-115z" />
    <glyph glyph-name="zcaron" unicode="&#x17e;" horiz-adv-x="475" 
d="M315 580h-140l-95 120h125l40 -50l40 50h125zM440 0h-410v110l240 275h-220v115h390v-110l-240 -275h240v-115z" />
    <glyph glyph-name="zdotaccent" unicode="&#x17c;" horiz-adv-x="475" 
d="M245 548c-42 0 -77 32 -77 77s35 78 77 78c43 0 78 -33 78 -78s-35 -77 -78 -77zM440 0h-410v110l240 275h-220v115h390v-110l-240 -275h240v-115z" />
    <glyph glyph-name="s.ordn" horiz-adv-x="390" 
d="M195 310c-87 0 -162 40 -165 125h115c3 -25 15 -42 53 -42c32 0 47 15 47 32c0 15 -10 25 -37 30l-70 15c-45 10 -100 32 -100 102c0 75 70 118 157 118c83 0 155 -45 158 -120h-115c-3 25 -18 40 -45 40c-28 0 -40 -12 -40 -30c0 -17 10 -24 35 -30l65 -15
c65 -15 107 -42 107 -102c0 -78 -67 -123 -165 -123z" />
    <glyph glyph-name="adieresis.ss01" horiz-adv-x="545" 
d="M245 560h-140v120h140v-120zM445 560h-140v120h140v-120zM213 -10c-98 0 -183 55 -183 153c0 92 75 132 168 147l92 15c30 5 58 10 58 45c0 38 -28 58 -73 58c-55 0 -90 -25 -92 -78h-138c0 113 100 180 230 180c160 0 215 -75 215 -195v-315h-130v50
c-35 -42 -90 -60 -147 -60zM255 95c48 0 95 28 95 73v67l-75 -17c-50 -12 -95 -25 -95 -68c0 -40 38 -55 75 -55z" />
    <glyph glyph-name="ccedilla.ss01" horiz-adv-x="535" 
d="M280 -10c-155 0 -250 110 -250 260s105 260 250 260s220 -107 230 -205h-137c-8 35 -30 90 -93 90c-60 0 -105 -55 -105 -145c0 -92 45 -145 105 -145c63 0 85 55 93 90h137c-10 -97 -85 -205 -230 -205zM293 -200h-163l100 120h125z" />
    <glyph glyph-name="cdotaccent.ss01" horiz-adv-x="535" 
d="M350 560h-140v120h140v-120zM280 -10c-155 0 -250 110 -250 260s105 260 250 260s220 -107 230 -205h-137c-8 35 -30 90 -93 90c-60 0 -105 -55 -105 -145c0 -92 45 -145 105 -145c63 0 85 55 93 90h137c-10 -97 -85 -205 -230 -205z" />
    <glyph glyph-name="uni0229.ss01" horiz-adv-x="555" 
d="M290 -10c-157 0 -260 100 -260 260c0 150 103 260 250 260c158 0 245 -110 245 -280v-25h-357c12 -72 62 -105 122 -105c55 0 90 30 110 70l118 -45c-43 -85 -113 -135 -228 -135zM168 295h218c0 68 -48 105 -106 105c-57 0 -102 -37 -112 -105zM303 -200h-163l100 120
h125z" />
    <glyph glyph-name="edieresis.ss01" horiz-adv-x="555" 
d="M250 560h-140v120h140v-120zM450 560h-140v120h140v-120zM290 -10c-157 0 -260 100 -260 260c0 150 103 260 250 260c158 0 245 -110 245 -280v-25h-357c12 -72 62 -105 122 -105c55 0 90 30 110 70l118 -45c-43 -85 -113 -135 -228 -135zM168 295h218
c0 68 -48 105 -106 105c-57 0 -102 -37 -112 -105z" />
    <glyph glyph-name="edotaccent.ss01" horiz-adv-x="555" 
d="M350 560h-140v120h140v-120zM290 -10c-157 0 -260 100 -260 260c0 150 103 260 250 260c158 0 245 -110 245 -280v-25h-357c12 -72 62 -105 122 -105c55 0 90 30 110 70l118 -45c-43 -85 -113 -135 -228 -135zM168 295h218c0 68 -48 105 -106 105
c-57 0 -102 -37 -112 -105z" />
    <glyph glyph-name="gdotaccent.ss01" horiz-adv-x="595" 
d="M360 560h-140v120h140v-120zM295 -190c-142 0 -232 67 -235 180h140c3 -43 35 -73 100 -73s100 36 100 111v57c-13 -30 -59 -70 -137 -70c-130 0 -223 98 -223 245c0 138 93 250 223 250c75 0 125 -40 142 -70v60h135v-470c0 -145 -82 -220 -245 -220zM290 125
c76 0 110 59 110 135c0 68 -30 135 -110 135c-70 0 -110 -67 -110 -135c0 -87 40 -135 110 -135z" />
    <glyph glyph-name="i.ss01" horiz-adv-x="250" 
d="M195 560h-140v120h140v-120zM195 0h-140v500h140v-500z" />
    <glyph glyph-name="idieresis.ss01" horiz-adv-x="250" 
d="M95 560h-140v120h140v-120zM295 560h-140v120h140v-120zM195 0h-140v500h140v-500z" />
    <glyph glyph-name="ij.ss01" horiz-adv-x="500" 
d="M195 560h-140v120h140v-120zM445 560h-140v120h140v-120zM195 0h-140v500h140v-500zM305 -185c-24 0 -56 2 -80 5v100h33c31 0 47 12 47 57v523h140v-539c0 -108 -53 -146 -140 -146z" />
    <glyph glyph-name="iogonek.ss01" horiz-adv-x="250" 
d="M55 560v120h140v-120h-140zM55 0v500h140v-500c-35 -15 -64 -34 -64 -54c0 -15 14 -21 34 -21h30v-105h-60c-80 0 -125 40 -125 95c0 36 15 62 45 85z" />
    <glyph glyph-name="j.ss01" horiz-adv-x="250" 
d="M195 560h-140v120h140v-120zM55 -185c-24 0 -57 2 -80 5v100h33c31 0 47 12 47 57v523h140v-539c0 -108 -53 -146 -140 -146z" />
    <glyph glyph-name="odieresis.ss01" horiz-adv-x="580" 
d="M260 560h-140v120h140v-120zM460 560h-140v120h140v-120zM290 -10c-147 0 -260 100 -260 260c0 150 113 260 260 260c148 0 260 -110 260 -260c0 -160 -112 -260 -260 -260zM290 105c77 0 120 55 120 145c0 80 -43 145 -120 145c-76 0 -120 -65 -120 -145
c0 -90 44 -145 120 -145z" />
    <glyph glyph-name="scedilla.ss01" horiz-adv-x="510" 
d="M255 -10c-120 0 -222 60 -225 175h140c3 -42 40 -72 95 -72c45 0 75 20 75 55c0 32 -31 42 -60 47l-85 15c-57 10 -155 35 -155 135c0 105 95 165 215 165c110 0 213 -57 215 -167h-140c-2 42 -40 65 -82 65c-35 0 -68 -18 -68 -50c0 -30 26 -39 60 -45l85 -15
c57 -10 155 -36 155 -139c0 -107 -95 -169 -225 -169zM268 -200h-163l100 120h125z" />
    <glyph glyph-name="adieresis.ss02.ss01" horiz-adv-x="600" 
d="M255 560h-140v120h140v-120zM455 560h-140v120h140v-120zM258 -10c-135 0 -228 100 -228 260c0 150 93 260 228 260c78 0 132 -40 150 -70v60h135v-500h-135v60c-18 -30 -72 -70 -150 -70zM285 105c83 0 118 75 118 145s-35 145 -118 145c-75 0 -117 -65 -117 -145
c0 -95 42 -145 117 -145z" />
    <glyph glyph-name="uni0163.ss01" horiz-adv-x="350" 
d="M240 -5c-95 0 -155 35 -155 145v253h-75v102h20c55 0 73 25 73 80v55h122v-130h100v-107h-100v-238c0 -45 23 -55 63 -55h42v-100c-32 -3 -68 -5 -90 -5zM223 -200h-163l100 120h125z" />
    <glyph glyph-name="udieresis.ss01" horiz-adv-x="570" 
d="M255 560h-140v120h140v-120zM455 560h-140v120h140v-120zM240 -10c-120 0 -187 70 -187 200v310h140v-292c0 -70 35 -103 87 -103c65 0 93 53 93 123v272h140v-500h-135v60c-20 -30 -63 -70 -138 -70z" />
    <glyph glyph-name="wdieresis.ss01" horiz-adv-x="780" 
d="M360 560h-140v120h140v-120zM560 560h-140v120h140v-120zM293 0h-138l-150 500h138l81 -340l96 340h140l96 -340l82 340h137l-150 -500h-137l-98 340z" />
    <glyph glyph-name="ydieresis.ss01" horiz-adv-x="530" 
d="M228 560h-140v120h140v-120zM428 560h-140v120h140v-120zM260 -180h-137l70 190l-188 490h143l117 -330l118 330h142z" />
    <glyph glyph-name="zdotaccent.ss01" horiz-adv-x="475" 
d="M315 560h-140v120h140v-120zM440 0h-410v110l240 275h-220v115h390v-110l-240 -275h240v-115z" />
    <glyph glyph-name="a.ss02" horiz-adv-x="600" 
d="M258 -10c-135 0 -228 100 -228 260c0 150 93 260 228 260c78 0 132 -40 150 -70v60h135v-500h-135v60c-18 -30 -72 -70 -150 -70zM285 105c83 0 118 75 118 145s-35 145 -118 145c-75 0 -117 -65 -117 -145c0 -95 42 -145 117 -145z" />
    <glyph glyph-name="aacute.ss02" horiz-adv-x="600" 
d="M333 580h-128l65 120h163zM258 -10c-135 0 -228 100 -228 260c0 150 93 260 228 260c78 0 132 -40 150 -70v60h135v-500h-135v60c-18 -30 -72 -70 -150 -70zM285 105c83 0 118 75 118 145s-35 145 -118 145c-75 0 -117 -65 -117 -145c0 -95 42 -145 117 -145z" />
    <glyph glyph-name="abreve.ss02" horiz-adv-x="600" 
d="M285 565c-75 0 -142 44 -145 135h98c2 -35 22 -47 47 -47s45 12 48 47h97c-2 -91 -70 -135 -145 -135zM258 -10c-135 0 -228 100 -228 260c0 150 93 260 228 260c78 0 132 -40 150 -70v60h135v-500h-135v60c-18 -30 -72 -70 -150 -70zM285 105c83 0 118 75 118 145
s-35 145 -118 145c-75 0 -117 -65 -117 -145c0 -95 42 -145 117 -145z" />
    <glyph glyph-name="uni01CE.ss02" horiz-adv-x="600" 
d="M355 580h-140l-95 120h125l40 -50l40 50h125zM258 -10c-135 0 -228 100 -228 260c0 150 93 260 228 260c78 0 132 -40 150 -70v60h135v-500h-135v60c-18 -30 -72 -70 -150 -70zM285 105c83 0 118 75 118 145s-35 145 -118 145c-75 0 -117 -65 -117 -145
c0 -95 42 -145 117 -145z" />
    <glyph glyph-name="acircumflex.ss02" horiz-adv-x="600" 
d="M245 580h-125l95 120h140l95 -120h-125l-40 50zM258 -10c-135 0 -228 100 -228 260c0 150 93 260 228 260c78 0 132 -40 150 -70v60h135v-500h-135v60c-18 -30 -72 -70 -150 -70zM285 105c83 0 118 75 118 145s-35 145 -118 145c-75 0 -117 -65 -117 -145
c0 -95 42 -145 117 -145z" />
    <glyph glyph-name="adieresis.ss02" horiz-adv-x="600" 
d="M180 548c-42 0 -77 32 -77 77s35 78 77 78c43 0 78 -33 78 -78s-35 -77 -78 -77zM390 548c-43 0 -77 32 -77 77s34 78 77 78s78 -33 78 -78s-35 -77 -78 -77zM258 -10c-135 0 -228 100 -228 260c0 150 93 260 228 260c78 0 132 -40 150 -70v60h135v-500h-135v60
c-18 -30 -72 -70 -150 -70zM285 105c83 0 118 75 118 145s-35 145 -118 145c-75 0 -117 -65 -117 -145c0 -95 42 -145 117 -145z" />
    <glyph glyph-name="agrave.ss02" horiz-adv-x="600" 
d="M365 580h-127l-100 120h162zM258 -10c-135 0 -228 100 -228 260c0 150 93 260 228 260c78 0 132 -40 150 -70v60h135v-500h-135v60c-18 -30 -72 -70 -150 -70zM285 105c83 0 118 75 118 145s-35 145 -118 145c-75 0 -117 -65 -117 -145c0 -95 42 -145 117 -145z" />
    <glyph glyph-name="amacron.ss02" horiz-adv-x="600" 
d="M435 575h-300v100h300v-100zM258 -10c-135 0 -228 100 -228 260c0 150 93 260 228 260c78 0 132 -40 150 -70v60h135v-500h-135v60c-18 -30 -72 -70 -150 -70zM285 105c83 0 118 75 118 145s-35 145 -118 145c-75 0 -117 -65 -117 -145c0 -95 42 -145 117 -145z" />
    <glyph glyph-name="aogonek.ss02" horiz-adv-x="600" 
d="M543 500v-500c-35 -15 -64 -34 -64 -54c0 -15 14 -21 34 -21h30v-105h-60c-80 0 -125 40 -125 95c0 36 17 62 50 85v60c-18 -30 -72 -70 -150 -70c-135 0 -228 100 -228 260c0 150 93 260 228 260c78 0 132 -40 150 -70v60h135zM285 105c83 0 118 75 118 145
s-35 145 -118 145c-75 0 -117 -65 -117 -145c0 -95 42 -145 117 -145z" />
    <glyph glyph-name="aring.ss02" horiz-adv-x="600" 
d="M285 555c-56 0 -97 41 -97 98s41 97 97 97s98 -40 98 -97s-42 -98 -98 -98zM285 618c20 0 35 15 35 35s-15 35 -35 35s-35 -15 -35 -35s15 -35 35 -35zM258 -10c-135 0 -228 100 -228 260c0 150 93 260 228 260c78 0 132 -40 150 -70v60h135v-500h-135v60
c-18 -30 -72 -70 -150 -70zM285 105c83 0 118 75 118 145s-35 145 -118 145c-75 0 -117 -65 -117 -145c0 -95 42 -145 117 -145z" />
    <glyph glyph-name="atilde.ss02" horiz-adv-x="600" 
d="M210 575h-97c0 70 40 125 110 125c60 0 77 -35 107 -35c20 0 30 18 30 35h98c0 -70 -40 -125 -110 -125c-60 0 -78 35 -108 35c-20 0 -30 -17 -30 -35zM258 -10c-135 0 -228 100 -228 260c0 150 93 260 228 260c78 0 132 -40 150 -70v60h135v-500h-135v60
c-18 -30 -72 -70 -150 -70zM285 105c83 0 118 75 118 145s-35 145 -118 145c-75 0 -117 -65 -117 -145c0 -95 42 -145 117 -145z" />
    <glyph glyph-name="t.ss03" horiz-adv-x="325" 
d="M220 0h-140v393h-70v107h70v130h140v-130h95v-107h-95v-393z" />
    <glyph glyph-name="tbar.ss03" horiz-adv-x="325" 
d="M315 500v-107h-95v-73h85v-97h-85v-223h-140v223h-70v97h70v73h-70v107h70v130h140v-130h95z" />
    <glyph glyph-name="tcaron.ss03" horiz-adv-x="325" 
d="M371 560h-127l64 120h163zM220 0h-140v393h-70v107h70v130h140v-130h95v-107h-95v-393z" />
    <glyph glyph-name="uni0163.ss03" horiz-adv-x="325" 
d="M220 0h-140v393h-70v107h70v130h140v-130h95v-107h-95v-393zM150 -213c-42 0 -77 33 -77 78s35 77 77 77c43 0 78 -32 78 -77s-35 -78 -78 -78z" />
    <glyph glyph-name="uni021B.ss03" horiz-adv-x="325" 
d="M220 0h-140v393h-70v107h70v130h140v-130h95v-107h-95v-393zM155 -200h-115l45 120h153z" />
    <glyph glyph-name="f_f_i.ss01" horiz-adv-x="880" 
d="M225 0h-140v393h-75v107h75v40c0 110 60 150 155 150c34 0 63 -4 75 -7v-95h-25c-40 0 -65 -12 -65 -55v-33h165v40c0 110 60 150 155 150c34 0 63 -4 75 -7v-95h-25c-40 0 -65 -12 -65 -55v-33h295v-500h-140v393h-155v-393h-140v393h-165v-393zM825 560h-140v120h140
v-120z" />
    <glyph glyph-name="fi.ss01" horiz-adv-x="575" 
d="M225 0h-140v393h-75v107h75v40c0 110 60 150 155 150c34 0 63 -4 75 -7v-95h-25c-40 0 -65 -12 -65 -55v-33h295v-500h-140v393h-155v-393zM520 560h-140v120h140v-120z" />
    <glyph glyph-name="ordfeminine" unicode="&#xaa;" horiz-adv-x="420" 
d="M155 310c-70 0 -125 40 -125 108c0 80 65 105 150 117l35 5c30 5 38 14 38 33c0 21 -18 37 -48 37s-53 -15 -56 -45h-109c3 75 65 125 170 125c95 0 155 -47 155 -142v-228h-102v40c-15 -25 -48 -50 -108 -50zM188 395c52 0 65 33 65 63v25l-38 -8
c-45 -8 -70 -20 -70 -45c0 -22 18 -35 43 -35z" />
    <glyph glyph-name="ordmasculine" unicode="&#xba;" horiz-adv-x="440" 
d="M220 310c-107 0 -190 75 -190 190c0 110 83 190 190 190c108 0 190 -80 190 -190c0 -115 -82 -190 -190 -190zM220 410c45 0 75 35 75 90c0 50 -30 90 -75 90s-75 -40 -75 -90c0 -55 30 -90 75 -90z" />
    <glyph glyph-name="uni0394" unicode="&#x394;" horiz-adv-x="670" 
d="M668 0h-665l260 660h145zM335 515l-145 -385h290z" />
    <glyph glyph-name="uni03A9" unicode="&#x3a9;" horiz-adv-x="780" 
d="M330 0h-295v130h95c-42 33 -95 95 -95 200c0 190 163 340 355 340s355 -150 355 -340c0 -105 -52 -167 -95 -200h95v-130h-295v115c100 40 155 119 155 215c0 120 -90 213 -215 213s-215 -93 -215 -213c0 -96 55 -175 155 -215v-115z" />
    <glyph glyph-name="alpha" unicode="&#x3b1;" horiz-adv-x="610" 
d="M253 -10c-135 0 -228 105 -228 260s93 260 228 260c78 0 130 -39 147 -69v59h133v-342c0 -50 17 -60 47 -60h10v-98c-13 -3 -36 -5 -57 -5c-75 0 -105 23 -130 75c-10 -22 -50 -80 -150 -80zM280 106c83 0 118 74 118 144s-35 145 -118 145c-75 0 -117 -55 -117 -145
c0 -85 42 -144 117 -144z" />
    <glyph glyph-name="uni03BC" unicode="&#x3bc;" horiz-adv-x="595" 
d="M200 -180h-140v680h140v-292c0 -70 35 -103 88 -103c65 0 90 53 90 123v272h140v-342c0 -50 17 -60 47 -60h10v-98c-13 -3 -36 -5 -57 -5c-75 0 -105 28 -125 75c-20 -49 -68 -80 -128 -80c-30 0 -50 7 -65 15v-185z" />
    <glyph glyph-name="pi" unicode="&#x3c0;" horiz-adv-x="630" 
d="M513 -5c-85 0 -143 35 -143 145v245h-140v-385h-140v385h-80v115h595v-115h-95v-222c0 -50 18 -60 60 -60h35v-103c-20 -2 -59 -5 -92 -5z" />
    <glyph glyph-name="uni1D49" unicode="&#x1d49;" horiz-adv-x="430" 
d="M225 310c-110 0 -195 75 -195 190c0 110 83 190 185 190c108 0 185 -80 185 -195v-32h-256c7 -38 36 -63 79 -63c37 0 57 15 72 40l95 -40c-27 -50 -80 -90 -165 -90zM144 535h143c-5 43 -34 63 -72 63c-36 0 -64 -20 -71 -63z" />
    <glyph glyph-name="zero" unicode="0" 
d="M310 -10c-170 0 -275 115 -275 340c0 210 110 340 275 340s275 -130 275 -340c0 -225 -105 -340 -275 -340zM310 118c95 0 135 77 135 212c0 125 -40 213 -135 213s-135 -88 -135 -213c0 -135 40 -212 135 -212z" />
    <glyph glyph-name="one" unicode="1" horiz-adv-x="425" 
d="M333 0h-140v418h-153v105c115 0 153 42 163 137h130v-660z" />
    <glyph glyph-name="two" unicode="2" horiz-adv-x="600" 
d="M555 0h-500v113l228 207c51 47 110 101 110 148c0 42 -33 75 -93 75c-70 0 -105 -45 -107 -110h-148c0 137 92 237 255 237c150 0 240 -85 240 -200c0 -98 -92 -180 -167 -245l-113 -97h295v-128z" />
    <glyph glyph-name="three" unicode="3" 
d="M310 -10c-185 0 -275 115 -275 230h148c2 -45 32 -102 127 -102c60 0 115 32 115 90c0 57 -50 85 -125 85h-65v102h65c60 0 105 25 105 75c0 48 -40 73 -95 73c-75 0 -102 -48 -105 -83h-140c0 105 90 210 245 210c135 0 235 -67 235 -182c0 -70 -42 -110 -95 -133
c65 -27 115 -85 115 -167c0 -120 -100 -198 -255 -198z" />
    <glyph glyph-name="four" unicode="4" 
d="M515 0h-140v135h-355v138l298 387h197v-405h85v-120h-85v-135zM375 538l-210 -283h210v283z" />
    <glyph glyph-name="five" unicode="5" 
d="M315 -10c-155 0 -245 90 -255 183l140 35c10 -58 58 -90 125 -90c60 0 113 40 113 100s-43 107 -115 107c-43 0 -83 -17 -113 -57h-130l25 392h425v-127h-302l-13 -148c35 40 93 55 138 55c132 0 227 -87 227 -222s-97 -228 -265 -228z" />
    <glyph glyph-name="six" unicode="6" 
d="M315 -10c-175 0 -280 135 -280 340c0 210 115 340 280 340c185 0 245 -132 255 -180l-147 -22c-10 35 -43 75 -108 75c-85 0 -141 -84 -141 -189c0 -7 0 -9 1 -16c20 45 75 97 173 97c130 0 227 -92 227 -217c0 -110 -80 -228 -260 -228zM315 118c75 0 118 50 118 100
c0 60 -43 102 -118 102s-120 -52 -120 -102c0 -60 45 -100 120 -100z" />
    <glyph glyph-name="seven" unicode="7" horiz-adv-x="580" 
d="M293 0h-165c0 210 74 373 274 533h-377v127h540v-122c-212 -183 -272 -338 -272 -538z" />
    <glyph glyph-name="eight" unicode="8" 
d="M310 -10c-152 0 -265 74 -265 198c0 82 50 135 115 162c-57 28 -95 70 -95 138c0 119 113 182 245 182s245 -63 245 -182c0 -68 -38 -110 -95 -138c65 -27 115 -80 115 -162c0 -124 -113 -198 -265 -198zM310 390c75 0 105 40 105 80c0 45 -40 78 -105 78
s-105 -33 -105 -78c0 -40 30 -80 105 -80zM310 113c70 0 125 31 125 90c0 62 -65 87 -125 87s-125 -25 -125 -87c0 -59 55 -90 125 -90z" />
    <glyph glyph-name="nine" unicode="9" 
d="M305 -10c-184 0 -245 133 -255 180l148 23c10 -35 42 -75 107 -75c86 0 141 83 141 188v17c-20 -45 -76 -98 -173 -98c-130 0 -228 93 -228 218c0 110 80 227 260 227c175 0 280 -135 280 -340c0 -210 -115 -340 -280 -340zM305 340c75 0 120 53 120 103
c0 60 -45 100 -120 100s-117 -50 -117 -100c0 -60 42 -103 117 -103z" />
    <glyph glyph-name="uni24FF" unicode="&#x24ff;" horiz-adv-x="920" 
d="M460 -90c230 0 420 180 420 420s-190 420 -420 420s-420 -180 -420 -420s190 -420 420 -420zM460 110c-110 0 -185 83 -185 225c0 132 75 225 185 225s185 -93 185 -225c0 -142 -75 -225 -185 -225zM460 214c42 0 69 30 69 121c0 84 -27 121 -69 121s-69 -37 -69 -121
c0 -91 27 -121 69 -121z" />
    <glyph glyph-name="uni2776" unicode="&#x2776;" horiz-adv-x="920" 
d="M460 -90c230 0 420 180 420 420s-190 420 -420 420s-420 -180 -420 -420s190 -420 420 -420zM535 119h-115v255h-105v86c75 0 105 30 115 90h105v-431z" />
    <glyph glyph-name="uni2777" unicode="&#x2777;" horiz-adv-x="920" 
d="M460 -90c230 0 420 180 420 420s-190 420 -420 420s-420 -180 -420 -420s190 -420 420 -420zM628 120h-330v89l150 136c47 43 55 58 55 78c0 22 -20 37 -45 37c-35 0 -53 -22 -55 -60h-115c0 88 62 160 170 160c100 0 160 -60 160 -135c0 -67 -39 -101 -101 -153l-57 -47
h168v-105z" />
    <glyph glyph-name="uni2778" unicode="&#x2778;" horiz-adv-x="920" 
d="M460 -90c230 0 420 180 420 420s-190 420 -420 420s-420 -180 -420 -420s190 -420 420 -420zM460 110c-125 0 -185 75 -185 145h118c2 -25 22 -45 67 -45c35 0 55 20 55 48c0 27 -21 40 -55 40h-50v82h45c34 0 53 15 53 40c0 28 -23 43 -48 43c-30 0 -52 -18 -55 -50
h-110c0 77 65 147 165 147c90 0 155 -53 155 -119c0 -40 -20 -76 -65 -96c45 -10 80 -48 80 -98c0 -75 -66 -137 -170 -137z" />
    <glyph glyph-name="uni2779" unicode="&#x2779;" horiz-adv-x="920" 
d="M460 -90c230 0 420 180 420 420s-190 420 -420 420s-420 -180 -420 -420s190 -420 420 -420zM583 120h-115v73h-215v110l192 247h138v-260h44v-97h-44v-73zM468 428l-105 -138h105v138z" />
    <glyph glyph-name="uni277A" unicode="&#x277a;" horiz-adv-x="920" 
d="M460 -90c230 0 420 180 420 420s-190 420 -420 420s-420 -180 -420 -420s190 -420 420 -420zM455 110c-105 0 -160 58 -170 118l105 30c8 -28 30 -45 65 -45s60 22 60 55c0 31 -25 52 -60 52c-30 0 -50 -17 -60 -35h-95l10 265h290v-102h-190l-5 -73c20 20 50 35 88 35
c72 0 135 -50 135 -142c0 -95 -73 -158 -173 -158z" />
    <glyph glyph-name="uni277B" unicode="&#x277b;" horiz-adv-x="920" 
d="M460 -90c230 0 420 180 420 420s-190 420 -420 420s-420 -180 -420 -420s190 -420 420 -420zM461 110c-117 0 -183 85 -183 225s82 225 192 225c115 0 153 -83 163 -113l-103 -34c-7 27 -25 47 -60 47c-54 0 -85 -49 -85 -118v-2c13 25 50 55 105 55
c80 0 143 -59 143 -139c0 -70 -56 -146 -172 -146zM460 210c35 0 60 23 60 48c0 32 -25 50 -60 50s-60 -21 -60 -50c0 -30 25 -48 60 -48z" />
    <glyph glyph-name="uni277C" unicode="&#x277c;" horiz-adv-x="920" 
d="M460 -90c-230 0 -420 180 -420 420s190 420 420 420s420 -180 420 -420s-190 -420 -420 -420zM345 120h130c0 130 28 223 163 338v92h-358v-102h225c-130 -97 -160 -188 -160 -328z" />
    <glyph glyph-name="uni277D" unicode="&#x277d;" horiz-adv-x="920" 
d="M460 -90c230 0 420 180 420 420s-190 420 -420 420s-420 -180 -420 -420s190 -420 420 -420zM460 110c-100 0 -175 50 -175 130c0 60 35 90 75 110c-45 20 -65 50 -65 90c0 70 77 120 165 120s165 -50 165 -120c0 -40 -20 -70 -65 -90c40 -20 75 -50 75 -110
c0 -80 -75 -130 -175 -130zM460 385c35 0 53 18 53 42c0 21 -19 38 -53 38s-52 -17 -52 -38c0 -24 17 -42 52 -42zM460 208c43 0 60 22 60 50c0 25 -22 45 -59 45c-38 0 -61 -20 -61 -45c0 -28 18 -50 60 -50z" />
    <glyph glyph-name="uni277E" unicode="&#x277e;" horiz-adv-x="920" 
d="M460 -90c230 0 420 180 420 420s-190 420 -420 420s-420 -180 -420 -420s190 -420 420 -420zM460 560c116 0 183 -85 183 -225s-83 -225 -193 -225c-115 0 -152 84 -162 114l102 34c8 -28 25 -48 60 -48c55 0 85 49 85 119v1c-12 -25 -50 -55 -105 -55
c-80 0 -142 59 -142 139c0 70 56 146 172 146zM460 460c-35 0 -60 -22 -60 -47c0 -33 25 -50 60 -50s60 20 60 50s-25 47 -60 47z" />
    <glyph glyph-name="uni24EA" unicode="&#x24ea;" horiz-adv-x="920" 
d="M460 -90c-230 0 -420 180 -420 420s190 420 420 420s420 -180 420 -420s-190 -420 -420 -420zM460 15c173 0 315 133 315 315c0 183 -142 315 -315 315c-172 0 -315 -132 -315 -315c0 -182 143 -315 315 -315zM460 110c-110 0 -185 83 -185 225c0 132 75 225 185 225
s185 -93 185 -225c0 -142 -75 -225 -185 -225zM460 214c42 0 69 30 69 121c0 84 -27 121 -69 121s-69 -37 -69 -121c0 -91 27 -121 69 -121z" />
    <glyph glyph-name="uni2460" unicode="&#x2460;" horiz-adv-x="920" 
d="M460 -90c-230 0 -420 180 -420 420s190 420 420 420s420 -180 420 -420s-190 -420 -420 -420zM460 15c173 0 315 133 315 315c0 183 -142 315 -315 315c-172 0 -315 -132 -315 -315c0 -182 143 -315 315 -315zM535 119h-115v255h-105v86c75 0 105 30 115 90h105v-431z
" />
    <glyph glyph-name="uni2461" unicode="&#x2461;" horiz-adv-x="920" 
d="M460 -90c-230 0 -420 180 -420 420s190 420 420 420s420 -180 420 -420s-190 -420 -420 -420zM460 15c173 0 315 133 315 315c0 183 -142 315 -315 315c-172 0 -315 -132 -315 -315c0 -182 143 -315 315 -315zM628 120h-330v89l150 136c47 43 55 58 55 78
c0 22 -20 37 -45 37c-35 0 -53 -22 -55 -60h-115c0 88 62 160 170 160c100 0 160 -60 160 -135c0 -67 -39 -101 -101 -153l-57 -47h168v-105z" />
    <glyph glyph-name="uni2462" unicode="&#x2462;" horiz-adv-x="920" 
d="M460 -90c-230 0 -420 180 -420 420s190 420 420 420s420 -180 420 -420s-190 -420 -420 -420zM460 15c173 0 315 133 315 315c0 183 -142 315 -315 315c-172 0 -315 -132 -315 -315c0 -182 143 -315 315 -315zM460 110c-125 0 -185 75 -185 145h118c2 -25 22 -45 67 -45
c35 0 55 20 55 48c0 27 -21 40 -55 40h-50v82h45c34 0 53 15 53 40c0 28 -23 43 -48 43c-30 0 -52 -18 -55 -50h-110c0 77 65 147 165 147c90 0 155 -53 155 -119c0 -40 -20 -76 -65 -96c45 -10 80 -48 80 -98c0 -75 -66 -137 -170 -137z" />
    <glyph glyph-name="uni2463" unicode="&#x2463;" horiz-adv-x="920" 
d="M460 -90c-230 0 -420 180 -420 420s190 420 420 420s420 -180 420 -420s-190 -420 -420 -420zM460 15c173 0 315 133 315 315c0 183 -142 315 -315 315c-172 0 -315 -132 -315 -315c0 -182 143 -315 315 -315zM583 120h-115v73h-215v110l192 247h138v-260h44v-97h-44v-73
zM468 428l-105 -138h105v138z" />
    <glyph glyph-name="uni2464" unicode="&#x2464;" horiz-adv-x="920" 
d="M460 -90c-230 0 -420 180 -420 420s190 420 420 420s420 -180 420 -420s-190 -420 -420 -420zM460 15c173 0 315 133 315 315c0 183 -142 315 -315 315c-172 0 -315 -132 -315 -315c0 -182 143 -315 315 -315zM455 110c-105 0 -160 58 -170 118l105 30
c8 -28 30 -45 65 -45s60 22 60 55c0 31 -25 52 -60 52c-30 0 -50 -17 -60 -35h-95l10 265h290v-102h-190l-5 -73c20 20 50 35 88 35c72 0 135 -50 135 -142c0 -95 -73 -158 -173 -158z" />
    <glyph glyph-name="uni2465" unicode="&#x2465;" horiz-adv-x="920" 
d="M460 -90c-230 0 -420 180 -420 420s190 420 420 420s420 -180 420 -420s-190 -420 -420 -420zM460 15c173 0 315 133 315 315c0 183 -142 315 -315 315c-172 0 -315 -132 -315 -315c0 -182 143 -315 315 -315zM461 110c-117 0 -183 85 -183 225s82 225 192 225
c115 0 153 -83 163 -113l-103 -34c-7 27 -25 47 -60 47c-54 0 -85 -49 -85 -118v-2c13 25 50 55 105 55c80 0 143 -59 143 -139c0 -70 -56 -146 -172 -146zM460 210c35 0 60 23 60 48c0 32 -25 50 -60 50s-60 -21 -60 -50c0 -30 25 -48 60 -48z" />
    <glyph glyph-name="uni2466" unicode="&#x2466;" horiz-adv-x="920" 
d="M460 -90c-230 0 -420 180 -420 420s190 420 420 420s420 -180 420 -420s-190 -420 -420 -420zM460 15c173 0 315 133 315 315c0 183 -142 315 -315 315c-172 0 -315 -132 -315 -315c0 -182 143 -315 315 -315zM475 120h-130c0 140 30 231 160 328h-225v102h358v-92
c-135 -115 -163 -208 -163 -338z" />
    <glyph glyph-name="uni2467" unicode="&#x2467;" horiz-adv-x="920" 
d="M460 -90c-230 0 -420 180 -420 420s190 420 420 420s420 -180 420 -420s-190 -420 -420 -420zM460 15c173 0 315 133 315 315c0 183 -142 315 -315 315c-172 0 -315 -132 -315 -315c0 -182 143 -315 315 -315zM460 110c-100 0 -175 50 -175 130c0 60 35 90 75 110
c-45 20 -65 50 -65 90c0 70 77 120 165 120s165 -50 165 -120c0 -40 -20 -70 -65 -90c40 -20 75 -50 75 -110c0 -80 -75 -130 -175 -130zM460 385c35 0 53 18 53 42c0 21 -19 38 -53 38s-52 -17 -52 -38c0 -24 17 -42 52 -42zM460 208c43 0 60 22 60 50c0 25 -22 45 -59 45
c-38 0 -61 -20 -61 -45c0 -28 18 -50 60 -50z" />
    <glyph glyph-name="uni2468" unicode="&#x2468;" horiz-adv-x="920" 
d="M460 -90c-230 0 -420 180 -420 420s190 420 420 420s420 -180 420 -420s-190 -420 -420 -420zM460 15c173 0 315 133 315 315c0 183 -142 315 -315 315c-172 0 -315 -132 -315 -315c0 -182 143 -315 315 -315zM460 560c116 0 183 -85 183 -225s-83 -225 -193 -225
c-115 0 -152 84 -162 114l102 34c8 -28 25 -48 60 -48c55 0 85 49 85 119v1c-12 -25 -50 -55 -105 -55c-80 0 -142 59 -142 139c0 70 56 146 172 146zM460 460c-35 0 -60 -22 -60 -47c0 -33 25 -50 60 -50s60 20 60 50s-25 47 -60 47z" />
    <glyph glyph-name="zero.tf" 
d="M310 -10c-170 0 -275 115 -275 340c0 210 110 340 275 340s275 -130 275 -340c0 -225 -105 -340 -275 -340zM310 118c95 0 135 77 135 212c0 125 -40 213 -135 213s-135 -88 -135 -213c0 -135 40 -212 135 -212z" />
    <glyph glyph-name="one.tf" 
d="M394 660v-532h171v-128h-474v128h163v290h-153v105c115 0 153 42 163 137h130z" />
    <glyph glyph-name="two.tf" 
d="M565 0h-500v113l228 207c51 47 110 101 110 148c0 42 -33 75 -93 75c-70 0 -105 -45 -107 -110h-148c0 137 92 237 255 237c150 0 240 -85 240 -200c0 -98 -92 -180 -167 -245l-113 -97h295v-128z" />
    <glyph glyph-name="three.tf" 
d="M310 -10c-185 0 -275 115 -275 230h148c2 -45 32 -102 127 -102c60 0 115 32 115 90c0 57 -50 85 -125 85h-65v102h65c60 0 105 25 105 75c0 48 -40 73 -95 73c-75 0 -102 -48 -105 -83h-140c0 105 90 210 245 210c135 0 235 -67 235 -182c0 -70 -42 -110 -95 -133
c65 -27 115 -85 115 -167c0 -120 -100 -198 -255 -198z" />
    <glyph glyph-name="four.tf" 
d="M515 0h-140v135h-355v138l298 387h197v-405h85v-120h-85v-135zM375 538l-210 -283h210v283z" />
    <glyph glyph-name="five.tf" 
d="M315 -10c-155 0 -245 90 -255 183l140 35c10 -58 58 -90 125 -90c60 0 113 40 113 100s-43 107 -115 107c-43 0 -83 -17 -113 -57h-130l25 392h425v-127h-302l-13 -148c35 40 93 55 138 55c132 0 227 -87 227 -222s-97 -228 -265 -228z" />
    <glyph glyph-name="six.tf" 
d="M315 -10c-175 0 -280 135 -280 340c0 210 115 340 280 340c185 0 245 -132 255 -180l-147 -22c-10 35 -43 75 -108 75c-85 0 -141 -84 -141 -189c0 -7 0 -9 1 -16c20 45 75 97 173 97c130 0 227 -92 227 -217c0 -110 -80 -228 -260 -228zM315 118c75 0 118 50 118 100
c0 60 -43 102 -118 102s-120 -52 -120 -102c0 -60 45 -100 120 -100z" />
    <glyph glyph-name="seven.tf" 
d="M313 0h-165c0 210 74 373 274 533h-377v127h540v-122c-212 -183 -272 -338 -272 -538z" />
    <glyph glyph-name="eight.tf" 
d="M310 -10c-152 0 -265 74 -265 198c0 82 50 135 115 162c-57 28 -95 70 -95 138c0 119 113 182 245 182s245 -63 245 -182c0 -68 -38 -110 -95 -138c65 -27 115 -80 115 -162c0 -124 -113 -198 -265 -198zM310 390c75 0 105 40 105 80c0 45 -40 78 -105 78
s-105 -33 -105 -78c0 -40 30 -80 105 -80zM310 113c70 0 125 31 125 90c0 62 -65 87 -125 87s-125 -25 -125 -87c0 -59 55 -90 125 -90z" />
    <glyph glyph-name="nine.tf" 
d="M305 -10c-184 0 -245 133 -255 180l148 23c10 -35 42 -75 107 -75c86 0 141 83 141 188v17c-20 -45 -76 -98 -173 -98c-130 0 -228 93 -228 218c0 110 80 227 260 227c175 0 280 -135 280 -340c0 -210 -115 -340 -280 -340zM305 340c75 0 120 53 120 103
c0 60 -45 100 -120 100s-117 -50 -117 -100c0 -60 42 -103 117 -103z" />
    <glyph glyph-name="uni2080" unicode="&#x2080;" horiz-adv-x="420" 
d="M210 -180c-110 0 -185 83 -185 225c0 132 75 225 185 225s185 -93 185 -225c0 -142 -75 -225 -185 -225zM210 -76c42 0 69 30 69 121c0 84 -27 121 -69 121s-69 -37 -69 -121c0 -91 27 -121 69 -121z" />
    <glyph glyph-name="uni2081" unicode="&#x2081;" horiz-adv-x="300" 
d="M245 -171h-115v255h-105v86c75 0 105 30 115 90h105v-431z" />
    <glyph glyph-name="uni2082" unicode="&#x2082;" horiz-adv-x="440" 
d="M385 -170h-330v89l150 136c48 43 55 58 55 78c0 22 -20 37 -45 37c-35 0 -52 -22 -55 -60h-115c0 88 63 160 170 160c100 0 160 -60 160 -135c0 -68 -40 -102 -97 -150l-60 -50h167v-105z" />
    <glyph glyph-name="uni2083" unicode="&#x2083;" horiz-adv-x="425" 
d="M215 -180c-125 0 -185 75 -185 145h118c2 -25 22 -45 67 -45c35 0 55 20 55 47c0 28 -21 41 -55 41h-50v82h45c34 0 53 15 53 40c0 28 -23 43 -48 43c-30 0 -52 -18 -55 -50h-110c0 77 65 147 165 147c90 0 155 -53 155 -119c0 -40 -20 -76 -65 -96c45 -10 80 -48 80 -98
c0 -75 -66 -137 -170 -137z" />
    <glyph glyph-name="uni2084" unicode="&#x2084;" horiz-adv-x="410" 
d="M348 -170h-115v72h-215v111l192 247h138v-260h44v-98h-44v-72zM233 138l-105 -138h105v138z" />
    <glyph glyph-name="uni2085" unicode="&#x2085;" horiz-adv-x="440" 
d="M230 -180c-105 0 -160 57 -170 117l105 30c8 -27 30 -45 65 -45s60 23 60 55s-25 53 -60 53c-30 0 -50 -17 -60 -35h-95l10 265h290v-102h-190l-5 -73c20 20 50 35 88 35c72 0 135 -50 135 -143c0 -95 -73 -157 -173 -157z" />
    <glyph glyph-name="uni2086" unicode="&#x2086;" horiz-adv-x="430" 
d="M221 -180c-117 0 -183 85 -183 225s82 225 192 225c115 0 153 -83 163 -113l-103 -34c-7 27 -25 47 -60 47c-55 0 -85 -49 -85 -118v-2c13 25 50 55 105 55c80 0 143 -59 143 -139c0 -70 -56 -146 -172 -146zM220 -80c35 0 60 22 60 47c0 33 -25 51 -60 51
s-60 -21 -60 -51s25 -47 60 -47z" />
    <glyph glyph-name="uni2087" unicode="&#x2087;" horiz-adv-x="410" 
d="M230 -170h-130c0 140 30 231 160 328h-225v102h358v-92c-135 -115 -163 -208 -163 -338z" />
    <glyph glyph-name="uni2088" unicode="&#x2088;" horiz-adv-x="420" 
d="M210 -180c-100 0 -175 50 -175 130c0 60 35 90 75 110c-45 20 -65 50 -65 90c0 70 77 120 165 120s165 -50 165 -120c0 -40 -20 -70 -65 -90c40 -20 75 -50 75 -110c0 -80 -75 -130 -175 -130zM210 95c35 0 53 18 53 42c0 21 -19 38 -53 38s-52 -17 -52 -38
c0 -24 17 -42 52 -42zM210 -83c43 0 60 23 60 50c0 25 -22 46 -59 46c-38 0 -61 -21 -61 -46c0 -27 18 -50 60 -50z" />
    <glyph glyph-name="uni2089" unicode="&#x2089;" horiz-adv-x="430" 
d="M200 -180c-115 0 -152 83 -162 113l102 34c8 -27 25 -47 60 -47c55 0 85 49 85 119v1c-12 -24 -50 -55 -105 -55c-80 0 -142 59 -142 139c0 70 56 146 172 146s183 -85 183 -225s-83 -225 -193 -225zM210 73c35 0 60 20 60 50s-25 47 -60 47s-60 -22 -60 -47
c0 -33 25 -50 60 -50z" />
    <glyph glyph-name="uni2070" unicode="&#x2070;" horiz-adv-x="420" 
d="M210 390c-110 0 -185 83 -185 225c0 132 75 225 185 225s185 -93 185 -225c0 -142 -75 -225 -185 -225zM210 494c42 0 69 30 69 121c0 84 -27 121 -69 121s-69 -37 -69 -121c0 -91 27 -121 69 -121z" />
    <glyph glyph-name="uni00B9" unicode="&#xb9;" horiz-adv-x="300" 
d="M245 399h-115v255h-105v86c75 0 105 30 115 90h105v-431z" />
    <glyph glyph-name="uni00B2" unicode="&#xb2;" horiz-adv-x="440" 
d="M385 400h-330v89l150 136c48 43 55 58 55 78c0 22 -20 37 -45 37c-35 0 -52 -22 -55 -60h-115c0 88 63 160 170 160c100 0 160 -60 160 -135c0 -68 -40 -102 -97 -150l-60 -50h167v-105z" />
    <glyph glyph-name="uni00B3" unicode="&#xb3;" horiz-adv-x="425" 
d="M215 390c-125 0 -185 75 -185 145h118c2 -25 22 -45 67 -45c35 0 55 20 55 48c0 27 -21 40 -55 40h-50v82h45c34 0 53 15 53 40c0 28 -23 43 -48 43c-30 0 -52 -18 -55 -50h-110c0 77 65 147 165 147c90 0 155 -53 155 -119c0 -40 -20 -76 -65 -96c45 -10 80 -48 80 -98
c0 -75 -66 -137 -170 -137z" />
    <glyph glyph-name="uni2074" unicode="&#x2074;" horiz-adv-x="410" 
d="M348 400h-115v73h-215v110l192 247h138v-260h44v-97h-44v-73zM233 708l-105 -138h105v138z" />
    <glyph glyph-name="uni2075" unicode="&#x2075;" horiz-adv-x="440" 
d="M230 390c-105 0 -160 58 -170 118l105 30c8 -28 30 -45 65 -45s60 22 60 55c0 31 -25 52 -60 52c-30 0 -50 -17 -60 -35h-95l10 265h290v-102h-190l-5 -73c20 20 50 35 88 35c72 0 135 -50 135 -142c0 -95 -73 -158 -173 -158z" />
    <glyph glyph-name="uni2076" unicode="&#x2076;" horiz-adv-x="430" 
d="M221 390c-117 0 -183 85 -183 225s82 225 192 225c115 0 153 -83 163 -113l-103 -34c-7 27 -25 47 -60 47c-55 0 -85 -49 -85 -118v-2c13 25 50 55 105 55c80 0 143 -59 143 -139c0 -70 -56 -146 -172 -146zM220 490c35 0 60 23 60 48c0 32 -25 50 -60 50
s-60 -21 -60 -50c0 -30 25 -48 60 -48z" />
    <glyph glyph-name="uni2077" unicode="&#x2077;" horiz-adv-x="410" 
d="M230 400h-130c0 140 30 231 160 328h-225v102h358v-92c-135 -115 -163 -208 -163 -338z" />
    <glyph glyph-name="uni2078" unicode="&#x2078;" horiz-adv-x="420" 
d="M210 390c-100 0 -175 50 -175 130c0 60 35 90 75 110c-45 20 -65 50 -65 90c0 70 77 120 165 120s165 -50 165 -120c0 -40 -20 -70 -65 -90c40 -20 75 -50 75 -110c0 -80 -75 -130 -175 -130zM210 665c35 0 53 18 53 42c0 21 -19 38 -53 38s-52 -17 -52 -38
c0 -24 17 -42 52 -42zM210 488c43 0 60 22 60 50c0 25 -22 45 -59 45c-38 0 -61 -20 -61 -45c0 -28 18 -50 60 -50z" />
    <glyph glyph-name="uni2079" unicode="&#x2079;" horiz-adv-x="430" 
d="M200 390c-115 0 -152 84 -162 114l102 34c8 -28 25 -48 60 -48c55 0 85 49 85 119v1c-12 -24 -50 -55 -105 -55c-80 0 -142 59 -142 139c0 70 56 146 172 146s183 -85 183 -225s-83 -225 -193 -225zM210 643c35 0 60 20 60 50s-25 47 -60 47s-60 -22 -60 -47
c0 -33 25 -50 60 -50z" />
    <glyph glyph-name="fraction" unicode="&#x2044;" horiz-adv-x="500" 
d="M128 -20h-115l360 700h115z" />
    <glyph glyph-name="onehalf" unicode="&#xbd;" horiz-adv-x="910" 
d="M288 -20h-115l360 700h115zM245 229h-115v255h-105v86c75 0 105 30 115 90h105v-431zM855 0h-330v89l150 136c48 43 55 58 55 78c0 22 -20 37 -45 37c-35 0 -52 -22 -55 -60h-115c0 88 63 160 170 160c100 0 160 -60 160 -135c0 -68 -40 -102 -97 -150l-60 -50h167v-105z
" />
    <glyph glyph-name="onequarter" unicode="&#xbc;" horiz-adv-x="820" 
d="M278 -20h-115l360 700h115zM245 229h-115v255h-105v86c75 0 105 30 115 90h105v-431zM758 0h-115v73h-215v110l192 247h138v-260h44v-97h-44v-73zM643 308l-105 -138h105v138z" />
    <glyph glyph-name="threequarters" unicode="&#xbe;" horiz-adv-x="900" 
d="M368 -20h-115l360 700h115zM215 220c-125 0 -185 75 -185 145h118c2 -25 22 -45 67 -45c35 0 55 20 55 48c0 27 -21 40 -55 40h-50v82h45c34 0 53 15 53 40c0 28 -23 43 -48 43c-30 0 -52 -18 -55 -50h-110c0 77 65 147 165 147c90 0 155 -53 155 -119
c0 -40 -20 -76 -65 -96c45 -10 80 -48 80 -98c0 -75 -66 -137 -170 -137zM838 0h-115v73h-215v110l192 247h138v-260h44v-97h-44v-73zM723 308l-105 -138h105v138z" />
    <glyph glyph-name="oneeighth" unicode="&#x215b;" horiz-adv-x="900" 
d="M288 -20h-115l360 700h115zM245 229h-115v255h-105v86c75 0 105 30 115 90h105v-431zM690 -10c-100 0 -175 50 -175 130c0 60 35 90 75 110c-45 20 -65 50 -65 90c0 70 77 120 165 120s165 -50 165 -120c0 -40 -20 -70 -65 -90c40 -20 75 -50 75 -110
c0 -80 -75 -130 -175 -130zM690 265c35 0 53 18 53 42c0 21 -19 38 -53 38s-52 -17 -52 -38c0 -24 17 -42 52 -42zM690 88c43 0 60 22 60 50c0 25 -22 45 -59 45c-38 0 -61 -20 -61 -45c0 -28 18 -50 60 -50z" />
    <glyph glyph-name="threeeighths" unicode="&#x215c;" horiz-adv-x="980" 
d="M368 -20h-115l360 700h115zM215 220c-125 0 -185 75 -185 145h118c2 -25 22 -45 67 -45c35 0 55 20 55 48c0 27 -21 40 -55 40h-50v82h45c34 0 53 15 53 40c0 28 -23 43 -48 43c-30 0 -52 -18 -55 -50h-110c0 77 65 147 165 147c90 0 155 -53 155 -119
c0 -40 -20 -76 -65 -96c45 -10 80 -48 80 -98c0 -75 -66 -137 -170 -137zM770 -10c-100 0 -175 50 -175 130c0 60 35 90 75 110c-45 20 -65 50 -65 90c0 70 77 120 165 120s165 -50 165 -120c0 -40 -20 -70 -65 -90c40 -20 75 -50 75 -110c0 -80 -75 -130 -175 -130z
M770 265c35 0 53 18 53 42c0 21 -19 38 -53 38s-52 -17 -52 -38c0 -24 17 -42 52 -42zM770 88c43 0 60 22 60 50c0 25 -22 45 -59 45c-38 0 -61 -20 -61 -45c0 -28 18 -50 60 -50z" />
    <glyph glyph-name="fiveeighths" unicode="&#x215d;" horiz-adv-x="990" 
d="M378 -20h-115l360 700h115zM230 220c-105 0 -160 58 -170 118l105 30c8 -28 30 -45 65 -45s60 22 60 55c0 31 -25 52 -60 52c-30 0 -50 -17 -60 -35h-95l10 265h290v-102h-190l-5 -73c20 20 50 35 88 35c72 0 135 -50 135 -142c0 -95 -73 -158 -173 -158zM780 -10
c-100 0 -175 50 -175 130c0 60 35 90 75 110c-45 20 -65 50 -65 90c0 70 77 120 165 120s165 -50 165 -120c0 -40 -20 -70 -65 -90c40 -20 75 -50 75 -110c0 -80 -75 -130 -175 -130zM780 265c35 0 53 18 53 42c0 21 -19 38 -53 38s-52 -17 -52 -38c0 -24 17 -42 52 -42z
M780 88c43 0 60 22 60 50c0 25 -22 45 -59 45c-38 0 -61 -20 -61 -45c0 -28 18 -50 60 -50z" />
    <glyph glyph-name="seveneighths" unicode="&#x215e;" horiz-adv-x="880" 
d="M268 -20h-115l360 700h115zM230 230h-130c0 140 30 231 160 328h-225v102h358v-92c-135 -115 -163 -208 -163 -338zM670 -10c-100 0 -175 50 -175 130c0 60 35 90 75 110c-45 20 -65 50 -65 90c0 70 77 120 165 120s165 -50 165 -120c0 -40 -20 -70 -65 -90
c40 -20 75 -50 75 -110c0 -80 -75 -130 -175 -130zM670 265c35 0 53 18 53 42c0 21 -19 38 -53 38s-52 -17 -52 -38c0 -24 17 -42 52 -42zM670 88c43 0 60 22 60 50c0 25 -22 45 -59 45c-38 0 -61 -20 -61 -45c0 -28 18 -50 60 -50z" />
    <glyph glyph-name="period" unicode="." horiz-adv-x="280" 
d="M140 -10c-50 0 -90 40 -90 90s40 90 90 90s90 -40 90 -90s-40 -90 -90 -90z" />
    <glyph glyph-name="comma" unicode="," horiz-adv-x="280" 
d="M150 -140h-115l45 280h155z" />
    <glyph glyph-name="colon" unicode=":" horiz-adv-x="280" 
d="M140 330c-50 0 -90 40 -90 90s40 90 90 90s90 -40 90 -90s-40 -90 -90 -90zM140 -10c-50 0 -90 40 -90 90s40 90 90 90s90 -40 90 -90s-40 -90 -90 -90z" />
    <glyph glyph-name="semicolon" unicode=";" horiz-adv-x="280" 
d="M140 330c-50 0 -90 40 -90 90s40 90 90 90s90 -40 90 -90s-40 -90 -90 -90zM150 -140h-115l45 280h155z" />
    <glyph glyph-name="ellipsis" unicode="&#x2026;" horiz-adv-x="800" 
d="M130 -10c-50 0 -90 40 -90 90s40 90 90 90s90 -40 90 -90s-40 -90 -90 -90zM400 -10c-50 0 -90 40 -90 90s40 90 90 90s90 -40 90 -90s-40 -90 -90 -90zM670 -10c-50 0 -90 40 -90 90s40 90 90 90s90 -40 90 -90s-40 -90 -90 -90z" />
    <glyph glyph-name="exclam" unicode="!" horiz-adv-x="280" 
d="M209 215h-140v445h140v-445zM140 -10c-50 0 -90 40 -90 90s40 90 90 90s90 -40 90 -90s-40 -90 -90 -90z" />
    <glyph glyph-name="exclamdown" unicode="&#xa1;" horiz-adv-x="280" 
d="M140 330c-50 0 -90 40 -90 90s40 90 90 90s90 -40 90 -90s-40 -90 -90 -90zM210 -180h-140v465h140v-465z" />
    <glyph glyph-name="question" unicode="?" horiz-adv-x="535" 
d="M323 215h-140v10c0 185 182 150 182 250c0 45 -43 73 -93 73s-102 -23 -102 -88h-140c0 145 120 210 240 210s235 -70 235 -195c0 -170 -182 -135 -182 -250v-10zM250 -10c-50 0 -90 40 -90 90s40 90 90 90s90 -40 90 -90s-40 -90 -90 -90z" />
    <glyph glyph-name="questiondown" unicode="&#xbf;" horiz-adv-x="515" 
d="M285 330c-50 0 -90 40 -90 90s40 90 90 90s90 -40 90 -90s-40 -90 -90 -90zM265 -190c-120 0 -235 70 -235 195c0 175 183 155 183 270v10h140v-10c0 -185 -183 -165 -183 -270c0 -45 43 -73 93 -73s102 23 102 93h140c0 -150 -120 -215 -240 -215z" />
    <glyph glyph-name="periodcentered" unicode="&#xb7;" horiz-adv-x="280" 
d="M140 175c-50 0 -90 40 -90 90s40 90 90 90s90 -40 90 -90s-40 -90 -90 -90z" />
    <glyph glyph-name="bullet" unicode="&#x2022;" horiz-adv-x="420" 
d="M210 120c-85 0 -150 65 -150 150s65 150 150 150s150 -65 150 -150s-65 -150 -150 -150z" />
    <glyph glyph-name="asterisk" unicode="*" horiz-adv-x="530" 
d="M265 383l-90 -118l-85 63l85 112l-127 43l35 105l129 -43v135h111v-134l125 42l35 -105l-128 -43l85 -112l-85 -63z" />
    <glyph glyph-name="uni2042" unicode="&#x2042;" horiz-adv-x="930" 
d="M465 434l-70 -88l-75 58l70 82l-102 38l29 87l102 -38v107h92v-107l102 38l29 -87l-102 -38l70 -82l-75 -58zM255 74l-70 -88l-75 58l70 82l-102 38l29 87l102 -38v107h92v-107l102 38l29 -87l-102 -38l70 -82l-75 -58zM675 74l-70 -88l-75 58l70 82l-102 38l29 87
l102 -38v107h92v-107l102 38l29 -87l-102 -38l70 -82l-75 -58z" />
    <glyph glyph-name="numbersign" unicode="#" horiz-adv-x="780" 
d="M290 0h-130v153h-105v115h145v125h-105v115h145v152h130v-152h120v152h130v-152h105v-115h-145v-125h105v-115h-145v-153h-130v153h-120v-153zM330 393v-125h120v125h-120z" />
    <glyph glyph-name="slash" unicode="/" horiz-adv-x="490" 
d="M135 -140h-140l340 880h140z" />
    <glyph glyph-name="backslash" unicode="\" horiz-adv-x="490" 
d="M155 740l340 -880h-140l-340 880h140z" />
    <glyph glyph-name="uni2051" unicode="&#x2051;" horiz-adv-x="510" 
d="M255 434l-70 -88l-75 58l70 82l-102 38l29 87l102 -38v107h92v-107l102 38l29 -87l-102 -38l70 -82l-75 -58zM255 74l-70 -88l-75 58l70 82l-102 38l29 87l102 -38v107h92v-107l102 38l29 -87l-102 -38l70 -82l-75 -58z" />
    <glyph glyph-name="colon.case" horiz-adv-x="280" 
d="M140 405c-50 0 -90 40 -90 90s40 90 90 90s90 -40 90 -90s-40 -90 -90 -90zM140 70c-50 0 -90 40 -90 90s40 90 90 90s90 -40 90 -90s-40 -90 -90 -90z" />
    <glyph glyph-name="periodcentered.case" horiz-adv-x="280" 
d="M140 245c-50 0 -90 40 -90 90s40 90 90 90s90 -40 90 -90s-40 -90 -90 -90z" />
    <glyph glyph-name="bullet.case" horiz-adv-x="420" 
d="M210 185c-85 0 -150 65 -150 150s65 150 150 150s150 -65 150 -150s-65 -150 -150 -150z" />
    <glyph glyph-name="period.ss01" horiz-adv-x="280" 
d="M60 0v150h160v-150h-160z" />
    <glyph glyph-name="colon.ss01" horiz-adv-x="280" 
d="M220 350h-160v150h160v-150zM220 0h-160v150h160v-150z" />
    <glyph glyph-name="semicolon.ss01" horiz-adv-x="280" 
d="M223 350h-165v150h165v-150zM150 -140h-115l45 280h155z" />
    <glyph glyph-name="ellipsis.ss01" horiz-adv-x="800" 
d="M213 0h-165v150h165v-150zM483 0h-165v150h165v-150zM753 0h-165v150h165v-150z" />
    <glyph glyph-name="exclam.ss01" horiz-adv-x="280" 
d="M209 215h-140v445h140v-445zM223 0h-165v150h165v-150z" />
    <glyph glyph-name="exclamdown.ss01" horiz-adv-x="280" 
d="M223 350h-165v150h165v-150zM209 -180h-140v465h140v-465z" />
    <glyph glyph-name="question.ss01" horiz-adv-x="535" 
d="M322 215h-140v10c0 185 183 150 183 250c0 45 -43 73 -93 73s-102 -23 -102 -88h-140c0 145 120 210 240 210s235 -70 235 -195c0 -170 -183 -135 -183 -250v-10zM335 0h-165v150h165v-150z" />
    <glyph glyph-name="questiondown.ss01" horiz-adv-x="535" 
d="M367 350h-164v150h164v-150zM265 -190c-120 0 -235 70 -235 195c0 175 183 155 183 270v10h140v-10c0 -185 -183 -165 -183 -270c0 -45 43 -73 93 -73s102 23 102 93h140c0 -150 -120 -215 -240 -215z" />
    <glyph glyph-name="periodcentered.ss01" horiz-adv-x="280" 
d="M222 190h-164v150h164v-150z" />
    <glyph glyph-name="colon.case.ss01" horiz-adv-x="280" 
d="M223 435h-165v150h165v-150zM223 85h-165v150h165v-150z" />
    <glyph glyph-name="periodcentered.case.ss01" horiz-adv-x="280" 
d="M223 260h-165v150h165v-150z" />
    <glyph glyph-name="slash.ss04" horiz-adv-x="490" 
d="M75 -140h-20l340 880h20z" />
    <glyph glyph-name="backslash.ss04" horiz-adv-x="490" 
d="M95 740l340 -880h-20l-340 880h20z" />
    <glyph glyph-name="parenleft" unicode="(" horiz-adv-x="350" 
d="M318 -75l-105 -70c-70 90 -143 240 -143 415s73 325 143 415l105 -70c-70 -100 -118 -210 -118 -345c0 -136 48 -245 118 -345z" />
    <glyph glyph-name="parenright" unicode=")" horiz-adv-x="350" 
d="M138 -145l-105 70c70 100 117 209 117 345c0 135 -47 245 -117 345l105 70c70 -90 142 -240 142 -415s-72 -325 -142 -415z" />
    <glyph glyph-name="braceleft" unicode="{" horiz-adv-x="400" 
d="M365 0v-128c-150 0 -240 67 -240 218v38c0 60 -35 93 -100 98v118c65 5 100 39 100 99v20c0 150 90 217 240 217v-127h-15c-65 0 -97 -34 -97 -90v-20c0 -80 -28 -128 -103 -153c85 -30 103 -82 103 -162v-38c0 -55 32 -90 97 -90h15z" />
    <glyph glyph-name="braceright" unicode="}" horiz-adv-x="400" 
d="M35 -128v128h15c65 0 98 35 98 90v38c0 80 17 132 102 162c-75 25 -102 73 -102 153v20c0 56 -33 90 -98 90h-15v127c150 0 240 -67 240 -217v-20c0 -60 35 -94 100 -99v-118c-65 -5 -100 -38 -100 -98v-38c0 -151 -90 -218 -240 -218z" />
    <glyph glyph-name="bracketleft" unicode="[" horiz-adv-x="360" 
d="M325 -115h-250v775h250v-115h-120v-545h120v-115z" />
    <glyph glyph-name="bracketright" unicode="]" horiz-adv-x="360" 
d="M285 660v-775h-250v115h120v545h-120v115h250z" />
    <glyph glyph-name="angleleft" unicode="&#x2329;" horiz-adv-x="520" 
d="M508 -13l-93 -92l-395 395l395 395l93 -92l-303 -303z" />
    <glyph glyph-name="angleright" unicode="&#x232a;" horiz-adv-x="520" 
d="M500 290l-395 -395l-92 92l302 303l-302 303l92 92z" />
    <glyph glyph-name="parenleft.case" horiz-adv-x="350" 
d="M318 -15l-105 -70c-70 90 -143 240 -143 415s73 325 143 415l105 -70c-70 -100 -118 -210 -118 -345c0 -136 48 -245 118 -345z" />
    <glyph glyph-name="parenright.case" horiz-adv-x="350" 
d="M138 -85l-105 70c70 100 117 209 117 345c0 135 -47 245 -117 345l105 70c70 -90 142 -240 142 -415s-72 -325 -142 -415z" />
    <glyph glyph-name="braceleft.case" horiz-adv-x="400" 
d="M365 45v-128c-150 0 -240 67 -240 218v38c0 60 -35 93 -100 98v118c65 5 100 39 100 99v20c0 150 90 217 240 217v-127h-15c-65 0 -97 -34 -97 -90v-20c0 -80 -28 -128 -103 -153c85 -30 103 -82 103 -162v-38c0 -55 32 -90 97 -90h15z" />
    <glyph glyph-name="braceright.case" horiz-adv-x="400" 
d="M35 -83v128h15c65 0 98 35 98 90v38c0 80 17 132 102 162c-75 25 -102 73 -102 153v20c0 56 -33 90 -98 90h-15v127c150 0 240 -67 240 -217v-20c0 -60 35 -94 100 -99v-118c-65 -5 -100 -38 -100 -98v-38c0 -151 -90 -218 -240 -218z" />
    <glyph glyph-name="bracketleft.case" horiz-adv-x="360" 
d="M325 -65h-250v775h250v-115h-120v-545h120v-115z" />
    <glyph glyph-name="bracketright.case" horiz-adv-x="360" 
d="M285 710v-775h-250v115h120v545h-120v115h250z" />
    <glyph glyph-name="angleleft.case" horiz-adv-x="520" 
d="M508 38l-93 -93l-395 395l395 395l93 -92l-303 -303z" />
    <glyph glyph-name="angleright.case" horiz-adv-x="520" 
d="M500 340l-395 -395l-92 93l302 302l-302 303l92 92z" />
    <glyph glyph-name="parenleft.ss04" horiz-adv-x="350" 
d="M290 -130l-15 -10c-80 110 -150 250 -150 410s60 300 150 410l15 -10c-90 -115 -145 -240 -145 -400s65 -285 145 -400z" />
    <glyph glyph-name="parenright.ss04" horiz-adv-x="350" 
d="M75 -140l-15 10c80 115 145 240 145 400s-55 285 -145 400l15 10c90 -110 150 -250 150 -410s-70 -300 -150 -410z" />
    <glyph glyph-name="parenleft.case.ss04" horiz-adv-x="350" 
d="M290 -70l-15 -10c-80 110 -150 250 -150 410s60 300 150 410l15 -10c-90 -115 -145 -240 -145 -400s65 -285 145 -400z" />
    <glyph glyph-name="parenright.case.ss04" horiz-adv-x="350" 
d="M75 -80l-15 10c80 115 145 240 145 400s-55 285 -145 400l15 10c90 -110 150 -250 150 -410s-70 -300 -150 -410z" />
    <glyph glyph-name="hyphen" unicode="-" horiz-adv-x="360" 
d="M320 205h-280v115h280v-115z" />
    <glyph glyph-name="uni00AD" unicode="&#xad;" horiz-adv-x="360" 
d="M320 205h-280v115h280v-115z" />
    <glyph glyph-name="endash" unicode="&#x2013;" horiz-adv-x="530" 
d="M490 205h-450v115h450v-115z" />
    <glyph glyph-name="emdash" unicode="&#x2014;" horiz-adv-x="860" 
d="M800 205h-740v115h740v-115z" />
    <glyph glyph-name="underscore" unicode="_" horiz-adv-x="455" 
d="M465 -195h-475v110h475v-110z" />
    <glyph glyph-name="hyphen.case" horiz-adv-x="360" 
d="M320 275h-280v115h280v-115z" />
    <glyph glyph-name="uni00AD.case" horiz-adv-x="360" 
d="M320 275h-280v115h280v-115z" />
    <glyph glyph-name="endash.case" horiz-adv-x="530" 
d="M490 275h-450v115h450v-115z" />
    <glyph glyph-name="emdash.case" horiz-adv-x="860" 
d="M800 275h-740v115h740v-115z" />
    <glyph glyph-name="endash.ss04" horiz-adv-x="530" 
d="M490 255h-450v20h450v-20z" />
    <glyph glyph-name="emdash.ss04" horiz-adv-x="860" 
d="M800 255h-740v20h740v-20z" />
    <glyph glyph-name="quotesinglbase" unicode="&#x201a;" horiz-adv-x="260" 
d="M145 -140h-115l45 280h155z" />
    <glyph glyph-name="quotedblbase" unicode="&#x201e;" horiz-adv-x="460" 
d="M140 -140h-110l45 280h150zM345 -140h-110l45 280h150z" />
    <glyph glyph-name="quotedblleft" unicode="&#x201c;" horiz-adv-x="460" 
d="M180 380h-150l85 280h110zM385 380h-150l85 280h110z" />
    <glyph glyph-name="quotedblright" unicode="&#x201d;" horiz-adv-x="460" 
d="M140 380h-110l45 280h150zM345 380h-110l45 280h150z" />
    <glyph glyph-name="quoteleft" unicode="&#x2018;" horiz-adv-x="260" 
d="M185 380h-155l85 280h115z" />
    <glyph glyph-name="quoteright" unicode="&#x2019;" horiz-adv-x="260" 
d="M145 380h-115l45 280h155z" />
    <glyph glyph-name="guillemotleft" unicode="&#xab;" horiz-adv-x="645" 
d="M365 88l-87 -88l-250 250l250 250l87 -87l-162 -163zM618 88l-88 -88l-250 250l250 250l88 -87l-163 -163z" />
    <glyph glyph-name="guillemotright" unicode="&#xbb;" horiz-adv-x="645" 
d="M365 250l-250 -250l-87 88l162 162l-162 163l87 87zM618 250l-250 -250l-88 88l163 162l-163 163l88 87z" />
    <glyph glyph-name="guilsinglleft" unicode="&#x2039;" horiz-adv-x="405" 
d="M365 88l-87 -88l-250 250l250 250l87 -87l-162 -163z" />
    <glyph glyph-name="guilsinglright" unicode="&#x203a;" horiz-adv-x="405" 
d="M378 250l-250 -250l-88 88l163 162l-163 163l88 87z" />
    <glyph glyph-name="quotedbl" unicode="&#x22;" horiz-adv-x="460" 
d="M140 380h-110l45 280h150zM345 380h-110l45 280h150z" />
    <glyph glyph-name="quotesingle" unicode="'" horiz-adv-x="260" 
d="M145 380h-115l45 280h155z" />
    <glyph glyph-name="guillemotleft.case" horiz-adv-x="645" 
d="M365 178l-87 -88l-250 250l250 250l87 -87l-162 -163zM618 178l-88 -88l-250 250l250 250l88 -87l-163 -163z" />
    <glyph glyph-name="guillemotright.case" horiz-adv-x="645" 
d="M365 340l-250 -250l-87 88l162 162l-162 163l87 87zM618 340l-250 -250l-88 88l163 162l-163 163l88 87z" />
    <glyph glyph-name="guilsinglleft.case" horiz-adv-x="405" 
d="M365 178l-87 -88l-250 250l250 250l87 -87l-162 -163z" />
    <glyph glyph-name="guilsinglright.case" horiz-adv-x="405" 
d="M378 340l-250 -250l-88 88l163 162l-163 163l88 87z" />
    <glyph glyph-name="quotesingle.ss04" horiz-adv-x="100" 
d="M60 420h-20v300h20v-300z" />
    <glyph glyph-name="uni2003" unicode="&#x2003;" horiz-adv-x="1000" 
 />
    <glyph glyph-name="uni2002" unicode="&#x2002;" horiz-adv-x="500" 
 />
    <glyph glyph-name="uni2007" unicode="&#x2007;" horiz-adv-x="630" 
 />
    <glyph glyph-name="uni200A" unicode="&#x200a;" horiz-adv-x="85" 
 />
    <glyph glyph-name="uni00A0" unicode="&#xa0;" horiz-adv-x="240" 
 />
    <glyph glyph-name="uni0E3F" unicode="&#xe3f;" horiz-adv-x="645" 
d="M605 191c0 -114 -83 -189 -215 -191v-100h-130v100h-185v660h185v110h130v-111c120 -8 195 -76 195 -179c0 -80 -57 -120 -102 -130c50 -10 122 -59 122 -159zM260 535h-45v-135h45v135zM445 465c0 36 -19 59 -55 67v-129c36 8 55 30 55 62zM215 283v-158h45v158h-45z
M390 283v-158c49 4 75 38 75 80s-26 74 -75 78z" />
    <glyph glyph-name="uni20BF" unicode="&#x20bf;" horiz-adv-x="645" 
d="M605 191c0 -86 -47 -150 -127 -177v-124h-125v110h-55v-110h-125v110h-98v660h98v110h125v-110h55v110h125v-130c68 -29 107 -85 107 -160c0 -80 -57 -120 -102 -130c50 -10 122 -59 122 -159zM360 535h-145v-135h145c55 0 85 25 85 65c0 45 -30 70 -85 70zM215 125h165
c55 0 85 35 85 80s-30 78 -85 78h-165v-158z" />
    <glyph glyph-name="uni20B5" unicode="&#x20b5;" horiz-adv-x="710" 
d="M420 126c66 20 106 75 118 139h142c-18 -130 -112 -247 -260 -271v-94h-130v98c-152 34 -260 168 -260 332s108 298 260 332v108h130v-104c148 -24 242 -141 260 -271h-142c-12 64 -52 120 -118 140v-409zM173 330c0 -98 48 -168 117 -197v395
c-69 -29 -117 -100 -117 -198z" />
    <glyph glyph-name="cent" unicode="&#xa2;" horiz-adv-x="535" 
d="M280 105c63 0 85 55 93 90h137c-8 -81 -62 -170 -165 -197v-108h-130v107c-116 27 -185 125 -185 253c0 126 75 225 185 252v108h130v-108c103 -26 157 -115 165 -197h-137c-8 35 -30 90 -93 90c-60 0 -105 -55 -105 -145c0 -92 45 -145 105 -145z" />
    <glyph glyph-name="currency" unicode="&#xa4;" 
d="M520 250c0 -35 -9 -68 -25 -98l65 -64l-87 -88l-65 65c-29 -16 -63 -25 -99 -25s-69 9 -98 24l-63 -64l-88 88l65 64c-16 30 -25 63 -25 98s9 68 25 98l-65 65l88 87l64 -65c29 16 62 25 98 25s69 -9 98 -25l65 65l87 -87l-65 -65c16 -30 25 -63 25 -98zM310 155
c53 0 95 40 95 95s-42 95 -95 95c-52 0 -95 -40 -95 -95s43 -95 95 -95z" />
    <glyph glyph-name="dollar" unicode="$" horiz-adv-x="660" 
d="M605 205c0 -120 -81 -195 -215 -211v-94h-130v95c-123 21 -202 97 -205 220h145c2 -39 21 -71 60 -89v156c-96 20 -195 55 -195 183c0 109 75 180 195 200v105h130v-104c121 -18 203 -90 205 -211h-144c-1 40 -22 69 -61 84v-146c102 -20 215 -50 215 -188zM210 477
c0 -29 20 -45 50 -56v119c-30 -11 -50 -33 -50 -63zM390 255v-139c43 11 70 40 70 75c0 37 -27 53 -70 64z" />
    <glyph glyph-name="dong" unicode="&#x20ab;" 
d="M540 688h87v-98h-87v-520h-130v50c-25 -35 -80 -60 -140 -60c-137 0 -222 110 -222 245s87 235 222 235c60 0 113 -25 138 -60v110h-133v98h133v82h132v-82zM293 178c74 0 112 60 112 127c0 68 -37 128 -112 128c-70 0 -105 -60 -105 -128c0 -67 35 -127 105 -127z
M540 -110h-460v110h460v-110z" />
    <glyph glyph-name="Euro" unicode="&#x20ac;" horiz-adv-x="800" 
d="M455 115c90 0 140 65 155 145h140c-15 -135 -125 -270 -295 -270c-136 0 -247 86 -292 210h-123v110h101c-1 7 -1 13 -1 20v20h-100v110h123c45 124 155 210 292 210c170 0 280 -135 295 -270h-140c-15 80 -65 145 -155 145c-62 0 -114 -30 -145 -85h210l-45 -110h-194
c-1 -7 -1 -13 -1 -20s0 -13 1 -20h182l-45 -110h-108c31 -55 83 -85 145 -85z" />
    <glyph glyph-name="florin" unicode="&#x192;" horiz-adv-x="500" 
d="M475 555h-50c-34 0 -52 -10 -60 -55l-19 -110h84v-115h-103l-47 -275c-22 -133 -92 -180 -185 -180h-70v125h55c35 0 53 10 60 55l47 275h-87v115h106l19 110c23 133 93 180 185 180h65v-125z" />
    <glyph glyph-name="uni20B2" unicode="&#x20b2;" horiz-adv-x="722" 
d="M430 535v-185h260v-32c0 -169 -103 -297 -260 -323v-95h-130v97c-156 32 -270 167 -270 333s114 301 270 333v107h130v-105c145 -24 237 -134 255 -240h-142c-15 49 -52 93 -113 110zM173 330c0 -102 53 -173 127 -200v400c-73 -27 -127 -98 -127 -200zM430 235v-109
c62 18 96 62 108 109h-108z" />
    <glyph glyph-name="uni20B4" unicode="&#x20b4;" horiz-adv-x="690" 
d="M620 353h-550v107h233c60 0 122 3 122 43c0 32 -45 50 -95 50c-60 0 -97 -20 -130 -55l-105 70c55 70 135 102 245 102c145 0 225 -72 225 -135c0 -35 -15 -60 -45 -75h100v-107zM350 -10c-145 0 -225 73 -225 135c0 35 15 60 45 75h-100v108h550v-108h-232
c-60 0 -123 -3 -123 -42c0 -33 45 -50 95 -50c60 0 98 20 130 55l105 -70c-55 -70 -135 -103 -245 -103z" />
    <glyph glyph-name="uni20AD" unicode="&#x20ad;" horiz-adv-x="705" 
d="M666 280h-202l224 -280h-183l-230 305v-305h-140v280h-100v120h100v260h140v-270l220 270h173l-218 -260h216v-120z" />
    <glyph glyph-name="uni20BA" unicode="&#x20ba;" 
d="M473 344h140c0 -195 -125 -344 -330 -344h-113v251l-130 -46v113l130 46v45l-130 -46v112l130 46v139h140v-90l115 40v-112l-115 -40v-45l115 40v-113l-115 -40v-172c100 0 163 81 163 216z" />
    <glyph glyph-name="uni20BC" unicode="&#x20bc;" horiz-adv-x="770" 
d="M445 770v-106c155 -30 260 -166 260 -334v-330h-140v330c0 106 -47 177 -120 203v-433h-130v432c-70 -26 -110 -96 -110 -202v-330h-140v330c0 167 97 304 250 334v106h130z" />
    <glyph glyph-name="uni20A6" unicode="&#x20a6;" horiz-adv-x="830" 
d="M695 400h100v-120h-100v-280h-135l-186 280h-99v-280h-140v280h-100v120h100v260h135l174 -260h111v260h140v-260zM275 428v-28h19zM524 280l31 -47v47h-31z" />
    <glyph glyph-name="uni20BD" unicode="&#x20bd;" horiz-adv-x="690" 
d="M130 660h300c140 0 230 -75 230 -205s-90 -202 -230 -202h-160v-45h100v-108h-100v-100h-140v100h-100v108h100v45h-100v125h100v282zM270 378h160c55 0 90 25 90 77c0 53 -35 78 -90 78h-160v-155z" />
    <glyph glyph-name="uni20B9" unicode="&#x20b9;" horiz-adv-x="590" 
d="M575 660v-115h-131c9 -14 15 -29 20 -45h111v-115h-103c-17 -108 -98 -185 -222 -185h-13l216 -200h-178l-210 210v100h165c65 0 100 31 112 75h-277v115h264c-18 27 -50 45 -99 45h-165v115h510z" />
    <glyph glyph-name="uni20AA" unicode="&#x20aa;" horiz-adv-x="780" 
d="M198 0h-128v660h280c120 0 188 -60 188 -180v-315h-125v320c0 45 -20 60 -63 60h-152v-545zM583 660h127v-660h-280c-120 0 -187 60 -187 180v315h125v-320c0 -45 20 -60 62 -60h153v545z" />
    <glyph glyph-name="sterling" unicode="&#xa3;" horiz-adv-x="625" 
d="M593 485v-30h-140v30c0 50 -38 80 -88 80s-87 -25 -87 -90v-80h122v-110h-122v-35c0 -60 -5 -102 -60 -122h367v-128h-525v123c60 0 78 42 78 87v75h-98v110h98v80c0 135 97 215 227 215s228 -85 228 -205z" />
    <glyph glyph-name="uni20B8" unicode="&#x20b8;" 
d="M585 545h-550v115h550v-115zM380 0h-140v385h-205v115h550v-115h-205v-385z" />
    <glyph glyph-name="uni20AE" unicode="&#x20ae;" 
d="M585 660v-130h-205v-87l120 42v-112l-120 -42v-45l120 42v-113l-120 -42v-173h-140v124l-125 -44v113l125 44v45l-125 -44v112l125 44v136h-205v130h550z" />
    <glyph glyph-name="uni20A9" unicode="&#x20a9;" horiz-adv-x="1020" 
d="M889 400h96v-120h-131l-81 -280h-150l-68 280h-90l-67 -280h-150l-82 280h-131v120h96l-76 260h158l60 -260h101l61 260h150l62 -260h101l60 260h157zM494 400h32l-16 65zM301 280l22 -95l22 95h-44zM675 280l23 -95l22 95h-45z" />
    <glyph glyph-name="yen" unicode="&#xa5;" 
d="M465 660h153l-150 -280h67v-107h-124l-24 -45h148v-108h-155v-120h-140v120h-155v108h148l-24 45h-124v107h67l-149 280h152l155 -305z" />
    <glyph glyph-name="uni2219" unicode="&#x2219;" horiz-adv-x="280" 
d="M140 185c-45 0 -80 35 -80 80s35 80 80 80s80 -35 80 -80s-35 -80 -80 -80z" />
    <glyph glyph-name="uni2224" unicode="&#x2224;" horiz-adv-x="280" 
d="M140 185c-45 0 -80 35 -80 80s35 80 80 80s80 -35 80 -80s-35 -80 -80 -80z" />
    <glyph glyph-name="dotmath" unicode="&#x22c5;" horiz-adv-x="280" 
d="M140 185c-45 0 -80 35 -80 80s35 80 80 80s80 -35 80 -80s-35 -80 -80 -80z" />
    <glyph glyph-name="uni2913" unicode="&#x2913;" horiz-adv-x="800" 
d="M618 375l-218 -217l-217 217h147v285h140v-285h148zM730 0h-660v125h660v-125z" />
    <glyph glyph-name="uni22EE" unicode="&#x22ee;" horiz-adv-x="400" 
d="M200 495c-50 0 -90 40 -90 90s40 90 90 90s90 -40 90 -90s-40 -90 -90 -90zM200 240c-50 0 -90 40 -90 90s40 90 90 90s90 -40 90 -90s-40 -90 -90 -90zM200 -15c-50 0 -90 40 -90 90s40 90 90 90s90 -40 90 -90s-40 -90 -90 -90z" />
    <glyph glyph-name="uni2922" unicode="&#x2922;" horiz-adv-x="840" 
d="M423 428l95 -95l145 145l87 -88v270h-270l88 -87zM418 233l-95 95l-145 -145l-88 87v-270h270l-87 88z" />
    <glyph glyph-name="uni2928" unicode="&#x2928;" horiz-adv-x="840" 
d="M750 660v-270l-87 88l-148 -148l148 -147l87 87v-270h-270l88 88l-148 147l-235 -235l-95 95l235 235l-235 235l95 95l235 -235l148 148l-88 87h270z" />
    <glyph glyph-name="plus" unicode="+" 
d="M380 0h-140v193h-180v115h180v192h140v-192h180v-115h-180v-193z" />
    <glyph glyph-name="minus" unicode="&#x2212;" 
d="M560 193h-500v115h500v-115z" />
    <glyph glyph-name="multiply" unicode="&#xd7;" 
d="M310 163l-162 -163l-88 88l163 162l-163 163l88 87l162 -162l163 162l87 -87l-162 -163l162 -162l-87 -88z" />
    <glyph glyph-name="divide" unicode="&#xf7;" 
d="M310 350c-42 0 -75 33 -75 75c0 43 33 75 75 75c43 0 75 -32 75 -75c0 -42 -32 -75 -75 -75zM560 193h-500v115h500v-115zM310 0c-42 0 -75 33 -75 75c0 43 33 75 75 75c43 0 75 -32 75 -75c0 -42 -32 -75 -75 -75z" />
    <glyph glyph-name="equal" unicode="=" 
d="M560 283h-500v115h500v-115zM560 103h-500v115h500v-115z" />
    <glyph glyph-name="notequal" unicode="&#x2260;" 
d="M560 398v-115h-168l-24 -65h192v-115h-235l-38 -103h-138l38 103h-127v115h170l24 65h-194v115h236l38 102h138l-38 -102h126z" />
    <glyph glyph-name="greater" unicode="&#x3e;" 
d="M550 193l-480 -193v138l303 112l-303 113v137l480 -192v-115z" />
    <glyph glyph-name="less" unicode="&#x3c;" 
d="M550 138v-138l-480 193v115l480 192v-137l-302 -113z" />
    <glyph glyph-name="greaterequal" unicode="&#x2265;" 
d="M550 273l-480 -125v112l305 70l-305 68v112l480 -122v-115zM550 0h-480v115h480v-115z" />
    <glyph glyph-name="lessequal" unicode="&#x2264;" 
d="M550 260v-112l-480 125v115l480 122v-112l-305 -68zM550 115v-115h-480v115h480z" />
    <glyph glyph-name="plusminus" unicode="&#xb1;" 
d="M380 165h-140v110h-160v115h160v110h140v-110h160v-115h-160v-110zM540 0h-460v115h460v-115z" />
    <glyph glyph-name="approxequal" unicode="&#x2248;" 
d="M410 255c-110 0 -140 83 -185 83c-25 0 -35 -20 -35 -60h-140c0 105 55 177 160 177c110 0 140 -82 185 -82c25 0 35 20 35 60h140c0 -105 -55 -178 -160 -178zM410 45c-110 0 -140 83 -185 83c-25 0 -35 -20 -35 -60h-140c0 105 55 177 160 177c110 0 140 -82 185 -82
c25 0 35 20 35 60h140c0 -105 -55 -178 -160 -178z" />
    <glyph glyph-name="logicalnot" unicode="&#xac;" 
d="M550 0h-140v193h-340v115h480v-308z" />
    <glyph glyph-name="asciitilde" unicode="~" 
d="M410 165c-110 0 -140 83 -185 83c-25 0 -35 -20 -35 -60h-140c0 105 55 177 160 177c110 0 140 -82 185 -82c25 0 35 20 35 60h140c0 -105 -55 -178 -160 -178z" />
    <glyph glyph-name="asciicircum" unicode="^" 
d="M310 495l-147 -147l-93 92l240 240l240 -240l-92 -92z" />
    <glyph glyph-name="infinity" unicode="&#x221e;" horiz-adv-x="800" 
d="M215 170c-92 0 -180 63 -180 170c0 108 88 170 180 170c83 0 148 -56 185 -95c38 39 103 95 185 95c92 0 180 -62 180 -170c0 -107 -88 -170 -180 -170c-82 0 -144 55 -185 95c-41 -40 -103 -95 -185 -95zM220 280c33 0 55 20 100 60c-45 40 -67 60 -100 60
c-30 0 -60 -22 -60 -60c0 -37 30 -60 60 -60zM580 280c30 0 60 23 60 60c0 38 -30 60 -60 60c-32 0 -55 -20 -100 -60c45 -40 68 -60 100 -60z" />
    <glyph glyph-name="emptyset" unicode="&#x2205;" horiz-adv-x="800" 
d="M675 690l90 -90l-75 -75c38 -55 60 -122 60 -195c0 -190 -150 -340 -340 -340c-73 0 -140 22 -195 60l-80 -80l-90 90l81 81c-35 54 -56 119 -56 189c0 190 150 340 340 340c70 0 135 -21 189 -56zM210 330c0 -32 6 -62 16 -89l279 279c-27 15 -59 23 -95 23
c-120 0 -200 -93 -200 -213zM610 330c0 35 -7 67 -19 96l-282 -282c29 -17 63 -26 101 -26c120 0 200 92 200 212z" />
    <glyph glyph-name="logicaland" unicode="&#x2227;" horiz-adv-x="280" 
d="M140 185c-45 0 -80 35 -80 80s35 80 80 80s80 -35 80 -80s-35 -80 -80 -80z" />
    <glyph glyph-name="integral" unicode="&#x222b;" horiz-adv-x="500" 
d="M95 -180h-70v125h55c35 0 53 10 60 55l85 500c23 133 93 180 185 180h65v-125h-50c-34 0 -52 -10 -60 -55l-85 -500c-22 -133 -92 -180 -185 -180z" />
    <glyph glyph-name="uni2126" unicode="&#x2126;" horiz-adv-x="780" 
d="M330 0h-295v130h95c-42 33 -95 95 -95 200c0 190 163 340 355 340s355 -150 355 -340c0 -105 -52 -167 -95 -200h95v-130h-295v115c100 40 155 119 155 215c0 120 -90 213 -215 213s-215 -93 -215 -213c0 -96 55 -175 155 -215v-115z" />
    <glyph glyph-name="product" unicode="&#x220f;" horiz-adv-x="680" 
d="M215 0h-140v660h530v-660h-140v530h-250v-530z" />
    <glyph glyph-name="summation" unicode="&#x2211;" horiz-adv-x="530" 
d="M510 -180h-490v122l233 308l-233 308v122h490v-130h-315l225 -300l-225 -300h315v-130z" />
    <glyph glyph-name="radical" unicode="&#x221a;" horiz-adv-x="570" 
d="M325 0h-140l-180 500h145l105 -325l165 505h145z" />
    <glyph glyph-name="uni00B5" unicode="&#xb5;" horiz-adv-x="595" 
d="M200 -180h-140v680h140v-292c0 -70 35 -103 88 -103c65 0 90 53 90 123v272h140v-342c0 -50 17 -60 47 -60h10v-98c-13 -3 -36 -5 -57 -5c-75 0 -105 28 -125 75c-20 -49 -68 -80 -128 -80c-30 0 -50 7 -65 15v-185z" />
    <glyph glyph-name="partialdiff" unicode="&#x2202;" horiz-adv-x="590" 
d="M280 -10c-155 0 -245 103 -245 223s95 217 220 217c80 0 138 -35 168 -80v19c0 126 -71 176 -143 176c-50 0 -87 -23 -110 -45l-90 90c45 45 113 80 190 80c180 0 285 -125 285 -330c0 -190 -100 -350 -275 -350zM280 115c55 0 108 35 108 98c0 60 -53 97 -108 97
s-105 -37 -105 -97c0 -63 50 -98 105 -98z" />
    <glyph glyph-name="percent" unicode="%" horiz-adv-x="1020" 
d="M240 300c-102 0 -185 83 -185 185c0 103 83 185 185 185c103 0 185 -82 185 -185c0 -102 -82 -185 -185 -185zM403 0h-125l340 660h125zM240 403c46 0 83 36 83 82s-37 83 -83 83s-82 -37 -82 -83s36 -82 82 -82zM780 -10c-102 0 -185 83 -185 185c0 103 83 185 185 185
c103 0 185 -82 185 -185c0 -102 -82 -185 -185 -185zM780 93c46 0 83 36 83 82s-37 83 -83 83s-82 -37 -82 -83s36 -82 82 -82z" />
    <glyph glyph-name="perthousand" unicode="&#x2030;" horiz-adv-x="1280" 
d="M240 300c-102 0 -185 83 -185 185c0 103 83 185 185 185c103 0 185 -82 185 -185c0 -102 -82 -185 -185 -185zM403 0h-125l340 660h125zM240 403c46 0 83 36 83 82s-37 83 -83 83s-82 -37 -82 -83s36 -82 82 -82zM780 -10c-102 0 -185 83 -185 185c0 103 83 185 185 185
c53 0 98 -22 130 -60c33 38 78 60 130 60c103 0 185 -82 185 -185c0 -102 -82 -185 -185 -185c-52 0 -97 23 -130 60c-32 -37 -77 -60 -130 -60zM780 93c46 0 83 36 83 82s-37 83 -83 83s-82 -37 -82 -83s36 -82 82 -82zM1040 93c46 0 83 36 83 82s-37 83 -83 83
s-82 -37 -82 -83s36 -82 82 -82z" />
    <glyph glyph-name="circleplus" unicode="&#x2295;" horiz-adv-x="880" 
d="M440 -30c-200 0 -360 160 -360 360s160 360 360 360s360 -160 360 -360s-160 -360 -360 -360zM440 63c148 0 268 120 268 267c0 148 -120 268 -268 268c-147 0 -267 -120 -267 -268c0 -147 120 -267 267 -267zM498 150h-115v128h-123v105h123v127h115v-127h122v-105h-122
v-128z" />
    <glyph glyph-name="uniFF0B" unicode="&#xff0b;" horiz-adv-x="800" 
d="M470 0h-140v265h-260v130h260v265h140v-265h260v-130h-260v-265z" />
    <glyph glyph-name="percent.tf" 
d="M310 450c-102 0 -185 83 -185 185c0 103 83 185 185 185c103 0 185 -82 185 -185c0 -102 -82 -185 -185 -185zM310 553c46 0 83 36 83 82s-37 83 -83 83s-82 -37 -82 -83s36 -82 82 -82zM560 278h-500v105h500v-105zM310 -160c-102 0 -185 82 -185 185s83 185 185 185
c103 0 185 -82 185 -185s-82 -185 -185 -185zM310 -58c46 0 83 37 83 83s-37 83 -83 83s-82 -37 -82 -83s36 -83 82 -83z" />
    <glyph glyph-name="perthousand.tf" 
d="M310 450c-102 0 -185 83 -185 185c0 103 83 185 185 185c103 0 185 -82 185 -185c0 -102 -82 -185 -185 -185zM310 553c46 0 83 36 83 82s-37 83 -83 83s-82 -37 -82 -83s36 -82 82 -82zM560 278h-500v105h500v-105zM180 -160c-102 0 -185 82 -185 185s83 185 185 185
c53 0 98 -22 130 -60c33 38 78 60 130 60c103 0 185 -82 185 -185s-82 -185 -185 -185c-52 0 -97 22 -130 60c-32 -38 -77 -60 -130 -60zM180 -58c46 0 83 37 83 83s-37 83 -83 83s-82 -37 -82 -83s36 -83 82 -83zM440 -58c46 0 83 37 83 83s-37 83 -83 83s-82 -37 -82 -83
s36 -83 82 -83z" />
    <glyph glyph-name="arrowup" unicode="&#x2191;" horiz-adv-x="800" 
d="M470 0h-140v425l-187 -187l-93 92l350 350l350 -350l-92 -92l-188 187v-425z" />
    <glyph glyph-name="uni2197" unicode="&#x2197;" horiz-adv-x="800" 
d="M579 436l-436 -436l-93 93l436 436h-271v131h495v-495h-131v271z" />
    <glyph glyph-name="arrowright" unicode="&#x2192;" horiz-adv-x="800" 
d="M740 330l-350 -350l-92 93l195 195h-433v125h433l-195 195l92 92z" />
    <glyph glyph-name="uni2198" unicode="&#x2198;" horiz-adv-x="800" 
d="M710 0h-495v132h271l-436 436l93 92l436 -436v271h131v-495z" />
    <glyph glyph-name="arrowdown" unicode="&#x2193;" horiz-adv-x="800" 
d="M750 330l-350 -350l-350 350l93 93l187 -188v425h140v-425l188 188z" />
    <glyph glyph-name="uni2199" unicode="&#x2199;" horiz-adv-x="800" 
d="M585 0h-495v495h132v-271l436 436l92 -92l-436 -436h271v-132z" />
    <glyph glyph-name="arrowleft" unicode="&#x2190;" horiz-adv-x="800" 
d="M503 73l-93 -93l-350 350l350 350l93 -92l-195 -195h432v-125h-432z" />
    <glyph glyph-name="uni2196" unicode="&#x2196;" horiz-adv-x="800" 
d="M750 93l-92 -93l-436 436v-271h-132v495h495v-131h-271z" />
    <glyph glyph-name="arrowboth" unicode="&#x2194;" horiz-adv-x="820" 
d="M555 545l215 -215l-215 -215v153h-290v-154l-215 216l215 215v-152h290v152z" />
    <glyph glyph-name="arrowupdn" unicode="&#x2195;" horiz-adv-x="600" 
d="M515 195l-215 -215l-215 215h145v270h-145l215 215l215 -215h-145v-270h145z" />
    <glyph glyph-name="uni21A4" unicode="&#x21a4;" horiz-adv-x="800" 
d="M483 73l-93 -93l-350 350l350 350l93 -92l-195 -195h292v267h140v-660h-140v268h-292z" />
    <glyph glyph-name="uni21A5" unicode="&#x21a5;" horiz-adv-x="800" 
d="M730 0h-660v125h260v300l-187 -187l-93 92l350 350l350 -350l-92 -92l-188 187v-300h260v-125z" />
    <glyph glyph-name="uni21A6" unicode="&#x21a6;" horiz-adv-x="800" 
d="M760 330l-350 -350l-92 93l195 195h-293v-268h-140v660h140v-267h293l-195 195l92 92z" />
    <glyph glyph-name="uni21A7" unicode="&#x21a7;" horiz-adv-x="800" 
d="M750 330l-350 -350l-350 350l93 93l187 -188v300h-260v125h660v-125h-260v-300l188 188z" />
    <glyph glyph-name="uni21B0" unicode="&#x21b0;" horiz-adv-x="800" 
d="M483 73l-93 -93l-350 350l350 350l93 -93l-195 -194h432v-393h-140v268h-292z" />
    <glyph glyph-name="uni21B1" unicode="&#x21b1;" horiz-adv-x="800" 
d="M760 330l-350 -350l-92 93l195 195h-293v-268h-140v393h433l-195 195l92 92z" />
    <glyph glyph-name="uni21B2" unicode="&#x21b2;" horiz-adv-x="800" 
d="M483 73l-93 -93l-350 350l350 350l93 -92l-195 -195h292v267h140v-392h-432z" />
    <glyph glyph-name="uni21B3" unicode="&#x21b3;" horiz-adv-x="800" 
d="M760 330l-350 -350l-92 93l195 195h-433v392h140v-267h293l-195 195l92 92z" />
    <glyph glyph-name="uni21B4" unicode="&#x21b4;" horiz-adv-x="800" 
d="M750 330l-350 -350l-350 350l93 93l187 -188v300h-260v125h400v-425l188 188z" />
    <glyph glyph-name="carriagereturn" unicode="&#x21b5;" horiz-adv-x="800" 
d="M483 73l-93 -93l-350 350l350 350l93 -92l-195 -195h292v267h140v-392h-432z" />
    <glyph glyph-name="uni21BA" unicode="&#x21ba;" horiz-adv-x="780" 
d="M400 670c190 0 340 -150 340 -340s-150 -340 -340 -340c-95 0 -180 40 -240 100l93 93c35 -35 82 -65 147 -65c120 0 210 92 210 212s-90 213 -210 213c-65 0 -112 -31 -147 -66l107 -107h-305v305l105 -105c60 60 145 100 240 100z" />
    <glyph glyph-name="uni21BB" unicode="&#x21bb;" horiz-adv-x="780" 
d="M725 675v-305h-305l107 107c-35 35 -82 66 -147 66c-120 0 -210 -93 -210 -213s90 -212 210 -212c65 0 113 30 148 65l92 -93c-60 -60 -145 -100 -240 -100c-190 0 -340 150 -340 340s150 340 340 340c95 0 180 -40 240 -100z" />
    <glyph glyph-name="uni21C4" unicode="&#x21c4;" horiz-adv-x="820" 
d="M770 490l-215 -215v153h-455v125h455v152zM265 108v-153l-215 215l215 215v-152h455v-125h-455z" />
    <glyph glyph-name="uni21C5" unicode="&#x21c5;" horiz-adv-x="920" 
d="M360 0h-140v465h-145l215 215l215 -215h-145v-465zM845 195l-215 -215l-215 215h145v465h140v-465h145z" />
    <glyph glyph-name="uni259E" unicode="&#x259e;" horiz-adv-x="660" 
d="M660 330h-330v330h330v-330zM330 0h-330v330h330v-330z" />
    <glyph glyph-name="uni25CF" unicode="&#x25cf;" horiz-adv-x="760" 
d="M380 -10c-190 0 -340 150 -340 340s150 340 340 340s340 -150 340 -340s-150 -340 -340 -340z" />
    <glyph glyph-name="circle" unicode="&#x25cb;" horiz-adv-x="760" 
d="M380 -10c-190 0 -340 150 -340 340s150 340 340 340s340 -150 340 -340s-150 -340 -340 -340zM380 118c120 0 213 92 213 212s-93 213 -213 213s-212 -93 -212 -213s92 -212 212 -212z" />
    <glyph glyph-name="uni25D1" unicode="&#x25d1;" horiz-adv-x="760" 
d="M380 -10c-190 0 -340 150 -340 340s150 340 340 340s340 -150 340 -340s-150 -340 -340 -340zM380 118v425c-120 0 -212 -93 -212 -213s92 -212 212 -212z" />
    <glyph glyph-name="uni25C9" unicode="&#x25c9;" horiz-adv-x="760" 
d="M380 -10c-190 0 -340 150 -340 340s150 340 340 340s340 -150 340 -340s-150 -340 -340 -340zM380 118c120 0 213 92 213 212s-93 213 -213 213s-212 -93 -212 -213s92 -212 212 -212zM380 190c-80 0 -140 60 -140 140s60 140 140 140s140 -60 140 -140
s-60 -140 -140 -140z" />
    <glyph glyph-name="uni25C6" unicode="&#x25c6;" horiz-adv-x="800" 
d="M760 330l-360 -360l-360 360l360 360z" />
    <glyph glyph-name="uni25C7" unicode="&#x25c7;" horiz-adv-x="800" 
d="M760 330l-360 -360l-360 360l360 360zM215 330l185 -185l185 185l-185 185z" />
    <glyph glyph-name="lozenge" unicode="&#x25ca;" horiz-adv-x="550" 
d="M345 0h-140l-190 340l190 340h140l190 -340zM153 340l122 -222l123 222l-123 223z" />
    <glyph glyph-name="filledbox" unicode="&#x25a0;" horiz-adv-x="820" 
d="M740 0h-660v660h660v-660z" />
    <glyph glyph-name="uni25A1" unicode="&#x25a1;" horiz-adv-x="820" 
d="M740 0h-660v660h660v-660zM220 530v-400h380v400h-380z" />
    <glyph glyph-name="uni25A6" unicode="&#x25a6;" horiz-adv-x="820" 
d="M250 490h-170v170h170v-170zM495 490h-170v170h170v-170zM740 490h-170v170h170v-170zM250 245h-170v170h170v-170zM495 245h-170v170h170v-170zM740 245h-170v170h170v-170zM250 0h-170v170h170v-170zM495 0h-170v170h170v-170zM740 0h-170v170h170v-170z" />
    <glyph glyph-name="triagup" unicode="&#x25b2;" horiz-adv-x="820" 
d="M800 0h-780l390 680z" />
    <glyph glyph-name="uni25B6" unicode="&#x25b6;" horiz-adv-x="735" 
d="M725 330l-645 -370v740z" />
    <glyph glyph-name="triagdn" unicode="&#x25bc;" horiz-adv-x="820" 
d="M800 660l-390 -680l-390 680h780z" />
    <glyph glyph-name="uni25C0" unicode="&#x25c0;" horiz-adv-x="735" 
d="M655 700v-740l-645 370z" />
    <glyph glyph-name="uni25B3" unicode="&#x25b3;" horiz-adv-x="820" 
d="M800 0h-780l390 680zM410 425l-170 -297h340z" />
    <glyph glyph-name="uni25B7" unicode="&#x25b7;" horiz-adv-x="735" 
d="M725 330l-645 -370v740zM220 473v-285l250 142z" />
    <glyph glyph-name="uni25BD" unicode="&#x25bd;" horiz-adv-x="820" 
d="M800 660l-390 -680l-390 680h780zM240 533l170 -298l170 298h-340z" />
    <glyph glyph-name="uni25C1" unicode="&#x25c1;" horiz-adv-x="735" 
d="M655 700v-740l-645 370zM265 330l250 -142v285z" />
    <glyph glyph-name="uni25E5" unicode="&#x25e5;" horiz-adv-x="820" 
d="M740 660v-660l-660 660h660z" />
    <glyph glyph-name="uni25E2" unicode="&#x25e2;" horiz-adv-x="820" 
d="M740 0h-660l660 660v-660z" />
    <glyph glyph-name="uni25E3" unicode="&#x25e3;" horiz-adv-x="820" 
d="M740 0h-660v660z" />
    <glyph glyph-name="uni25E4" unicode="&#x25e4;" horiz-adv-x="820" 
d="M740 660l-660 -660v660h660z" />
    <glyph glyph-name="uni256C" unicode="&#x256c;" horiz-adv-x="820" 
d="M360 380h-280v130h150v150h130v-280zM740 380h-280v280h130v-150h150v-130zM360 0h-130v150h-150v130h280v-280zM590 0h-130v280h280v-130h-150v-150z" />
    <glyph glyph-name="uni2601" unicode="&#x2601;" horiz-adv-x="1170" 
d="M930 0h-615c-150 0 -255 115 -255 255s105 254 255 255c40 100 145 180 285 180c190 0 330 -150 330 -330c100 0 180 -80 180 -180s-80 -180 -180 -180z" />
    <glyph glyph-name="uni2630" unicode="&#x2630;" horiz-adv-x="1020" 
d="M940 530h-860v130h860v-130zM940 265h-860v130h860v-130zM940 0h-860v130h860v-130z" />
    <glyph glyph-name="smileface" unicode="&#x263a;" horiz-adv-x="1000" 
d="M500 -90c-230 0 -420 180 -420 420s190 420 420 420s420 -180 420 -420s-190 -420 -420 -420zM500 15c173 0 315 133 315 315c0 183 -142 315 -315 315c-172 0 -315 -132 -315 -315c0 -182 143 -315 315 -315zM380 353c-45 0 -77 35 -77 77c0 43 32 78 77 78
s78 -35 78 -78c0 -42 -33 -77 -78 -77zM620 353c-45 0 -77 35 -77 77c0 43 32 78 77 78s78 -35 78 -78c0 -42 -33 -77 -78 -77zM500 100c-80 0 -160 40 -215 125l75 58c43 -63 95 -83 140 -83s98 20 140 83l75 -58c-55 -85 -135 -125 -215 -125z" />
    <glyph glyph-name="invsmileface" unicode="&#x263b;" horiz-adv-x="1000" 
d="M500 -90c-230 0 -420 180 -420 420c0 230 190 420 420 420s420 -190 420 -420s-190 -420 -420 -420zM360 370c45 0 85 35 85 80s-40 80 -85 80s-85 -35 -85 -80s40 -80 85 -80zM640 370c45 0 85 35 85 80s-40 80 -85 80s-85 -35 -85 -80s40 -80 85 -80zM500 54
c105 0 185 51 240 136l-85 70c-45 -60 -95 -90 -155 -90s-110 30 -155 90l-85 -70c55 -85 135 -136 240 -136z" />
    <glyph glyph-name="uni2661" unicode="&#x2661;" horiz-adv-x="920" 
d="M760 270l-300 -300l-300 300c-40 40 -100 110 -100 200c0 130 90 220 220 220c90 0 150 -50 180 -100c30 50 90 100 180 100c130 0 220 -90 220 -220c0 -90 -60 -160 -100 -200zM300 290l160 -157l160 157c57 56 113 112 113 180c0 60 -43 100 -103 100
c-100 0 -160 -122 -170 -172c-10 50 -70 172 -170 172c-60 0 -102 -40 -102 -100c0 -68 55 -124 112 -180z" />
    <glyph glyph-name="heart" unicode="&#x2665;" horiz-adv-x="920" 
d="M760 270l-300 -300l-300 300c-40 40 -100 110 -100 200c0 130 90 220 220 220c90 0 150 -50 180 -100c30 50 90 100 180 100c130 0 220 -90 220 -220c0 -90 -60 -160 -100 -200z" />
    <glyph glyph-name="uni267B" unicode="&#x267b;" horiz-adv-x="1060" 
d="M470 330l-180 -180v123h-190v487h298v-115h-183v-257h75v122zM710 570l-180 -180l-180 180h123v190h487v-297h-115v182h-257v-75h122zM960 -100h-297v115h182v258h-75v-123l-180 180l180 180v-122h190v-488zM588 -100h-488v298h115v-183h258v75h-123l180 180l180 -180
h-122v-190z" />
    <glyph glyph-name="uni267F" unicode="&#x267f;" horiz-adv-x="860" 
d="M360 670c-55 0 -100 45 -100 100s45 100 100 100s100 -45 100 -100s-45 -100 -100 -100zM340 -10c-150 0 -280 125 -280 280c0 136 101 251 228 274v51h272v-110h-157v-105h195l92 -190l85 38l45 -98l-178 -79l-44 107c-43 -95 -145 -168 -258 -168zM340 105
c98 0 165 68 165 165h-217v158c-63 -23 -113 -78 -113 -158c0 -97 73 -165 165 -165z" />
    <glyph glyph-name="uni2699" unicode="&#x2699;" horiz-adv-x="800" 
d="M455 -30h-110l-20 130l-35 14l-106 -77l-77 77l77 106l-14 35l-130 20v110l130 20l14 35l-77 106l77 77l106 -77l35 14l20 130h110l20 -130l35 -14l106 77l77 -77l-77 -106l14 -35l130 -20v-110l-130 -20l-14 -35l77 -106l-77 -77l-106 77l-35 -14zM400 210
c70 0 120 50 120 120s-50 120 -120 120s-120 -50 -120 -120s50 -120 120 -120z" />
    <glyph glyph-name="uni26F6" unicode="&#x26f6;" horiz-adv-x="820" 
d="M210 380h-130v280h280v-130h-150v-150zM740 380h-130v150h-150v130h280v-280zM360 0h-280v280h130v-150h150v-130zM740 0h-280v130h150v150h130v-280z" />
    <glyph glyph-name="uni2705" unicode="&#x2705;" horiz-adv-x="880" 
d="M440 -30c-200 0 -360 160 -360 360s160 360 360 360s360 -160 360 -360s-160 -360 -360 -360zM290 405l-85 -85l185 -185l275 275l-85 85l-190 -190z" />
    <glyph glyph-name="uni2709" unicode="&#x2709;" horiz-adv-x="1020" 
d="M940 660l-430 -360l-430 360h860zM355 330l-275 -230v460zM940 560v-460l-275 230zM940 0h-860l335 280l95 -80l95 80z" />
    <glyph glyph-name="uni2713" unicode="&#x2713;" horiz-adv-x="1150" 
d="M995 555l-555 -555l-300 300l105 105l195 -195l450 450z" />
    <glyph glyph-name="uni2715" unicode="&#x2715;" horiz-adv-x="780" 
d="M390 225l-225 -225l-105 105l225 225l-225 225l105 105l225 -225l225 225l105 -105l-225 -225l225 -225l-105 -105z" />
    <glyph glyph-name="uni2726" unicode="&#x2726;" horiz-adv-x="720" 
d="M0 325v10c200 0 355 155 355 355h10c0 -200 155 -355 355 -355v-10c-200 0 -355 -155 -355 -355h-10c0 200 -155 355 -355 355z" />
    <glyph glyph-name="uni2733" unicode="&#x2733;" horiz-adv-x="860" 
d="M561 384l229 4v-115l-229 4l164 -161l-80 -81l-161 164l4 -229h-115l4 230l-161 -165l-81 81l165 161l-230 -4v115l229 -4l-164 161l81 80l161 -164l-4 229h115l-4 -229l161 164l80 -80z" />
    <glyph glyph-name="uni274C" unicode="&#x274c;" horiz-adv-x="1260" 
d="M630 225l-465 -465l-105 105l465 465l-465 465l105 105l465 -465l467 465l105 -105l-467 -465l465 -465l-105 -105z" />
    <glyph glyph-name="u1F141" unicode="&#x1f141;" horiz-adv-x="980" 
d="M900 -75h-820v810h820v-810zM185 638v-615h610v615h-610zM413 120h-98v420h210c96 0 150 -60 150 -140c0 -75 -40 -105 -85 -122l90 -158h-117l-70 143h-80v-143zM413 450v-100h106c43 0 59 23 59 50c0 28 -17 50 -59 50h-106z" />
    <glyph glyph-name="at" unicode="@" horiz-adv-x="820" 
d="M410 -100c-195 0 -350 155 -350 350s155 350 360 350c195 0 340 -135 340 -330c0 -130 -65 -200 -147 -200c-50 0 -88 20 -110 60c-28 -45 -68 -60 -113 -60c-90 0 -160 80 -160 180s60 180 155 180c38 0 78 -12 98 -45v35h85v-200c0 -37 12 -62 45 -62
c30 0 57 32 57 112c0 145 -105 240 -250 240c-155 0 -270 -115 -270 -260s115 -260 260 -260c53 0 98 13 153 50l55 -78c-65 -45 -135 -62 -208 -62zM400 153c50 0 75 50 75 97c0 48 -25 98 -75 98s-70 -50 -70 -98c0 -47 20 -97 70 -97z" />
    <glyph glyph-name="ampersand" unicode="&#x26;" horiz-adv-x="660" 
d="M260 -10c-155 0 -245 98 -245 198s68 150 148 187c-55 51 -83 90 -83 148c0 65 58 157 198 157c135 0 202 -90 202 -170c0 -65 -40 -117 -132 -167l105 -110c17 35 22 82 22 122h125c0 -55 -15 -137 -60 -207l140 -148h-157l-60 65c-43 -37 -110 -75 -203 -75zM270 423
c48 22 80 47 80 85c0 40 -32 62 -72 62s-70 -22 -70 -57c0 -29 22 -52 62 -90zM270 108c48 0 83 17 110 42l-137 145c-55 -22 -88 -50 -88 -95c0 -55 45 -92 115 -92z" />
    <glyph glyph-name="paragraph" unicode="&#xb6;" horiz-adv-x="600" 
d="M338 -180h-115v440c-105 0 -195 80 -195 200s90 200 200 200h110v-840zM518 -180h-115v840h115v-840z" />
    <glyph glyph-name="section" unicode="&#xa7;" horiz-adv-x="640" 
d="M330 -190c-150 0 -252 77 -255 200h128c2 -50 37 -88 127 -88c65 0 107 30 107 68c0 51 -44 59 -112 69l-40 6c-112 17 -200 58 -200 163c0 65 45 105 95 127c-55 16 -95 65 -95 134c0 111 90 181 235 181c140 0 233 -70 235 -180h-127c-3 38 -38 68 -108 68
c-72 0 -107 -27 -107 -62c0 -42 35 -56 110 -66l37 -5c130 -17 205 -65 205 -162c0 -65 -45 -105 -95 -128c50 -20 95 -61 95 -139c0 -111 -80 -186 -235 -186zM343 173c55 0 97 20 97 72c0 55 -62 73 -132 73c-55 0 -98 -25 -98 -73c0 -55 63 -72 133 -72z" />
    <glyph glyph-name="copyright" unicode="&#xa9;" horiz-adv-x="880" 
d="M440 -30c-200 0 -360 160 -360 360s160 360 360 360s360 -160 360 -360s-160 -360 -360 -360zM440 63c148 0 268 120 268 267c0 148 -120 268 -268 268c-147 0 -267 -120 -267 -268c0 -147 120 -267 267 -267zM440 145c-100 0 -182 75 -182 185s81 190 182 190
c103 0 165 -77 173 -152h-103c-5 30 -22 62 -70 62c-47 0 -80 -35 -80 -100s33 -95 80 -95c48 0 65 28 70 58h103c-8 -75 -70 -148 -173 -148z" />
    <glyph glyph-name="registered" unicode="&#xae;" horiz-adv-x="880" 
d="M440 -30c-200 0 -360 160 -360 360s160 360 360 360s360 -160 360 -360s-160 -360 -360 -360zM440 63c148 0 268 120 268 267c0 148 -120 268 -268 268c-147 0 -267 -120 -267 -268c0 -147 120 -267 267 -267zM393 160h-95v350h172c80 0 128 -47 128 -117
c0 -60 -27 -88 -67 -105l72 -128h-110l-50 110h-50v-110zM393 423v-73h60c30 0 45 10 45 38c0 25 -18 35 -43 35h-62z" />
    <glyph glyph-name="uni2117" unicode="&#x2117;" horiz-adv-x="880" 
d="M440 -30c-200 0 -360 160 -360 360s160 360 360 360s360 -160 360 -360s-160 -360 -360 -360zM440 63c148 0 268 120 268 267c0 148 -120 268 -268 268c-147 0 -267 -120 -267 -268c0 -147 120 -267 267 -267zM395 160h-97v350h182c80 0 128 -50 128 -125
s-48 -117 -128 -117h-85v-108zM395 420v-70h73c25 0 40 10 40 35s-15 35 -40 35h-73z" />
    <glyph glyph-name="trademark" unicode="&#x2122;" horiz-adv-x="970" 
d="M243 230h-110v333h-113v97h335v-97h-112v-333zM505 230h-102v430h165l82 -290l83 290h165v-430h-103v335l-100 -335h-90l-100 335v-335z" />
    <glyph glyph-name="degree" unicode="&#xb0;" horiz-adv-x="450" 
d="M225 310c-100 0 -180 80 -180 180s80 180 180 180s180 -80 180 -180s-80 -180 -180 -180zM225 425c38 0 65 28 65 65c0 38 -27 65 -65 65c-37 0 -65 -27 -65 -65c0 -37 28 -65 65 -65z" />
    <glyph glyph-name="bar" unicode="|" horiz-adv-x="280" 
d="M210 -180h-140v920h140v-920z" />
    <glyph glyph-name="brokenbar" unicode="&#xa6;" horiz-adv-x="280" 
d="M210 370h-140v370h140v-370zM210 -180h-140v370h140v-370z" />
    <glyph glyph-name="dagger" unicode="&#x2020;" horiz-adv-x="520" 
d="M330 -180h-140v555h-155v125h155v180h140v-180h155v-125h-155v-555z" />
    <glyph glyph-name="uni2113" unicode="&#x2113;" horiz-adv-x="515" 
d="M260 95c25 0 55 20 65 65h105c-20 -105 -95 -170 -180 -170c-51 0 -118 21 -151 110c-18 -9 -36 -17 -54 -25l-32 75c24 9 47 20 69 31c-1 15 -2 31 -2 49c0 250 145 460 280 460c70 0 120 -50 120 -130c0 -164 -125 -302 -275 -400c8 -45 27 -65 55 -65zM355 585
c-59 0 -147 -159 -154 -330c112 84 189 191 189 285c0 15 -5 45 -35 45z" />
    <glyph glyph-name="daggerdbl" unicode="&#x2021;" horiz-adv-x="520" 
d="M333 -180h-140v180h-158v125h158v250h-158v125h158v180h140v-180h152v-125h-152v-250h152v-125h-152v-180z" />
    <glyph glyph-name="estimated" unicode="&#x212e;" horiz-adv-x="800" 
d="M400 -10c-200 0 -360 149 -360 340c0 190 160 340 360 340s360 -150 360 -340v-22h-560v-203c50 -40 118 -70 200 -70c100 0 177 42 235 100l35 -35c-70 -70 -160 -110 -270 -110zM200 555v-202h400v202c-50 40 -118 70 -200 70s-150 -30 -200 -70z" />
    <glyph glyph-name="uni2B9F" unicode="&#x2b9f;" horiz-adv-x="1330" 
d="M1220 555l-555 -555l-555 555l105 105l450 -450l450 450z" />
    <glyph glyph-name="uni23EE" unicode="&#x23ee;" horiz-adv-x="870" 
d="M790 700v-740l-530 370zM210 660v-660h-140v660h140z" />
    <glyph glyph-name="uni2B9C" unicode="&#x2b9c;" horiz-adv-x="780" 
d="M728 -135l-105 -105l-570 570l570 570l105 -105l-465 -465z" />
    <glyph glyph-name="uni23ED" unicode="&#x23ed;" horiz-adv-x="870" 
d="M610 330l-530 -370v740zM800 0h-140v660h140v-660z" />
    <glyph glyph-name="uni2B9E" unicode="&#x2b9e;" horiz-adv-x="780" 
d="M728 330l-570 -570l-105 105l465 465l-465 465l105 105z" />
    <glyph glyph-name="uni2B9D" unicode="&#x2b9d;" horiz-adv-x="1330" 
d="M665 450l-450 -450l-105 105l555 555l555 -555l-105 -105z" />
    <glyph glyph-name="uni23F8" unicode="&#x23f8;" horiz-adv-x="780" 
d="M300 0h-220v660h220v-660zM700 0h-220v660h220v-660z" />
    <glyph glyph-name="u1F300" unicode="&#x1f300;" horiz-adv-x="1396" 
d="M680 -208c-151 0 -314 61 -429 192c-88 99 -139 227 -139 367c0 131 54 286 178 392c90 77 206 125 326 125c111 0 263 -40 367 -166c68 -80 109 -181 109 -294c0 -130 -49 -240 -151 -329c-73 -64 -164 -96 -264 -96c-108 0 -219 48 -293 138c-47 57 -80 132 -80 226
c0 110 47 200 123 263c54 45 128 68 195 68c78 0 169 -35 228 -113c27 -38 53 -92 53 -156c0 -60 -18 -112 -56 -156c-39 -47 -97 -79 -163 -79c-51 0 -101 15 -137 51c-54 53 -55 108 -55 128c0 32 13 68 45 100l80 -81c-4 -5 -9 -13 -9 -26c0 -14 7 -27 18 -37
s31 -20 54 -20c35 0 62 20 77 37c20 24 29 56 29 82c0 33 -13 66 -29 86c-39 50 -92 66 -135 66c-51 0 -88 -17 -121 -42c-58 -46 -81 -116 -81 -171c0 -56 18 -106 56 -152c55 -66 128 -95 207 -95c68 0 131 25 184 69c78 65 108 155 108 239c0 89 -31 159 -83 220
c-76 89 -180 122 -270 122c-101 0 -188 -34 -256 -94c-88 -78 -136 -188 -136 -310c0 -114 43 -211 108 -286c84 -96 215 -152 339 -152c118 0 235 42 324 122c117 106 166 250 166 377c0 85 -19 166 -58 238c-28 52 -55 97 -98 138l83 82c56 -52 90 -108 119 -165
c42 -80 71 -182 71 -288c0 -161 -58 -336 -204 -467c-108 -97 -245 -153 -400 -153z" />
    <glyph glyph-name="u1F310" unicode="&#x1f310;" horiz-adv-x="1000" 
d="M500 750c230 0 420 -180 420 -420s-190 -420 -420 -420s-420 180 -420 420s190 420 420 420zM500 660c-35 0 -63 -60 -77 -170h154c-14 110 -42 170 -77 170zM664 490h125c-36 65 -93 116 -161 144c16 -40 28 -89 36 -144zM372 634c-68 -28 -125 -79 -161 -144h125
c8 55 20 104 36 144zM170 330c0 -26 3 -50 8 -74h149c-1 24 -2 49 -2 74c0 26 1 51 2 75h-149c-5 -24 -8 -49 -8 -75zM417 256h166c1 23 2 48 2 74s-1 51 -2 75h-166c-1 -24 -2 -49 -2 -75s1 -51 2 -74zM830 330c0 26 -3 51 -8 75h-149c1 -24 2 -49 2 -75
c0 -25 -1 -50 -2 -74h149c5 24 8 48 8 74zM336 170h-125c36 -65 93 -115 161 -144c-16 40 -29 89 -36 144zM500 0c35 0 63 60 77 170h-154c14 -110 42 -170 77 -170zM628 26c68 28 125 79 161 144h-125c-8 -55 -20 -104 -36 -144z" />
    <glyph glyph-name="u1F322" unicode="&#x1f322;" horiz-adv-x="560" 
d="M280 -30c-120 0 -220 100 -220 220c0 73 34 140 70 210l150 290l150 -290c37 -71 70 -137 70 -210c0 -120 -100 -220 -220 -220z" />
    <glyph glyph-name="u1F441" unicode="&#x1f441;" horiz-adv-x="1300" 
d="M650 -10c-240 0 -440 120 -610 340c170 210 370 340 610 340s440 -130 610 -340c-170 -220 -370 -340 -610 -340zM650 95c155 0 315 70 465 235c-150 168 -310 235 -465 235s-315 -67 -465 -235c150 -165 310 -235 465 -235zM650 180c-90 0 -150 70 -150 150
s60 150 150 150s150 -70 150 -150s-60 -150 -150 -150z" />
    <glyph glyph-name="u1F442" unicode="&#x1f442;" horiz-adv-x="895" 
d="M815 758l-77 -97c57 -60 92 -141 92 -226c0 -192 -175 -255 -235 -355c-33 -54 -55 -118 -93 -165c-32 -39 -74 -65 -142 -65c-89 0 -147 47 -175 117l-90 -112l-90 67l369 463c-9 18 -14 38 -14 60c0 75 60 135 135 135c11 0 22 -1 32 -4l58 73c-27 12 -57 19 -90 19
c-137 0 -225 -115 -225 -233h-110c0 175 144 330 335 330c56 0 108 -13 153 -37l77 97zM503 138c60 100 217 170 217 297c0 52 -17 103 -48 144l-57 -72c10 -18 15 -40 15 -62c0 -75 -60 -135 -135 -135c-12 0 -23 1 -34 4l-191 -239c1 -83 29 -122 90 -122
c26 0 44 12 60 32c26 34 45 90 83 153z" />
    <glyph glyph-name="u1F464" unicode="&#x1f464;" horiz-adv-x="820" 
d="M410 310c-110 0 -200 90 -200 200s90 200 200 200s200 -90 200 -200s-90 -200 -200 -200zM80 40v-40h660v40c0 110 -90 200 -200 200h-260c-110 0 -200 -90 -200 -200z" />
    <glyph glyph-name="u1F476" unicode="&#x1f476;" horiz-adv-x="700" 
d="M350 575c-55 0 -100 45 -100 100s45 100 100 100s100 -45 100 -100s-45 -100 -100 -100zM350 270l-172 -285l-100 60l210 340v5h-228v110h580v-110h-227v-5l210 -340l-100 -60z" />
    <glyph glyph-name="u1F4AC" unicode="&#x1f4ac;" horiz-adv-x="1310" 
d="M810 -90h-310c-230 0 -420 180 -420 420s190 420 420 420h310c230 0 420 -180 420 -420s-190 -420 -420 -420zM500 15h310c175 0 315 135 315 315s-140 315 -315 315h-310c-175 0 -315 -135 -315 -315s140 -315 315 -315zM390 240c-50 0 -90 40 -90 90s40 90 90 90
s90 -40 90 -90s-40 -90 -90 -90zM655 240c-50 0 -90 40 -90 90s40 90 90 90s90 -40 90 -90s-40 -90 -90 -90zM920 240c-50 0 -90 40 -90 90s40 90 90 90s90 -40 90 -90s-40 -90 -90 -90z" />
    <glyph glyph-name="u1F4B3" unicode="&#x1f4b3;" horiz-adv-x="1040" 
d="M960 540h-880v20c0 60 40 100 100 100h680c60 0 100 -40 100 -100v-20zM860 0h-680c-60 0 -100 40 -100 100v310h880v-310c0 -60 -40 -100 -100 -100z" />
    <glyph glyph-name="u1F4CD" unicode="&#x1f4cd;" horiz-adv-x="680" 
d="M550 180l-210 -210l-210 210c-55 55 -90 130 -90 210c0 160 140 300 300 300s300 -140 300 -300c0 -80 -35 -155 -90 -210zM340 280c70 0 120 50 120 120s-50 120 -120 120s-120 -50 -120 -120s50 -120 120 -120z" />
    <glyph glyph-name="u1F501" unicode="&#x1f501;" horiz-adv-x="800" 
d="M640 570l105 105v-305h-305l107 107c-35 35 -82 65 -147 65c-97 0 -170 -57 -197 -142h-135c32 155 167 270 332 270c95 0 180 -40 240 -100zM400 118c98 0 170 57 198 142h135c-33 -155 -168 -270 -333 -270c-95 0 -180 40 -240 100l-105 -105v305h305l-107 -107
c35 -35 82 -65 147 -65z" />
    <glyph glyph-name="u1F507" unicode="&#x1f507;" horiz-adv-x="910" 
d="M450 700v-740l-220 220h-150v300h150zM680 265l-105 -105l-65 65l105 105l-105 105l65 65l105 -105l105 105l65 -65l-105 -105l105 -105l-65 -65z" />
    <glyph glyph-name="u1F508" unicode="&#x1f508;" horiz-adv-x="910" 
d="M450 700v-740l-220 220h-150v300h150z" />
    <glyph glyph-name="u1F509" unicode="&#x1f509;" horiz-adv-x="910" 
d="M450 700v-740l-220 220h-150v300h150zM585 165l-65 65c25 30 40 60 40 100s-15 70 -40 100l65 65c40 -40 65 -100 65 -165s-25 -125 -65 -165z" />
    <glyph glyph-name="u1F50A" unicode="&#x1f50a;" horiz-adv-x="910" 
d="M450 700v-740l-220 220h-150v300h150zM715 35l-65 65c55 60 90 140 90 230s-35 170 -90 230l65 65c70 -75 115 -180 115 -295s-45 -220 -115 -295zM585 165l-65 65c25 30 40 60 40 100s-15 70 -40 100l65 65c40 -40 65 -100 65 -165s-25 -125 -65 -165z" />
    <glyph glyph-name="u1F50E" unicode="&#x1f50e;" horiz-adv-x="920" 
d="M658 140l227 -228l-92 -92l-227 227c-54 -36 -120 -57 -191 -57c-190 0 -340 150 -340 340s150 340 340 340s340 -150 340 -340c0 -71 -21 -136 -57 -190zM375 123c120 0 208 87 208 207s-88 208 -208 208s-207 -88 -207 -208s87 -207 207 -207z" />
    <glyph glyph-name="u1F512" unicode="&#x1f512;" horiz-adv-x="740" 
d="M560 490v-100h100v-390h-580v390h100v100c0 110 80 180 190 180s190 -70 190 -180zM280 490v-100h180v100c0 55 -35 90 -90 90s-90 -35 -90 -90z" />
    <glyph glyph-name="u1F513" unicode="&#x1f513;" horiz-adv-x="740" 
d="M560 490v-100h100v-390h-580v390h380v100c0 55 -35 90 -90 90s-90 -35 -90 -90v-20h-100v20c0 110 80 180 190 180s190 -70 190 -180z" />
    <glyph glyph-name="u1F517" unicode="&#x1f517;" horiz-adv-x="1100" 
d="M340 70h158v125h-158c-82 0 -135 53 -135 135c0 83 53 135 135 135h158v125h-158c-150 0 -260 -110 -260 -260s110 -260 260 -260zM603 70h157c150 0 260 110 260 260s-110 260 -260 260h-157v-125h157c83 0 135 -52 135 -135c0 -82 -52 -135 -135 -135h-157v-125z
M780 268h-460v125h460v-125z" />
    <glyph glyph-name="u1F553" unicode="&#x1f553;" horiz-adv-x="1000" 
d="M500 -90c-230 0 -420 180 -420 420s190 420 420 420s420 -180 420 -420s-190 -420 -420 -420zM500 15c173 0 315 133 315 315c0 183 -142 315 -315 315c-172 0 -315 -132 -315 -315c0 -182 143 -315 315 -315zM680 200l-80 -80l-167 168v272h115v-227z" />
    <glyph glyph-name="u1F5CE" unicode="&#x1f5ce;" horiz-adv-x="820" 
d="M90 750h430l210 -210v-630h-640v840zM210 20h400v395h-235v225h-165v-620zM480 640v-130h130z" />
    <glyph glyph-name="u1F6C8" unicode="&#x1f6c8;" horiz-adv-x="1000" 
d="M500 -90c-230 0 -420 180 -420 420s190 420 420 420s420 -180 420 -420s-190 -420 -420 -420zM500 15c173 0 315 133 315 315c0 183 -142 315 -315 315c-172 0 -315 -132 -315 -315c0 -182 143 -315 315 -315zM500 405c-43 0 -77 33 -77 78s34 77 77 77s78 -32 78 -77
s-35 -78 -78 -78zM558 350v-250h-115v250h115z" />
    <glyph glyph-name="u1F6CD" unicode="&#x1f6cd;" horiz-adv-x="900" 
d="M640 660h145l30 -660h-730l30 660h145c0 110 80 180 190 180s190 -70 190 -180zM450 745c-52 0 -85 -32 -85 -85h170c0 53 -32 85 -85 85zM218 555l-18 -450h500l-17 450h-465zM335 510c40 0 70 -30 70 -70s-30 -70 -70 -70s-70 30 -70 70s30 70 70 70zM565 510
c40 0 70 -30 70 -70s-30 -70 -70 -70s-70 30 -70 70s30 70 70 70z" />
    <glyph glyph-name="u1F78B" unicode="&#x1f78b;" horiz-adv-x="1000" 
d="M500 -90c-230 0 -420 180 -420 420s190 420 420 420s420 -180 420 -420s-190 -420 -420 -420zM500 0c180 0 330 140 330 330s-150 330 -330 330s-330 -140 -330 -330s150 -330 330 -330zM500 90c-135 0 -240 105 -240 240s105 240 240 240s240 -105 240 -240
s-105 -240 -240 -240zM500 180c85 0 150 65 150 150s-65 150 -150 150c-84 0 -150 -65 -150 -150s66 -150 150 -150zM500 260c-40 0 -70 30 -70 70s30 70 70 70s70 -30 70 -70s-30 -70 -70 -70z" />
    <glyph glyph-name="uni24E7" unicode="&#x24e7;" horiz-adv-x="880" 
d="M440 -30c-200 0 -360 160 -360 360s160 360 360 360s360 -160 360 -360s-160 -360 -360 -360zM235 210l85 -85l120 120l120 -120l85 85l-120 120l120 120l-85 85l-120 -120l-120 120l-85 -85l120 -120z" />
    <glyph glyph-name="bar.ss04" horiz-adv-x="280" 
d="M150 -180h-20v920h20v-920z" />
    <glyph glyph-name="uni282A" unicode="&#x282a;" horiz-adv-x="780" 
d="M590 240c70 0 125 -55 125 -125s-55 -125 -125 -125s-125 55 -125 125v5l-201 109c-21 -15 -46 -24 -74 -24c-70 0 -125 55 -125 125s55 125 125 125c28 0 53 -9 74 -24l201 109v5c0 70 55 125 125 125s125 -55 125 -125s-55 -125 -125 -125c-34 0 -64 13 -86 34
l-191 -103c1 -7 2 -14 2 -21s-1 -14 -2 -21l191 -103c22 21 52 34 86 34z" />
    <glyph glyph-name="uni0308" unicode="&#x308;" horiz-adv-x="0" 
d="M-325 548c-42 0 -77 32 -77 77s35 78 77 78c43 0 78 -33 78 -78s-35 -77 -78 -77zM-115 548c-43 0 -77 32 -77 77s34 78 77 78s78 -33 78 -78s-35 -77 -78 -77z" />
    <glyph glyph-name="uni0307" unicode="&#x307;" horiz-adv-x="0" 
d="M-120 548c-42 0 -77 32 -77 77s35 78 77 78c43 0 78 -33 78 -78s-35 -77 -78 -77z" />
    <glyph glyph-name="gravecomb" unicode="&#x300;" horiz-adv-x="0" 
d="M-56 580h-127l-100 120h162z" />
    <glyph glyph-name="acutecomb" unicode="&#x301;" horiz-adv-x="0" 
d="M-147 580h-128l65 120h163z" />
    <glyph glyph-name="uni030B" unicode="&#x30b;" horiz-adv-x="0" 
d="M-345 580h-127l65 120h162zM-145 580h-127l75 120h152z" />
    <glyph glyph-name="uni0302" unicode="&#x302;" horiz-adv-x="0" 
d="M-260 580h-125l95 120h140l95 -120h-125l-40 50z" />
    <glyph glyph-name="uni030C" unicode="&#x30c;" horiz-adv-x="0" 
d="M-150 580h-140l-95 120h125l40 -50l40 50h125z" />
    <glyph glyph-name="uni0306" unicode="&#x306;" horiz-adv-x="0" 
d="M-200 565c-75 0 -142 44 -145 135h98c2 -35 22 -47 47 -47s45 12 48 47h97c-2 -91 -70 -135 -145 -135z" />
    <glyph glyph-name="uni030A" unicode="&#x30a;" horiz-adv-x="0" 
d="M-155 555c-56 0 -97 41 -97 98s41 97 97 97s98 -40 98 -97s-42 -98 -98 -98zM-155 618c20 0 35 15 35 35s-15 35 -35 35s-35 -15 -35 -35s15 -35 35 -35z" />
    <glyph glyph-name="tildecomb" unicode="&#x303;" horiz-adv-x="0" 
d="M-300 575h-97c0 70 40 125 110 125c60 0 77 -35 107 -35c20 0 30 18 30 35h98c0 -70 -40 -125 -110 -125c-60 0 -78 35 -108 35c-20 0 -30 -17 -30 -35z" />
    <glyph glyph-name="uni0304" unicode="&#x304;" horiz-adv-x="0" 
d="M-60 575h-300v100h300v-100z" />
    <glyph glyph-name="uni0312" unicode="&#x312;" horiz-adv-x="0" 
d="M-174 700h115l-45 -120h-153z" />
    <glyph glyph-name="uni0326" unicode="&#x326;" horiz-adv-x="0" 
d="M-130 -200h-115l45 120h153z" />
    <glyph glyph-name="uni0327" unicode="&#x327;" horiz-adv-x="0" 
d="M-120 -213c-42 0 -77 33 -77 78s35 77 77 77c43 0 78 -32 78 -77s-35 -78 -78 -78z" />
    <glyph glyph-name="uni0328" unicode="&#x328;" horiz-adv-x="0" 
d="M-50 -180h-60c-80 0 -125 40 -125 95c0 36 15 62 48 85h137c-35 -15 -64 -34 -64 -54c0 -15 14 -21 34 -21h30v-105z" />
    <glyph glyph-name="dieresis" unicode="&#xa8;" horiz-adv-x="440" 
d="M115 548c-42 0 -77 32 -77 77s35 78 77 78c43 0 78 -33 78 -78s-35 -77 -78 -77zM325 548c-43 0 -77 32 -77 77s34 78 77 78s78 -33 78 -78s-35 -77 -78 -77z" />
    <glyph glyph-name="dotaccent" unicode="&#x2d9;" horiz-adv-x="240" 
d="M120 548c-42 0 -77 32 -77 77s35 78 77 78c43 0 78 -33 78 -78s-35 -77 -78 -77z" />
    <glyph glyph-name="grave" unicode="`" horiz-adv-x="336" 
d="M280 580h-127l-100 120h162z" />
    <glyph glyph-name="acute" unicode="&#xb4;" horiz-adv-x="336" 
d="M181 560h-127l64 120h163z" />
    <glyph glyph-name="hungarumlaut" unicode="&#x2dd;" horiz-adv-x="520" 
d="M175 580h-127l65 120h162zM375 580h-127l75 120h152z" />
    <glyph glyph-name="circumflex" unicode="&#x2c6;" horiz-adv-x="440" 
d="M180 580h-125l95 120h140l95 -120h-125l-40 50z" />
    <glyph glyph-name="caron" unicode="&#x2c7;" horiz-adv-x="440" 
d="M290 580h-140l-95 120h125l40 -50l40 50h125z" />
    <glyph glyph-name="breve" unicode="&#x2d8;" horiz-adv-x="400" 
d="M200 548c-75 0 -140 43 -145 134h98c5 -39 24 -48 47 -48s42 9 47 48h98c-5 -91 -70 -134 -145 -134z" />
    <glyph glyph-name="ring" unicode="&#x2da;" horiz-adv-x="310" 
d="M155 555c-56 0 -97 41 -97 98s41 97 97 97s98 -40 98 -97s-42 -98 -98 -98zM155 618c20 0 35 15 35 35s-15 35 -35 35s-35 -15 -35 -35s15 -35 35 -35z" />
    <glyph glyph-name="tilde" unicode="&#x2dc;" horiz-adv-x="450" 
d="M150 575h-97c0 70 40 125 110 125c60 0 77 -35 107 -35c20 0 30 18 30 35h98c0 -70 -40 -125 -110 -125c-60 0 -78 35 -108 35c-20 0 -30 -17 -30 -35z" />
    <glyph glyph-name="macron" unicode="&#xaf;" horiz-adv-x="420" 
d="M360 575h-300v100h300v-100z" />
    <glyph glyph-name="cedilla" unicode="&#xb8;" horiz-adv-x="240" 
d="M120 -213c-42 0 -77 33 -77 78s35 77 77 77c43 0 78 -32 78 -77s-35 -78 -78 -78z" />
    <glyph glyph-name="ogonek" unicode="&#x2db;" horiz-adv-x="290" 
d="M240 -180h-60c-80 0 -125 40 -125 95c0 36 15 62 48 85h137c-35 -15 -64 -34 -64 -54c0 -15 14 -21 34 -21h30v-105z" />
    <glyph glyph-name="uni0308.ss01" horiz-adv-x="0" 
d="M-250 560h-140v120h140v-120zM-50 560h-140v120h140v-120z" />
    <glyph glyph-name="uni0307.ss01" horiz-adv-x="0" 
d="M-50 560h-140v120h140v-120z" />
    <glyph glyph-name="uni0327.ss01" horiz-adv-x="0" 
d="M-117 -200h-163l100 120h125z" />
    <glyph glyph-name="dieresis.ss01" horiz-adv-x="440" 
d="M190 560h-140v120h140v-120zM390 560h-140v120h140v-120z" />
    <glyph glyph-name="dotaccent.ss01" horiz-adv-x="240" 
d="M190 560h-140v120h140v-120z" />
    <glyph glyph-name="cedilla.ss01" horiz-adv-x="330" 
d="M213 -200h-163l100 120h125z" />
    <glyph glyph-name="uniF2A2" unicode="&#xf2a2;" horiz-adv-x="1000" 
d="M830 435c0 -192 -175 -255 -235 -355c-33 -54 -55 -118 -93 -165c-32 -39 -74 -65 -142 -65c-89 0 -147 47 -175 117l-90 -112l-90 67l369 463c-9 18 -14 38 -14 60c0 75 60 135 135 135c11 0 22 -1 32 -4l58 73c-27 12 -57 19 -90 19c-137 0 -225 -115 -225 -233h-110
c0 175 144 330 335 330c56 0 108 -13 153 -37l77 97l90 -67l-77 -97c57 -60 92 -141 92 -226zM503 138c60 100 217 170 217 297c0 52 -17 103 -48 144l-57 -72c10 -18 15 -40 15 -62c0 -75 -60 -135 -135 -135c-12 0 -23 1 -34 4l-191 -239c1 -83 29 -122 90 -122
c26 0 44 12 60 32c26 34 45 90 83 153zM725 18v82h250v-82h-80v-158h-90v158h-80z" />
    </font>
</defs>
</svg>
