<!DOCTYPE svg PUBLIC "-//W3C//DTD SVG 20010904//EN" "http://www.w3.org/TR/2001/REC-SVG-20010904/DTD/svg10.dtd">
<svg version="1.0" xmlns="http://www.w3.org/2000/svg" width="1200px" height="684px" viewBox="0 0 12000 6840" preserveAspectRatio="xMidYMid meet">
<g id="layer101" fill="#ffffff" stroke="none">
 <path d="M425 6830 c-270 -55 -456 -310 -416 -575 30 -201 154 -354 344 -424 l72 -26 543 -5 544 -5 -414 -317 c-228 -175 -439 -344 -470 -376 -97 -101 -161 -219 -195 -360 -21 -88 -21 -265 0 -352 18 -74 866 -2133 924 -2243 68 -128 200 -249 354 -321 263 -125 566 -90 800 89 114 89 190 193 256 354 97 239 298 412 548 472 106 26 314 31 435 10 201 -34 416 -104 647 -210 207 -96 326 -104 478 -32 73 34 173 123 211 187 93 159 89 353 -10 508 -69 108 -153 164 -411 274 -802 341 -1530 340 -2083 -5 -41 -25 -77 -41 -82 -37 -4 5 -39 88 -78 184 -38 96 -163 399 -276 673 -113 274 -206 504 -206 511 0 7 333 269 741 581 660 507 745 575 786 632 215 302 54 722 -309 808 -54 13 -251 15 -1378 14 -723 -1 -1333 -5 -1355 -9z"/>
 <path d="M4650 6570 l0 -270 395 0 395 0 0 270 0 270 -395 0 -395 0 0 -270z"/>
 <path d="M5610 6570 l0 -270 395 0 396 0 -1 270 -1 270 -395 0 -394 0 0 -270z"/>
 <path d="M6570 6570 l0 -270 390 0 390 0 0 270 0 270 -390 0 -390 0 0 -270z"/>
 <path d="M8841 6819 c-25 -5 -78 -24 -119 -44 -195 -92 -314 -314 -283 -529 14 -102 63 -208 128 -277 26 -28 373 -301 771 -606 397 -305 722 -558 722 -564 0 -5 -82 -206 -181 -446 -100 -241 -224 -544 -276 -673 -52 -129 -98 -239 -102 -243 -5 -5 -33 7 -62 26 -182 116 -417 204 -669 249 -118 21 -517 17 -655 -6 -308 -51 -726 -191 -1000 -334 -220 -116 -322 -362 -244 -591 75 -218 310 -360 530 -321 38 7 134 43 234 87 191 85 379 150 535 185 91 20 132 23 300 23 193 0 196 -1 285 -32 126 -44 207 -94 295 -182 88 -88 143 -168 170 -247 74 -215 214 -377 405 -469 201 -97 388 -108 601 -35 184 62 343 200 432 375 28 57 876 2109 895 2170 68 209 26 471 -106 665 -62 90 -129 148 -539 462 -230 176 -418 324 -418 329 0 5 230 9 538 9 464 0 546 2 593 16 197 58 341 226 370 430 10 69 9 92 -6 160 -42 190 -160 327 -343 397 l-57 22 -1350 2 c-746 0 -1370 -3 -1394 -8z"/>
 <path d="M5610 5865 l0 -265 395 0 395 0 -2 263 -3 262 -392 3 -393 2 0 -265z"/>
 <path d="M6570 5865 l0 -265 390 0 390 0 0 265 0 265 -390 0 -390 0 0 -265z"/>
 <path d="M4650 5155 l0 -265 395 0 395 0 0 265 0 265 -395 0 -395 0 0 -265z"/>
 <path d="M5610 5155 l0 -265 395 0 395 0 -2 263 -3 262 -392 3 -393 2 0 -265z"/>
 <path d="M6570 5155 l0 -265 390 0 390 0 0 265 0 265 -390 0 -390 0 0 -265z"/>
 <path d="M4650 4450 l0 -270 395 0 395 0 0 270 0 270 -395 0 -395 0 0 -270z"/>
 <path d="M5610 4450 l0 -270 395 0 395 0 -2 268 -3 267 -392 3 -393 2 0 -270z"/>
 <path d="M4650 3925 c0 -60 4 -87 13 -89 362 -109 497 -176 615 -311 39 -44 41 -45 101 -45 l61 0 0 265 0 265 -395 0 -395 0 0 -85z"/>
 <path d="M5610 3745 l0 -265 395 0 395 0 -2 263 -3 262 -392 3 -393 2 0 -265z"/>
 <path d="M6570 3745 l0 -265 66 0 67 0 71 68 c116 110 207 156 474 243 l102 33 0 93 0 93 -390 0 -390 0 0 -265z"/>
 <path d="M5610 3035 l0 -265 395 0 395 0 -2 263 -3 262 -392 3 -393 2 0 -265z"/>
 <path d="M5382 2548 c-43 -77 -115 -162 -191 -224 -125 -104 -332 -184 -478 -184 l-63 0 0 -40 0 -40 395 0 395 0 0 270 c0 301 -3 314 -58 218z"/>
 <path d="M5610 2330 l0 -270 395 0 395 0 -2 268 -3 267 -392 3 -393 2 0 -270z"/>
 <path d="M6570 2331 l0 -271 390 0 390 0 0 40 0 40 -68 0 c-187 0 -428 115 -560 267 -26 29 -65 84 -88 120 -22 37 -46 69 -52 71 -9 3 -12 -65 -12 -267z"/>
 <path d="M4650 1620 l0 -270 395 0 395 0 0 270 0 270 -395 0 -395 0 0 -270z"/>
 <path d="M5610 1620 l0 -270 393 2 392 3 0 265 0 265 -392 3 -393 2 0 -270z"/>
 <path d="M6570 1620 l0 -270 390 0 390 0 0 270 0 270 -390 0 -390 0 0 -270z"/>
 <path d="M2860 1810 c-251 -31 -504 -188 -644 -399 -98 -148 -146 -312 -146 -504 0 -189 52 -355 161 -512 191 -278 546 -428 879 -374 440 71 760 446 760 889 0 292 -141 569 -377 736 -175 126 -425 190 -633 164z"/>
 <path d="M8893 1796 c-372 -71 -652 -344 -727 -708 -20 -98 -20 -267 0 -366 69 -338 332 -610 671 -694 123 -30 303 -30 428 1 233 57 441 212 564 418 174 293 161 678 -32 963 -118 175 -329 320 -537 370 -111 27 -274 34 -367 16z"/>
 <path d="M4650 915 l0 -265 395 0 395 0 0 265 0 265 -395 0 -395 0 0 -265z"/>
 <path d="M6570 915 l0 -265 390 0 390 0 0 265 0 265 -390 0 -390 0 0 -265z"/>
 </g>

</svg>