<?xml version="1.0" standalone="no"?>
<!DOCTYPE svg PUBLIC "-//W3C//DTD SVG 20010904//EN"
 "http://www.w3.org/TR/2001/REC-SVG-20010904/DTD/svg10.dtd">
<svg version="1.0" xmlns="http://www.w3.org/2000/svg"
 width="582.000000pt" height="395.014298pt" viewBox="0 0 582.000000 395.014298"
 preserveAspectRatio="xMidYMid meet">
<metadata>
Created by potrace 1.12, written by Peter Selinger 2001-2015
</metadata>
<g transform="translate(-7.000000,401.014298) scale(0.100000,-0.100000)"
fill="#ffffff" stroke="none">
<path d="M70 2095 c0 -1053 3 -1915 8 -1915 4 0 36 23 72 50 l65 49 3 -110 3
-109 564 0 565 0 0 403 0 403 148 48 c294 94 620 164 947 203 190 22 831 26
1020 5 366 -40 698 -111 1028 -218 l137 -45 0 -395 0 -394 560 0 559 0 6 32
c3 18 6 62 8 97 l2 63 63 -46 62 -46 0 1920 0 1920 -74 -55 c-466 -344 -1079
-631 -1656 -774 -407 -100 -745 -141 -1180 -141 -435 0 -773 41 -1180 141
-578 143 -1188 428 -1656 774 l-74 55 0 -1915z m180 1525 c0 -105 -2 -190 -5
-190 -2 0 -29 12 -60 27 l-55 27 0 203 0 204 60 -41 60 -41 0 -189z m5580 72
l0 -198 -55 -27 c-31 -15 -58 -27 -60 -27 -3 0 -5 83 -5 185 l0 184 58 40 c31
22 58 40 60 40 1 1 2 -88 2 -197z m-5430 21 l79 -48 1 -172 0 -172 -37 16
c-21 8 -59 26 -85 39 l-48 24 0 180 c0 99 3 180 6 180 3 0 41 -21 84 -47z
m5250 -128 l0 -175 -61 -30 c-33 -17 -72 -35 -85 -40 l-24 -10 0 168 1 167 77
47 c42 26 80 47 85 48 4 0 7 -79 7 -175z m-5006 -15 l86 -45 0 -154 c0 -118
-3 -152 -12 -148 -7 3 -44 17 -83 32 -38 16 -76 32 -82 38 -15 11 -19 331 -4
325 5 -1 48 -23 95 -48z m4776 -109 l0 -159 -90 -36 c-50 -20 -92 -36 -95 -36
-3 0 -5 66 -5 148 l0 147 88 47 c48 26 90 47 95 47 4 1 7 -71 7 -158z m-4520
-22 l90 -42 0 -133 c0 -101 -3 -134 -12 -134 -7 1 -51 15 -98 33 l-85 32 -3
143 c-2 88 1 142 7 142 6 0 51 -19 101 -41z m4270 -99 c0 -77 -2 -140 -4 -140
-2 0 -47 -16 -100 -35 l-96 -35 0 134 0 133 88 41 c48 22 93 41 100 41 9 1 12
-33 12 -139z m660 -84 l0 -174 -60 -20 -60 -21 0 164 0 165 58 29 c31 17 58
30 60 31 1 0 2 -78 2 -174z m-5580 -56 c0 -88 -3 -160 -7 -160 -3 0 -30 8 -60
17 l-53 17 0 173 0 173 60 -30 60 -30 0 -160z m950 110 l45 -18 3 -121 c2 -82
-1 -121 -8 -121 -6 0 -51 12 -101 27 l-89 27 0 133 0 133 53 -21 c28 -12 72
-29 97 -39z m3710 -69 l0 -130 -85 -26 c-47 -14 -92 -28 -100 -32 -14 -5 -15
11 -13 117 l3 122 95 39 c52 21 96 38 98 38 1 1 2 -57 2 -128z m740 -60 l0
-159 -78 -26 c-42 -14 -80 -26 -85 -26 -4 0 -7 67 -7 148 l0 148 83 36 c45 20
83 37 85 37 1 1 2 -71 2 -158z m-5222 98 l52 -23 0 -149 c0 -115 -3 -148 -12
-144 -7 2 -46 15 -85 28 l-73 23 0 158 0 158 33 -14 c17 -8 56 -25 85 -37z
m994 -51 l98 -32 0 -112 0 -112 -102 26 -103 27 -3 118 c-1 64 1 117 5 117 4
0 51 -14 105 -32z m3228 -82 l0 -113 -98 -27 c-54 -14 -102 -26 -105 -26 -4 0
-7 49 -7 108 l0 108 93 31 c50 17 98 32 105 32 9 1 12 -28 12 -113z m770 -56
c0 -161 13 -141 -118 -178 l-73 -21 3 137 3 136 80 32 c44 18 86 33 93 34 9 0
12 -34 12 -140z m-4773 98 l83 -33 0 -134 0 -133 -27 6 c-16 4 -58 16 -95 27
l-68 20 0 139 c0 104 3 140 12 140 7 0 50 -15 95 -32z m1111 -58 l42 -11 0
-99 c0 -122 20 -115 -197 -65 -22 5 -23 10 -23 114 l0 109 68 -18 c37 -10 86
-24 110 -30z m2622 -58 l0 -109 -102 -21 c-57 -12 -106 -22 -110 -22 -5 0 -8
45 -8 100 l0 99 43 11 c32 9 157 44 175 49 1 1 2 -48 2 -107z m-3392 -131 c1
-67 -1 -121 -5 -121 -9 0 -56 12 -140 36 l-53 15 0 123 c0 67 3 125 6 128 3 3
46 -9 97 -27 l92 -33 3 -121z m4182 65 c0 -69 -3 -127 -7 -129 -5 -3 -50 -16
-100 -30 l-93 -26 0 123 0 123 83 31 c125 46 117 53 117 -92z m-3199 74 c52
-11 97 -20 102 -20 4 0 7 -43 7 -96 l0 -97 -47 7 c-27 3 -76 11 -110 17 l-63
11 0 99 c0 54 4 99 8 99 5 0 51 -9 103 -20z m2127 -77 l-3 -98 -65 -12 c-36
-6 -84 -14 -107 -18 l-43 -6 0 95 0 95 38 7 c20 3 62 12 92 19 97 23 91 28 88
-82z m-1834 26 l96 -13 0 -94 c0 -84 -2 -93 -17 -88 -10 2 -49 7 -88 11 -124
12 -115 3 -115 112 0 77 3 94 14 90 7 -3 57 -11 110 -18z m1556 -73 l0 -93
-37 -6 c-21 -4 -71 -9 -110 -13 l-73 -7 0 90 0 89 103 16 c56 8 105 16 110 17
4 0 7 -41 7 -93z m1086 -144 c-7 -6 -156 -41 -178 -42 -16 0 -18 12 -18 109
l0 109 73 22 c39 11 83 25 97 29 l25 8 3 -115 c1 -63 0 -117 -2 -120z m-3733
193 l72 -23 3 -112 c2 -103 1 -111 -15 -106 -10 2 -55 13 -100 22 l-83 17 0
119 0 118 25 -6 c14 -3 58 -17 98 -29z m4657 -179 c0 -217 7 -198 -77 -211
l-43 -7 0 185 0 185 58 20 c31 11 58 21 60 21 1 1 2 -86 2 -193z m-5620 159
l35 -12 3 -181 c2 -150 0 -182 -11 -182 -8 0 -35 3 -61 6 l-46 7 0 194 0 194
23 -7 c12 -4 38 -12 57 -19z m2440 -87 l0 -89 -92 6 c-149 10 -138 2 -138 99
0 45 2 85 4 87 3 2 54 0 115 -5 l111 -9 0 -89z m890 17 l0 -84 -42 -5 c-24 -3
-77 -7 -118 -8 l-75 -3 0 85 0 85 110 10 c61 6 113 9 118 7 4 -2 7 -41 7 -87z
m-590 -25 l0 -90 -47 0 c-27 0 -78 3 -115 7 l-68 6 0 83 0 84 115 0 115 0 0
-90z m290 6 l0 -83 -82 -6 c-46 -4 -98 -7 -115 -7 l-33 0 0 90 0 90 115 0 115
0 0 -84z m1410 -35 l0 -108 -87 -17 c-49 -10 -96 -19 -105 -22 -16 -5 -18 4
-18 99 l0 105 98 25 c53 14 100 26 105 26 4 1 7 -48 7 -108z m-3225 76 l90
-23 3 -102 c2 -78 0 -102 -10 -101 -7 0 -53 8 -103 18 l-90 17 -3 107 c-2 82
0 107 10 107 7 0 54 -11 103 -23z m-1017 -18 l72 -23 0 -163 0 -163 -27 1
c-16 0 -53 6 -83 12 l-55 12 -3 179 c-2 141 0 177 10 173 7 -2 46 -15 86 -28z
m5242 -143 c0 -158 -2 -175 -17 -180 -21 -6 -133 -26 -145 -26 -5 0 -7 75 -6
167 l3 166 65 23 c108 37 100 50 100 -150z m-3935 94 l80 -16 3 -92 c3 -106
11 -100 -107 -81 -123 19 -111 6 -111 119 l0 100 28 -7 c15 -3 63 -14 107 -23z
m2665 -70 c0 -55 -3 -100 -7 -100 -5 0 -48 -7 -98 -15 -49 -8 -96 -15 -102
-15 -10 0 -13 25 -13 93 l0 94 93 20 c140 31 127 39 127 -77z m1040 -80 c0
-88 -1 -160 -3 -160 -2 0 -30 -5 -63 -10 -32 -6 -74 -13 -91 -16 l-33 -5 0
150 0 150 58 16 c31 9 68 20 82 25 51 17 50 20 50 -150z m-4777 128 l87 -23 0
-147 c0 -169 12 -154 -110 -135 l-75 12 -3 158 c-1 86 1 157 5 157 5 0 47 -10
96 -22z m1355 -29 l82 -12 0 -90 0 -89 -32 5 c-18 3 -60 9 -93 12 -101 11 -95
4 -95 107 l0 91 28 -6 c15 -3 64 -11 110 -18z m2102 -68 l0 -89 -32 -5 c-18
-3 -60 -9 -93 -12 -33 -4 -68 -9 -77 -11 -16 -5 -18 4 -18 84 l0 90 73 12 c39
6 77 13 82 15 6 2 22 4 38 4 l27 1 0 -89z m1070 -85 l0 -143 -37 -6 c-21 -3
-66 -9 -101 -13 l-63 -7 3 134 3 133 85 22 c47 12 91 23 98 23 9 1 12 -34 12
-143z m-4265 113 l85 -21 0 -135 c0 -123 -1 -134 -17 -129 -10 2 -45 7 -78 11
-115 13 -105 -2 -105 156 0 118 2 139 15 139 9 0 54 -10 100 -21z m1345 6
c116 -10 110 -4 110 -97 l0 -81 -82 6 c-46 4 -95 7 -110 7 l-28 0 0 91 c0 81
2 90 18 85 9 -2 51 -7 92 -11z m1570 -69 c0 -98 9 -91 -127 -101 l-93 -7 0 85
0 84 93 10 c50 6 100 11 110 11 15 2 17 -8 17 -82z m-1192 35 c21 -1 22 -5 22
-82 l0 -81 -107 7 c-60 4 -111 9 -115 12 -8 4 -11 146 -4 154 3 2 44 1 93 -3
48 -3 98 -7 111 -7z m907 -66 l0 -80 -105 -8 c-58 -4 -111 -5 -117 -2 -9 3
-13 28 -13 79 l0 74 63 6 c106 10 141 13 157 12 12 -1 15 -17 15 -81z m-632
55 l47 0 0 -81 0 -82 -37 7 c-21 3 -73 6 -115 6 l-78 0 0 81 0 82 68 -6 c37
-4 88 -7 115 -7z m337 -70 l0 -80 -99 0 c-55 0 -106 -3 -115 -6 -14 -5 -16 5
-16 74 l0 81 63 4 c34 2 86 4 115 5 l52 2 0 -80z m1665 -178 c-3 -3 -48 -11
-100 -17 l-96 -11 3 120 3 121 95 21 95 20 3 -124 c1 -69 0 -127 -3 -130z
m-3746 227 l91 -21 0 -120 c0 -120 0 -120 -22 -115 -13 3 -58 9 -100 13 l-78
7 0 128 c0 72 4 129 9 129 5 0 50 -9 100 -21z m3491 -143 c0 -132 11 -120
-127 -132 l-83 -7 0 107 c0 58 1 106 3 106 1 1 43 9 92 19 50 10 96 19 103 20
9 1 12 -28 12 -113z m-3219 88 l89 -17 0 -106 0 -107 -102 11 -103 10 -3 113
c-3 130 -15 120 119 96z m284 -47 l80 -12 3 -98 3 -97 -58 5 c-32 3 -82 8
-110 11 l-53 5 0 104 0 105 28 -6 c15 -3 63 -10 107 -17z m2665 -81 l0 -104
-67 -6 c-38 -3 -86 -7 -108 -8 l-40 -3 -3 96 -3 97 93 14 c51 9 101 16 111 17
15 1 17 -10 17 -103z m-2342 38 l43 -5 -3 -86 -3 -86 -85 2 c-137 3 -130 -2
-130 105 l0 93 68 -9 c37 -4 86 -11 110 -14z m2062 -68 l0 -93 -37 -7 c-21 -3
-71 -6 -110 -6 l-73 0 0 85 c0 47 1 85 3 86 2 1 184 25 205 28 9 1 12 -24 12
-93z m-280 -26 l0 -90 -42 0 c-24 0 -73 -3 -110 -7 l-68 -6 0 85 0 86 103 9
c56 6 105 11 110 12 4 0 7 -39 7 -89z m2010 -135 l0 -225 -65 0 -65 0 0 138
c0 77 3 173 6 215 l7 76 51 9 c28 5 54 10 59 11 4 0 7 -100 7 -224z m-5587
198 c4 -2 7 -98 7 -214 l0 -209 -60 0 -60 0 0 221 0 221 53 -7 c28 -4 55 -9
60 -12z m2035 10 l82 -6 0 -85 0 -85 -82 6 c-46 4 -95 7 -110 7 l-28 0 0 85 0
85 28 0 c15 0 64 -3 110 -7z m295 -19 l77 -7 0 -78 0 -79 -38 0 c-22 0 -73 3
-115 6 l-77 7 0 78 0 79 38 0 c22 0 73 -3 115 -6z m967 -73 l0 -79 -109 -7
c-60 -4 -114 -4 -120 0 -6 3 -11 38 -11 80 l0 74 48 4 c26 2 80 4 120 5 l72 2
0 -79z m-3102 52 l42 -6 0 -193 0 -194 -85 0 -85 0 0 206 0 207 43 -7 c23 -4
61 -10 85 -13z m2475 11 l37 -7 0 -73 0 -74 -115 0 -115 0 0 80 0 80 78 0 c42
0 94 -3 115 -6z m327 -74 l0 -80 -115 0 -115 0 0 74 c0 50 4 76 13 79 6 3 58
6 115 6 l102 1 0 -80z m2410 -125 l0 -205 -90 0 -90 0 0 118 c0 66 3 153 6
195 l7 76 51 9 c28 5 66 10 84 11 l32 1 0 -205z m-230 -21 l0 -184 -101 0
-101 0 4 169 c2 94 6 173 10 176 8 8 170 33 181 28 4 -2 7 -87 7 -189z m-4767
174 l77 -11 0 -174 0 -173 -95 0 -95 0 0 185 c0 212 -13 192 113 173z m335
-47 c1 -1 2 -71 2 -156 l0 -155 -100 0 -100 0 0 163 c0 90 2 166 5 168 3 4
173 -14 193 -20z m4182 -141 l0 -170 -100 0 -100 0 0 159 0 158 83 10 c45 6
90 11 100 12 16 1 17 -13 17 -169z m-260 -15 l0 -155 -105 0 -105 0 0 134 c0
97 4 137 13 143 6 4 50 13 97 19 47 6 88 12 93 13 4 0 7 -69 7 -154z m-3682
128 c21 -5 22 -8 22 -144 l0 -139 -100 0 -100 0 0 151 0 151 78 -7 c42 -3 87
-9 100 -12z m3422 -143 l0 -140 -105 0 -105 0 0 129 0 128 98 10 c53 5 100 11
105 11 4 1 7 -61 7 -138z m-3147 114 c15 -5 17 -20 17 -130 l0 -124 -105 0
-105 0 0 136 0 136 88 -6 c48 -4 95 -10 105 -12z m230 -19 l67 -7 0 -114 0
-114 -110 0 -110 0 0 126 0 125 43 -5 c23 -3 72 -8 110 -11z m2647 -110 l0
-125 -110 0 -110 0 0 115 0 114 33 6 c17 3 55 6 82 8 28 2 62 4 78 5 l27 2 0
-125z m-2307 86 c4 -1 7 -48 7 -106 l0 -105 -110 0 -110 0 0 113 0 112 102 -6
c57 -4 106 -7 111 -8z m2027 -96 l0 -115 -110 0 -110 0 0 105 c0 121 -8 113
115 118 39 2 78 4 88 5 15 2 17 -9 17 -113z m-1782 85 l42 0 0 -100 0 -100
-110 0 -110 0 0 106 0 107 68 -6 c37 -4 86 -7 110 -7z m1502 -95 l0 -105 -110
0 -110 0 0 100 0 99 58 4 c31 2 81 4 110 5 l52 2 0 -105z m-1242 85 l72 0 0
-95 0 -95 -115 0 -115 0 0 93 c0 52 3 97 8 101 4 4 23 5 42 2 19 -3 68 -6 108
-6z m960 -93 l3 -98 -118 3 -118 3 -3 92 -3 92 83 4 c46 2 99 3 118 3 l35 -1
3 -98z m-588 -2 l0 -95 -115 0 -115 0 0 95 0 95 115 0 115 0 0 -95z m290 0 l0
-95 -115 0 -115 0 0 95 0 95 115 0 115 0 0 -95z m-3018 -367 c-2 -117 -5 -214
-6 -215 -1 -1 -21 -5 -44 -9 l-42 -7 0 222 0 221 48 0 47 0 -3 -212z m1298 87
c0 -142 11 -128 -107 -140 l-63 -6 0 136 0 135 85 0 85 0 0 -125z m280 11 l0
-114 -67 -7 c-38 -3 -87 -8 -110 -11 l-43 -5 0 125 0 126 110 0 110 0 0 -114z
m280 10 l0 -105 -42 -5 c-24 -3 -73 -7 -110 -9 l-68 -3 0 113 0 113 110 0 110
0 0 -104z m280 4 l0 -100 -42 0 c-24 0 -73 -3 -110 -7 l-68 -6 0 107 0 106
110 0 110 0 0 -100z m290 7 l0 -94 -107 -6 c-58 -3 -110 -4 -115 -1 -4 3 -8
48 -8 100 l0 94 115 0 115 0 0 -93z m300 -2 l0 -95 -115 0 -115 0 0 95 0 95
115 0 115 0 0 -95z m290 0 l0 -95 -115 0 -115 0 0 95 0 95 115 0 115 0 0 -95z
m300 1 c0 -52 -4 -97 -9 -101 -6 -3 -60 -2 -120 1 l-111 7 0 94 0 93 120 0
120 0 0 -94z m280 -12 l0 -107 -82 6 c-46 4 -95 7 -110 7 l-28 0 0 100 0 100
110 0 110 0 0 -106z m280 -8 l0 -114 -87 5 c-145 7 -133 -3 -133 118 l0 105
110 0 110 0 0 -114z m280 -11 l0 -126 -77 6 c-43 3 -93 8 -110 11 l-33 5 0
114 0 115 110 0 110 0 0 -125z m250 -11 l0 -137 -67 6 c-38 4 -80 7 -95 7
l-28 0 0 130 0 130 95 0 95 0 0 -136z m1200 -90 c0 -202 -2 -225 -16 -220 -9
3 -24 6 -35 6 -18 0 -19 10 -19 220 l0 220 35 0 35 0 0 -226z m-4929 76 c157
-49 259 -190 259 -355 0 -341 -418 -502 -649 -250 -67 74 -94 146 -94 250 0
101 27 175 90 245 104 116 248 156 394 110z m4454 -19 c132 -65 208 -188 208
-336 0 -104 -27 -176 -94 -250 -231 -252 -649 -92 -649 250 0 79 20 144 64
211 101 151 306 206 471 125z m-2705 -161 l0 -80 -32 0 c-18 0 -70 -3 -115 -7
l-83 -6 0 81 0 81 43 4 c23 2 75 4 115 5 l72 2 0 -80z m300 6 l0 -73 -82 -6
c-46 -4 -98 -7 -115 -7 l-33 0 0 80 0 80 115 0 115 0 0 -74z m290 -6 l0 -80
-54 0 c-29 0 -81 3 -115 6 l-61 7 0 73 0 74 115 0 115 0 0 -80z m223 74 l77
-7 0 -78 0 -79 -37 0 c-21 0 -75 3 -120 7 l-83 6 0 72 c0 39 3 75 7 78 8 9 59
9 156 1z m-1103 -89 l0 -85 -33 0 c-19 0 -68 -3 -110 -6 l-77 -7 0 86 0 86 48
4 c26 2 75 4 110 5 l62 2 0 -85z m1378 78 l82 -6 0 -86 0 -86 -110 9 -110 9 0
83 0 84 28 0 c15 0 64 -3 110 -7z m-1658 -92 l0 -88 -37 -6 c-21 -4 -71 -9
-110 -13 l-73 -7 0 91 c0 106 -6 100 115 105 39 2 78 4 88 5 15 2 17 -8 17
-87z m1989 73 l31 -6 0 -95 0 -95 -27 6 c-16 3 -53 8 -83 11 -119 13 -110 5
-110 101 l0 84 79 0 c43 0 93 -3 110 -6z m-2271 -101 l-3 -97 -107 -17 -108
-16 0 103 0 103 43 5 c23 4 62 8 87 9 25 2 55 4 68 5 22 2 23 1 20 -95z m2515
81 l67 -6 0 -105 0 -105 -27 5 c-16 3 -65 11 -110 18 l-83 12 0 99 0 98 43 -5
c23 -3 72 -7 110 -11z m-2793 -113 l0 -109 -67 -11 c-38 -7 -76 -14 -85 -17
-16 -5 -18 5 -18 110 l0 115 58 6 c51 5 81 9 105 14 4 0 7 -48 7 -108z m3043
92 l67 -6 0 -117 0 -117 -92 18 c-51 10 -94 19 -95 19 -2 0 -3 47 -3 105 l0
105 28 0 c15 0 57 -3 95 -7z m-1613 -213 l0 -80 -69 0 c-37 0 -89 -3 -115 -6
l-46 -7 0 81 0 81 63 4 c34 2 86 4 115 5 l52 2 0 -80z m236 70 l54 0 0 -81 0
-82 -67 6 c-38 4 -89 7 -115 7 l-48 0 0 81 0 82 61 -7 c34 -3 86 -6 115 -6z
m-536 -79 l0 -78 -61 -7 c-34 -3 -86 -6 -115 -6 l-54 0 0 80 0 79 58 4 c31 2
83 4 115 5 l57 2 0 -79z m883 59 c4 -4 7 -40 5 -81 l-3 -74 -40 2 c-22 1 -75
5 -117 8 l-78 7 0 72 c0 40 3 76 7 80 10 9 215 -3 226 -14z m-3313 -184 l0
-184 -40 -16 c-22 -9 -43 -16 -45 -16 -3 0 -5 87 -5 194 l0 195 33 4 c17 2 38
5 45 5 9 2 12 -41 12 -182z m2140 105 c0 -91 9 -84 -120 -96 -36 -4 -73 -9
-82 -11 -16 -5 -18 4 -18 85 l0 90 53 4 c28 2 78 4 110 5 l57 2 0 -79z m1443
63 c14 -5 17 -18 17 -90 l0 -85 -42 6 c-24 3 -72 9 -108 13 l-65 7 -3 84 -3
84 93 -7 c51 -4 101 -9 111 -12z m2011 0 c14 -5 16 -32 16 -199 l0 -193 -35
11 -35 10 0 189 c0 179 1 188 19 188 11 0 26 -3 35 -6z m-3734 -92 l0 -89 -87
-12 c-49 -7 -98 -15 -111 -18 -23 -5 -23 -5 -20 88 l3 94 90 11 c50 6 98 12
108 13 15 1 17 -9 17 -87z m1905 73 c123 -11 115 -4 115 -106 0 -55 -4 -89
-10 -89 -6 0 -56 7 -110 17 l-100 16 0 89 c0 80 2 89 18 84 9 -2 49 -7 87 -11z
m-2185 -115 c0 -85 -1 -90 -22 -95 -13 -3 -62 -13 -110 -24 l-88 -19 0 99 c0
94 1 99 23 104 40 9 131 23 165 24 l32 1 0 -90z m2518 68 l62 -10 0 -100 c0
-92 -2 -100 -18 -96 -10 3 -60 13 -110 24 l-92 18 0 94 0 94 48 -6 c26 -4 75
-12 110 -18z m-2798 -118 l0 -99 -42 -11 c-24 -6 -59 -15 -78 -21 -19 -5 -38
-9 -42 -9 -5 0 -8 47 -8 105 0 117 -11 103 90 124 85 17 80 23 80 -89z m3035
77 l70 -12 3 -108 c1 -59 -1 -107 -5 -107 -4 0 -47 10 -95 22 l-88 23 0 103
c0 101 0 102 23 97 12 -3 54 -11 92 -18z m-1605 -157 l0 -90 -115 0 -115 0 0
84 0 85 33 4 c17 2 69 5 115 5 l82 2 0 -90z m223 83 l67 -6 0 -83 0 -84 -115
0 -115 0 0 90 0 90 48 0 c26 0 77 -3 115 -7z m-523 -91 l0 -89 -111 -9 c-79
-6 -113 -6 -116 2 -2 6 -3 46 -1 90 l3 79 75 6 c41 3 92 6 113 7 l37 2 0 -88z
m858 72 l32 -5 0 -83 c0 -45 -2 -85 -4 -87 -3 -2 -56 0 -118 6 l-113 10 -3 74
c-2 41 -1 80 2 88 4 11 23 12 88 8 46 -3 98 -8 116 -11z m-1150 -96 l-3 -92
-107 -16 -108 -16 0 93 c0 51 1 93 3 94 3 1 186 26 205 28 10 1 12 -21 10 -91z
m1455 62 c4 0 7 -42 7 -93 l0 -93 -107 16 -108 16 -3 90 -3 91 103 -13 c57 -7
106 -13 111 -14z m-1733 -103 l0 -94 -103 -21 c-57 -12 -107 -22 -110 -22 -4
0 -7 45 -7 99 l0 99 73 12 c39 6 77 13 82 15 6 2 22 4 38 4 l27 1 0 -93z
m1938 72 l82 -12 0 -99 c0 -54 -3 -98 -7 -98 -3 0 -53 10 -110 22 l-103 21 0
95 0 95 28 -6 c15 -3 64 -11 110 -18z m-2218 -127 l0 -99 -107 -30 -108 -30
-3 105 c-1 58 0 107 3 110 7 8 155 40 188 41 l27 1 0 -98z m2480 77 l100 -22
0 -108 0 -108 -67 20 c-38 11 -87 24 -110 30 l-43 11 0 99 c0 57 4 99 10 99 5
0 54 -10 110 -21z m-2760 -142 l0 -113 -72 -23 c-40 -13 -79 -26 -85 -28 -10
-4 -13 23 -13 114 l0 119 83 21 c45 11 83 21 85 22 1 1 2 -50 2 -112z m3043
75 l62 -17 3 -117 3 -116 -96 31 -95 31 0 109 0 109 30 -7 c17 -4 58 -14 93
-23z m-4343 -200 l0 -168 -45 -22 -45 -22 0 173 0 173 43 16 c23 8 43 16 45
17 1 0 2 -75 2 -167z m5579 137 l31 -11 0 -174 0 -174 -35 17 -35 17 0 168 c0
92 2 168 4 168 1 0 17 -5 35 -11z m-4857 -151 c79 -36 142 -98 181 -177 30
-61 32 -73 32 -166 0 -90 -3 -105 -29 -157 -160 -317 -614 -270 -702 72 -46
181 58 374 238 441 77 28 202 23 280 -13z m4408 -1 c235 -112 289 -419 105
-602 -183 -184 -487 -131 -603 105 -24 49 -27 66 -27 155 0 87 3 107 26 156
47 99 128 171 232 205 69 22 200 13 267 -19z m-5130 -410 l0 -194 -45 -32 -45
-32 0 203 0 204 43 21 c23 12 43 22 45 22 1 1 2 -86 2 -192z m5610 -59 l0
-198 -35 22 -35 23 0 192 0 193 35 -17 35 -17 0 -198z"/>
<path d="M697 1719 c-90 -48 -123 -179 -65 -266 75 -114 246 -108 319 11 23
38 26 134 5 174 -19 36 -65 78 -99 91 -44 17 -118 12 -160 -10z"/>
<path d="M5120 1729 c-32 -13 -78 -56 -96 -91 -18 -35 -18 -131 0 -167 52 -99
180 -131 276 -68 108 72 103 237 -8 308 -49 31 -120 38 -172 18z"/>
<path d="M705 784 c-100 -52 -135 -179 -75 -268 100 -145 324 -93 338 79 2 30
2 65 -2 79 -8 32 -61 93 -97 112 -37 19 -126 18 -164 -2z"/>
<path d="M5095 776 c-61 -37 -88 -93 -83 -171 3 -50 10 -70 32 -100 50 -66
146 -92 219 -61 39 17 92 71 106 109 27 72 -1 165 -64 213 -31 23 -49 29 -104
32 -56 2 -72 -1 -106 -22z"/>
<path d="M2750 960 c-766 -37 -1290 -239 -1221 -471 53 -176 407 -311 984
-376 212 -24 722 -24 934 0 476 53 803 155 927 287 87 93 85 175 -7 265 -161
157 -602 267 -1184 295 -214 10 -204 10 -433 0z m450 -60 c498 -24 884 -109
1075 -235 161 -107 130 -217 -89 -321 -543 -257 -1868 -257 -2411 0 -222 105
-252 213 -89 321 184 123 586 212 1048 234 236 12 243 12 466 1z"/>
<path d="M2649 839 c-344 -23 -678 -95 -814 -175 -61 -35 -105 -88 -105 -124
0 -41 55 -99 126 -134 430 -211 1551 -236 2117 -49 307 102 329 241 56 348
-284 112 -871 169 -1380 134z m714 -85 c222 -27 396 -80 460 -141 92 -88 -56
-182 -368 -233 -510 -84 -1218 -12 -1334 136 -26 34 -26 54 0 88 59 75 312
143 617 166 158 12 463 4 625 -16z"/>
</g>
</svg>
