<?xml version="1.0" encoding="utf-8"?>
<!DOCTYPE svg PUBLIC "-//W3C//DTD SVG 1.1//EN" "http://www.w3.org/Graphics/SVG/1.1/DTD/svg11.dtd" [
	<!ENTITY ns_extend "http://ns.adobe.com/Extensibility/1.0/">
	<!ENTITY ns_ai "http://ns.adobe.com/AdobeIllustrator/10.0/">
	<!ENTITY ns_graphs "http://ns.adobe.com/Graphs/1.0/">
	<!ENTITY ns_vars "http://ns.adobe.com/Variables/1.0/">
	<!ENTITY ns_imrep "http://ns.adobe.com/ImageReplacement/1.0/">
	<!ENTITY ns_sfw "http://ns.adobe.com/SaveForWeb/1.0/">
	<!ENTITY ns_custom "http://ns.adobe.com/GenericCustomNamespace/1.0/">
	<!ENTITY ns_adobe_xpath "http://ns.adobe.com/XPath/1.0/">
]>
<svg version="1.1" id="Ebene_1" xmlns:x="&ns_extend;" xmlns:i="&ns_ai;" xmlns:graph="&ns_graphs;"
	 xmlns="http://www.w3.org/2000/svg" xmlns:xlink="http://www.w3.org/1999/xlink" x="0px" y="0px" width="172px" height="41px"
	 viewBox="0 0 172 41" enable-background="new 0 0 172 41" xml:space="preserve">
<metadata>
	<sfw  xmlns="&ns_sfw;">
		<slices></slices>
		<sliceSourceBounds  y="-166.063" x="334.646" width="172" height="40.542" bottomLeftOrigin="true"></sliceSourceBounds>
	</sfw>
</metadata>
<g>
	<g>
		<path fill="#ffffff" d="M30.13,39.314L30.13,39.314L30.13,39.314L28.795,3.233c-0.063-1.76-1.507-3.153-3.268-3.153H4.603
			c-1.76,0-3.205,1.394-3.267,3.153L0,39.314l0,0l0,0l0,0l0,0c0,0.723,0.586,1.308,1.308,1.308c0.001,0,0.001,0,0.002,0h3.919
			c0.001,0,0.001,0,0.002,0c0.723,0,1.308-0.585,1.308-1.308h0.004l0.583-15.693h15.878l0.583,15.693h0.004
			c0,0.723,0.586,1.308,1.308,1.308c0.001,0,0.001,0,0.002,0h3.918c0.001,0,0.001,0,0.002,0
			C29.545,40.622,30.13,40.037,30.13,39.314L30.13,39.314L30.13,39.314z M7.369,17.082L7.758,6.619h14.615l0.389,10.463H7.369z"/>
		<path fill="#ffffff" d="M172,34.083h-6.013l0.131,3.395c0.067,1.756,1.51,3.145,3.267,3.145H172V34.083z"/>
	</g>
	<path fill="#ffffff" d="M161.537,6.62L161.537,6.62c0.724-0.001,1.309-0.586,1.309-1.309c0-0.001-0.001-0.002-0.001-0.003V1.391
		c0-0.001,0.001-0.002,0.001-0.003c0-0.723-0.585-1.308-1.309-1.308c-0.002,0-0.004,0-0.006,0h-20.918
		c-1.806,0-3.27,1.464-3.27,3.27v30.733h-20.437l-0.001-4.235l16.681-14.399c0.725-0.621,1.142-1.527,1.142-2.482V3.35
		c0-0.867-0.345-1.698-0.957-2.312c-0.613-0.613-1.445-0.958-2.312-0.958h-19.61c-0.003,0-0.005,0-0.007,0
		c-0.723,0-1.308,0.585-1.308,1.308c0,0.001,0,0.002,0,0.003v3.918c0,0.001,0,0.002,0,0.003c0,0.723,0.585,1.308,1.308,1.308l0,0
		V6.62h16.348V11l-17.167,14.715c-0.725,0.622-1.143,1.528-1.142,2.483v5.885h-2.739l-1.188-30.858
		c-0.067-1.756-1.51-3.145-3.267-3.145H81.763c-1.757,0-3.2,1.389-3.267,3.145l-1.187,30.858h-2.862L73.26,3.225
		c-0.067-1.756-1.51-3.145-3.267-3.145h-9.155c-1.742,0-3.178,1.366-3.265,3.106l-1.153,23.05h-2.934l-1.152-23.05
		c-0.087-1.74-1.523-3.106-3.266-3.106h-9.154c-1.761,0-3.205,1.394-3.268,3.153l-1.335,36.081l0,0c0,0.723,0.586,1.308,1.308,1.308
		c0.001,0,0.001,0,0.002,0h3.919c0.001,0,0.001,0,0.002,0c0.723,0,1.308-0.585,1.308-1.308h0.004l1.214-32.695h2.89l1.152,23.05
		c0.087,1.74,1.523,3.105,3.265,3.105h9.155c1.742,0,3.178-1.365,3.265-3.105l1.153-23.05h2.898l1.187,30.858
		c0.067,1.756,1.51,3.145,3.267,3.145h9.154c1.757,0,3.2-1.389,3.267-3.145l0.533-13.856h15.94l0.533,13.856
		c0.067,1.756,1.51,3.145,3.267,3.145h2.949c1.638-0.006,3-1.217,3.227-2.806c0.226,1.591,1.59,2.803,3.23,2.806h3.019l0,0h20.924
		l0,0h6.539h17.654l0,0c0.724,0,1.308-0.586,1.308-1.308c0-0.001,0-0.002,0-0.003v-3.918c0-0.001,0-0.002,0-0.003
		c0-0.723-0.585-1.309-1.308-1.309c-0.001,0-0.003,0.001-0.004,0.001h-17.65V23.159h15.037c0.001,0,0.002,0,0.002,0
		c0.723,0,1.309-0.585,1.309-1.308c0-0.001,0-0.002,0-0.003v-3.918c0-0.001,0-0.002,0-0.002c0-0.723-0.586-1.309-1.309-1.309
		c0,0-0.001,0-0.002,0h-15.037V6.619L161.537,6.62z M84.506,17.082l0.402-10.463h14.632l0.402,10.463H84.506z"/>
</g>
</svg>
