<svg id="Calque_1" data-name="Calque 1" xmlns="http://www.w3.org/2000/svg" viewBox="0 0 3253.62 1097.53"><defs><style>.cls-1{fill:#fff;}.cls-2{fill:#d1d1d1;}</style></defs><title>patchXR-SOUNDmetaverse-grey</title><path class="cls-1" d="M2595.87,1344.63H2741c2.64,0,2.64,0,2.64-2.64V1045.67c0-.88,0-0.88.88-0.88h135.4c0.88,0,.88,0,0.88.88V1342c0,2.64,0,2.64,2.64,2.64h145.09c2.64,0,2.64,0,2.64-2.64V1043c0-94.08-38.7-138-139.83-138h-43.08c-72.09,0-102,41.32-103.75,105.51V731.76c0-2.64,0-2.64-2.64-2.64h-146c-2.64,0-2.64,0-2.64,2.64V1342c0,2.64,0,2.64,2.64,2.64m-292.52,0H2539c1.76,0,1.76,0,1.76-2.64V1213.61c0-2.62,0-2.62-1.76-2.62H2315.66c-0.88,0-.88,0-0.88-0.88v-170.6c0-.88,0-0.88.88-0.88H2539c1.76,0,1.76,0,1.76-2.62V907.63c0-2.64,0-2.64-1.76-2.64H2303.35c-103.77,0-139.8,43.08-139.8,136.28v166.2c0,94.08,35.16,137.16,139.8,137.16m-313.63,0h124.86c1.76,0,2.64,0,2.64-2.64V1216.25c0-2.64-.88-2.64-2.64-2.64H2028.4c-0.88,0-.88,0-0.88-0.88V1036.89h87.06c1.76,0,1.76,0,1.76-2.64V907.63c0-2.64,0-2.64-1.76-2.64h-87.06V781c0-2.64,0-2.64-2.64-2.64H1878.93c-2.64,0-2.64,0-2.64,2.64V905h-82.66c-2.64,0-2.64,0-2.64,2.64v126.62c0,2.64,0,2.64,2.64,2.64h82.66v188.17c0,76.5,31.65,119.58,113.43,119.58m-547.1-119.58c-0.88,0-.88,0-0.88-0.88v-47.48c0-.88,0-0.88.88-0.88H1593c0.88,0,.88,0,0.88.88v47.48c0,0.88,0,.88-0.88.88H1442.62ZM1433,1347.27h40.44c80.9,0,117.84-29.89,119.6-87.92V1342c0,2.64,0,2.64,2.64,2.64h145.95c2.64,0,2.64,0,2.64-2.64V1035.13c0-87.94-40.44-130.14-142.45-130.14H1308.09c-2.64,0-2.64,0-2.64,2.64V1027.2c0,2.64,0,2.64,2.64,2.64h284c0.88,0,.88,0,0.88.88v67.71c-11.43-25.51-33.42-29.89-92.32-29.89h-79.14c-98.49,0-125.74,44-125.74,116.05V1240c0,77.38,38.68,107.27,137.16,107.27M937.73,1040.39H1088.1c0.88,0,.88,0,0.88.88v165.32c0,0.88,0,.88-0.88.88H937.73c-0.88,0-.88,0-0.88-0.88V1041.27c0-.88,0-0.88.88-0.88M785.62,904.1c-1.76,0-2.64,0-2.64,2.64V1517c0,2.64.88,2.64,2.64,2.64H935.11c1.74,0,1.74,0,1.74-2.64V1241.76c4.4,67.69,38.7,102,111.67,102h39.58c108.15,0,150.35-37.8,150.35-137.16V1043c0-94.08-25.49-142.45-136.28-142.45h-53.65c-76.5,0-109,37.82-111.67,105.53V906.75c0-2.64,0-2.64-1.74-2.64H785.62Z" transform="translate(-782.98 -729.12)"/><path class="cls-1" d="M3453.2,929.43h104.64l-156.06,192.69L3567,1323h-111.4l-109.82-139.64L3231,1323H3126.17l162-201-159.86-192.5H3234l111.78,134.82ZM3443,908.24l-97.54,122.32L3242.73,908.24l-159.12.57,177.16,213.36-178.55,221.44,158.76,0.57,104.42-127,101.08,127H3611L3429.21,1122l173-213.77H3443Z" transform="translate(-782.98 -729.12)"/><path class="cls-1" d="M3727,1086.57h179.62v-59.36H3727v59.36Zm-21.24,21.22V1006l222.37,0-0.26,101.65ZM3927.82,1323h86V1220.41c0-69.25-85.76-65.43-85.76-65.43v-21c81.75,0,85.76-37.11,85.76-65v-59.48c0-58.33-21.36-80-78.85-80H3620.31V1323h85.4V1184.32h222.11V1323Zm-318.12,8.84h0Zm296.88,12.38V1205.54H3727v138.64H3599.07l1.41-435.95H3935c69.23,0,100.1,31.21,100.1,101.24v61c0,36.85-14.55,61.41-44.23,74.22,25.42,10.59,44.23,32.26,44.23,75.68l0.86,123.78H3906.58Z" transform="translate(-782.98 -729.12)"/><path class="cls-2" d="M783.65,1825.88v-35.51c0-.67,0-0.67.67-0.67H885.26c0.22,0,.22,0,0.22-0.22V1766.7c0-.22,0-0.22-0.22-0.22H816.7c-24.56,0-33.72-10.72-33.72-34.17v-27.47c0-23.45,9.6-34.61,34.61-34.61H924.11c0.67,0,.67,0,0.67.67v35.51c0,0.67,0,.67-0.67.67H823.62c-0.22,0-.22,0-0.22.22v22.11c0,0.22,0,.22.22,0.22H892.4c24.34,0,33.5,10.5,33.5,34.17v28.58c0,23.45-9.16,34.17-33.5,34.17H784.32c-0.67,0-.67,0-0.67-0.67" transform="translate(-782.98 -729.12)"/><path class="cls-2" d="M940.42,1792.38v-88c0-23.45,9.16-34.17,33.72-34.17h90.22c24.56,0,33.5,10.72,33.5,34.17v88c0,23.45-9.16,34.17-33.72,34.17h-90c-24.56,0-33.72-10.72-33.72-34.17m117-2.68c0.22,0,.22,0,0.22-0.22V1707.3c0-.22,0-0.22-0.22-0.22H981.06c-0.22,0-.22,0-0.22.22v82.18c0,0.22,0,.22.22,0.22h76.37Z" transform="translate(-782.98 -729.12)"/><path class="cls-2" d="M1114.6,1792.38V1670.9c0-.67,0-0.67.67-0.67h38.86c0.67,0,.67,0,0.67.67v118.58c0,0.22,0,.22.22,0.22h65.43c0.22,0,.22,0,0.22-0.22V1670.9c0-.67,0-0.67.67-0.67h39.08c0.67,0,.67,0,0.67.67v121.48c0,23.45-8.93,34.17-33.5,34.17h-79.5c-24.56,0-33.5-10.72-33.5-34.17" transform="translate(-782.98 -729.12)"/><path class="cls-2" d="M1280.07,1670.9c0-.45,0-0.45.67-0.45h40c0.67,0,.67-0.22.89,0l74.14,95.8V1670.9c0-.67.22-0.67,0.67-0.67h39.08c0.45,0,.67,0,0.67.67v155c0,0.67-.22.67-0.67,0.67h-39.75a1.19,1.19,0,0,1-.89,0l-74.59-94.24v93.57c0,0.67,0,.67-0.67.67h-38.86c-0.67,0-.67,0-0.67-0.67v-155Z" transform="translate(-782.98 -729.12)"/><path class="cls-2" d="M1456.26,1826.33V1670.45c0-.22,0-0.22.22-0.22h99.6c33.05,0,47.57,13.62,47.57,44.44v67.44c0,29.48-14.29,44.44-47.34,44.44h-99.82c-0.22,0-.22,0-0.22-0.22M1563,1789.7c0.22,0,.22,0,0.22-0.22V1707.3c0-.22,0-0.22-0.22-0.22h-66.55v82.63H1563Z" transform="translate(-782.98 -729.12)"/><path class="cls-2" d="M1676.21,1792.38v-88c0-23.45,9.16-34.17,33.72-34.17h90.22c24.56,0,33.5,10.72,33.5,34.17v88c0,23.45-9.16,34.17-33.72,34.17h-90c-24.56,0-33.72-10.72-33.72-34.17m117-2.68c0.22,0,.22,0,0.22-0.22V1707.3c0-.22,0-0.22-0.22-0.22h-76.37c-0.22,0-.22,0-0.22.22v82.18c0,0.22,0,.22.22,0.22h76.37Z" transform="translate(-782.98 -729.12)"/><path class="cls-2" d="M1851.51,1825.88v-155c0-.67.22-0.67,0.67-0.67h128.63c0.67,0,.67,0,0.67.67v35.73c0,0.45,0,.45-0.67.45h-88.88v24.34h88c0.67,0,.67,0,0.67.67v35.51c0,0.67,0,.67-0.67.67h-88v57.61c0,0.67,0,.67-0.67.67h-39.08c-0.45,0-.67,0-0.67-0.67" transform="translate(-782.98 -729.12)"/><path class="cls-2" d="M2045.12,1670.9c0-.67,0-0.67.67-0.67H2196.3c0.45,0,.45,0,0.45.67v35.73c0,0.45,0,.45-0.45.45h-55.38v118.8c0,0.67-.22.67-0.67,0.67h-39.08c-0.45,0-.67,0-0.67-0.67v-118.8h-54.71c-0.67,0-.67,0-0.67-0.45V1670.9Z" transform="translate(-782.98 -729.12)"/><path class="cls-2" d="M2207.91,1825.88v-155c0-.67,0-0.67.67-0.67h38.86c0.67,0,.67,0,0.67.67V1731h70.34V1670.9c0-.67,0-0.67.67-0.67h39.08c0.45,0,.67,0,0.67.67v155c0,0.67-.22.67-0.67,0.67h-39.08c-0.67,0-.67,0-0.67-0.67V1768h-70.34v57.84c0,0.67,0,.67-0.67.67h-38.86c-0.67,0-.67,0-0.67-0.67" transform="translate(-782.98 -729.12)"/><path class="cls-2" d="M2379,1825.88v-155c0.22-.67.22-0.67,0.89-0.67h134.43c0.45,0,.45,0,0.45.67v35.73c0,0.45,0,.45-0.45.45h-94.91v22.78h92.9c0.67,0,.67.22,0.67,0.67v35.73c0,0.45,0,.67-0.67.67h-92.9v22.78h95.36c0.45,0,.67,0,0.67.45v35.73c0,0.67-.22.67-0.67,0.67h-135.1c-0.45,0-.45,0-0.67-0.67" transform="translate(-782.98 -729.12)"/><path class="cls-2" d="M2589.1,1825.88v-155.2c0-.45,0-0.45.45-0.45H2651a0.63,0.63,0,0,1,.67.22l43.1,104.51,42-104.51a0.63,0.63,0,0,1,.67-0.22H2799c0.45,0,.45,0,0.45.45v155.2c0,0.67,0,.67-0.67.67h-38.86c-0.67,0-.89,0-0.89-0.67V1721.82h-0.89l-43.32,104.73h-40l-44.66-104.73h-0.89v104.06c0,0.67,0,.67-0.67.67h-38.86c-0.67,0-.67,0-0.67-0.67" transform="translate(-782.98 -729.12)"/><path class="cls-2" d="M2819.56,1825.88v-155c0.22-.67.22-0.67,0.89-0.67h134.43c0.45,0,.45,0,0.45.67v35.73c0,0.45,0,.45-0.45.45H2860v22.78h92.9c0.67,0,.67.22,0.67,0.67v35.73c0,0.45,0,.67-0.67.67H2860v22.78h95.36c0.45,0,.67,0,0.67.45v35.73c0,0.67-.22.67-0.67,0.67h-135.1c-0.45,0-.45,0-0.67-0.67" transform="translate(-782.98 -729.12)"/><path class="cls-2" d="M2962.7,1670.9c0-.67,0-0.67.67-0.67h150.51c0.45,0,.45,0,0.45.67v35.73c0,0.45,0,.45-0.45.45H3058.5v118.8c0,0.67-.22.67-0.67,0.67h-39.08c-0.45,0-.67,0-0.67-0.67v-118.8h-54.71c-0.67,0-.67,0-0.67-0.45V1670.9Z" transform="translate(-782.98 -729.12)"/><path class="cls-2" d="M3268,1826.55h-44.21c-0.22,0-.45.22-0.45,0l-9.6-25H3140l-9.38,25c0,0.22-.45,0-0.67,0h-43.77a2.25,2.25,0,0,1-.67-0.22l63-155.87a0.45,0.45,0,0,1,.45-0.22h55.38a0.82,0.82,0,0,1,.67.22l63.87,155.65c0.22,0.22-.22.45-0.89,0.45m-68.33-61.86-22.11-57.84h-2.46l-21.44,57.84h46Z" transform="translate(-782.98 -729.12)"/><path class="cls-2" d="M3299.23,1826.1l-65.43-155.43c0-.22.22-0.45,0.89-0.45h42.65a0.76,0.76,0,0,1,.89.45L3322,1776.75l40.2-106.07c0-.45.22-0.45,0.89-0.45h42.43a1.56,1.56,0,0,1,.89.45l-61.19,155.43a0.63,0.63,0,0,1-.67.45H3299.9a0.63,0.63,0,0,1-.67-0.45" transform="translate(-782.98 -729.12)"/><path class="cls-2" d="M3417.58,1825.88v-155c0.22-.67.22-0.67,0.89-0.67h134.43c0.45,0,.45,0,0.45.67v35.73c0,0.45,0,.45-0.45.45H3458v22.78h92.9c0.67,0,.67.22,0.67,0.67v35.73c0,0.45,0,.67-0.67.67H3458v22.78h95.36c0.45,0,.67,0,0.67.45v35.73c0,0.67-.22.67-0.67,0.67h-135.1c-0.45,0-.45,0-0.67-0.67" transform="translate(-782.98 -729.12)"/><path class="cls-2" d="M3569.66,1825.88v-155c0-.67,0-0.67.67-0.67h121.93c24.56,0,33.72,10.72,33.72,34.17v23c0,18.76-10.94,27.91-36.18,27.91v0.45c25.23,0,36.18,7.82,36.18,28.14v42c0,0.67,0,.67-0.67.67h-39.08c-0.67,0-.67,0-0.67-0.67v-51.36c0-.22,0-0.22-0.22-0.22h-75.48v51.59c0,0.67,0,.67-0.67.67h-38.86c-0.67,0-.67,0-0.67-0.67m115.67-88.43c0.22,0,.22,0,0.22-0.22V1707.3c0-.22,0-0.22-0.22-0.22h-75.48v30.37h75.48Z" transform="translate(-782.98 -729.12)"/><path class="cls-2" d="M3741.16,1825.88v-35.51c0-.67,0-0.67.67-0.67h100.94c0.22,0,.22,0,0.22-0.22V1766.7c0-.22,0-0.22-0.22-0.22h-68.56c-24.56,0-33.72-10.72-33.72-34.17v-27.47c0-23.45,9.6-34.61,34.61-34.61h106.52c0.67,0,.67,0,0.67.67v35.51c0,0.67,0,.67-0.67.67H3781.13c-0.22,0-.22,0-0.22.22v22.11c0,0.22,0,.22.22,0.22h68.78c24.34,0,33.5,10.5,33.5,34.17v28.58c0,23.45-9.16,34.17-33.5,34.17H3741.83c-0.67,0-.67,0-0.67-0.67" transform="translate(-782.98 -729.12)"/><path class="cls-2" d="M3900.16,1825.88v-155c0.22-.67.22-0.67,0.89-0.67h134.43c0.45,0,.45,0,0.45.67v35.73c0,0.45,0,.45-0.45.45h-94.91v22.78h92.9c0.67,0,.67.22,0.67,0.67v35.73c0,0.45,0,.67-0.67.67h-92.9v22.78h95.36c0.45,0,.67,0,0.67.45v35.73c0,0.67-.22.67-0.67,0.67h-135.1c-0.45,0-.45,0-0.67-0.67" transform="translate(-782.98 -729.12)"/></svg>