<?xml version="1.0" standalone="no"?>
<!DOCTYPE svg PUBLIC "-//W3C//DTD SVG 20010904//EN"
 "http://www.w3.org/TR/2001/REC-SVG-20010904/DTD/svg10.dtd">
<svg version="1.0" xmlns="http://www.w3.org/2000/svg"
 width="446.242170pt" height="446.458019pt" viewBox="0 0 446.242170 446.458019"
 preserveAspectRatio="xMidYMid meet">
<metadata>
Created by potrace 1.12, written by Peter Selinger 2001-2015
</metadata>
<g transform="translate(-5.659229,449.563234) scale(0.100000,-0.100000)"
fill="#ffffff" stroke="none">
<path d="M2160 4494 c-224 -19 -402 -54 -585 -115 -134 -45 -364 -154 -469
-222 l-69 -45 -46 30 c-134 85 -319 89 -463 11 -69 -38 -153 -130 -190 -210
-27 -57 -33 -83 -36 -159 -5 -109 13 -182 64 -267 l36 -58 -40 -67 c-143 -242
-247 -539 -288 -827 -23 -165 -23 -451 0 -610 145 -978 869 -1724 1841 -1896
150 -26 445 -36 595 -20 341 37 684 155 960 329 l96 60 70 -34 c93 -47 180
-61 274 -47 196 31 348 183 381 380 18 112 -13 246 -77 331 l-25 32 36 60
c140 231 252 574 285 879 18 156 8 461 -19 611 -128 716 -572 1309 -1216 1625
-298 147 -592 220 -928 229 -78 2 -162 2 -187 0z m259 -224 c137 -65 283 -255
386 -505 41 -98 95 -252 95 -270 0 -6 -18 -22 -40 -34 -62 -35 -135 -114 -167
-180 l-28 -60 -245 6 c-245 6 -512 -6 -717 -31 -80 -9 -103 -9 -103 0 0 7 16
76 36 154 90 359 223 646 372 803 104 108 174 145 282 146 52 1 77 -5 129 -29z
m-635 -92 c-68 -90 -199 -354 -252 -508 -40 -116 -101 -343 -122 -456 l-12
-62 -62 -12 c-113 -21 -340 -82 -456 -122 -154 -53 -418 -184 -509 -253 l-73
-56 7 38 c16 87 91 287 156 418 94 189 86 181 146 161 114 -37 226 -30 340 24
210 98 312 356 226 571 -8 22 -14 41 -12 43 43 39 265 154 391 202 95 37 243
83 270 83 12 1 2 -19 -38 -71z m1130 27 c533 -175 962 -548 1207 -1048 60
-123 134 -323 154 -415 l7 -32 -84 60 c-140 100 -407 226 -586 276 l-60 17 -7
54 c-26 210 -180 371 -386 404 -35 6 -65 12 -67 14 -2 1 -21 55 -43 120 -73
214 -165 400 -265 536 l-46 62 38 -8 c21 -3 83 -21 138 -40z m-2047 -213 c52
-27 116 -100 131 -150 53 -177 -67 -345 -249 -346 -54 0 -74 5 -120 30 -207
117 -177 410 51 485 42 14 142 3 187 -19z m2338 -686 c134 -62 187 -215 121
-349 -49 -101 -144 -154 -256 -144 -94 8 -168 60 -217 150 -27 49 -24 169 4
223 29 55 78 103 128 125 59 27 157 25 220 -5z m-718 -273 l150 -6 12 -51 c38
-170 176 -309 345 -347 l53 -12 7 -60 c24 -233 -12 -973 -49 -1011 -38 -38
-757 -73 -1006 -50 l-66 7 -12 53 c-37 164 -175 305 -337 345 -27 7 -52 17
-55 22 -14 21 -20 409 -10 592 12 208 38 456 49 467 10 10 259 38 418 47 191
11 324 12 501 4z m-1134 -190 c-25 -224 -35 -478 -29 -713 l7 -235 -54 -27
c-69 -34 -157 -115 -188 -172 -13 -26 -29 -46 -36 -46 -33 0 -237 80 -368 145
-228 113 -370 237 -420 369 -24 62 -17 165 14 230 32 66 134 172 226 235 92
64 285 158 425 206 101 36 389 114 420 115 14 0 14 -12 3 -107z m2223 16 c349
-107 636 -293 720 -464 24 -50 29 -72 29 -135 0 -66 -4 -82 -35 -139 -118
-220 -497 -422 -994 -530 l-88 -19 6 31 c31 168 51 777 32 964 l-8 71 55 27
c73 36 145 101 182 164 17 28 31 51 31 51 1 0 33 -10 70 -21z m-2988 -1228
c122 -61 171 -81 317 -132 l110 -37 12 -68 c39 -210 196 -361 397 -383 l58 -6
47 -135 c82 -236 182 -435 282 -562 26 -32 29 -39 13 -35 -10 3 -55 15 -99 27
-592 161 -1116 640 -1339 1223 -33 85 -86 258 -86 278 0 5 42 -20 93 -55 50
-35 138 -87 195 -115z m3668 88 c-60 -207 -195 -506 -226 -502 -8 0 -44 9 -80
18 -126 34 -273 5 -374 -72 -119 -91 -176 -199 -184 -348 -4 -79 -1 -100 22
-165 14 -41 24 -75 23 -76 -1 -1 -38 -25 -83 -52 -106 -66 -217 -121 -334
-165 -96 -37 -271 -90 -276 -84 -2 1 23 39 55 84 139 194 257 483 336 818 46
197 49 205 77 205 43 0 343 79 478 125 172 59 391 165 500 243 46 34 86 60 87
58 2 -2 -8 -41 -21 -87z m-2694 -11 c50 -15 122 -78 151 -132 30 -58 31 -174
0 -231 -103 -193 -371 -194 -470 -1 -32 61 -36 158 -9 218 54 124 194 186 328
146z m1412 -395 c-3 -16 -23 -95 -44 -178 -135 -529 -377 -888 -614 -912 -222
-23 -456 248 -610 711 -20 58 -36 108 -36 110 0 2 20 16 43 30 58 34 150 134
172 188 l18 43 406 1 c303 1 435 5 521 16 163 22 151 23 144 -9z m982 -281
c52 -27 109 -87 130 -137 24 -58 22 -153 -5 -208 -49 -101 -166 -167 -269
-152 -231 35 -313 317 -135 465 74 61 195 75 279 32z"/>
</g>
</svg>
