<?xml version="1.0" standalone="no"?>
<!DOCTYPE svg PUBLIC "-//W3C//DTD SVG 20010904//EN"
 "http://www.w3.org/TR/2001/REC-SVG-20010904/DTD/svg10.dtd">
<svg version="1.0" xmlns="http://www.w3.org/2000/svg"
 width="308.371374pt" height="385.755588pt" viewBox="0 0 308.371374 385.755588"
 preserveAspectRatio="xMidYMid meet">
<metadata>
Created by potrace 1.12, written by Peter Selinger 2001-2015
</metadata>
<g transform="translate(-107.525111,430.761150) scale(0.100000,-0.100000)"
fill="#ffffff" stroke="none">
<path d="M2350 4295 c-110 -31 -199 -107 -248 -213 -23 -49 -27 -70 -27 -152
0 -86 3 -101 31 -160 39 -82 101 -144 184 -184 59 -28 74 -31 160 -31 86 0
101 3 161 33 81 39 140 101 181 188 40 85 43 198 9 287 -70 180 -270 282 -451
232z"/>
<path d="M3665 3485 c-16 -9 -84 -69 -150 -134 -126 -124 -311 -281 -329 -281
-6 0 -101 68 -211 151 -115 87 -232 167 -275 188 l-75 36 -165 -1 c-123 -1
-191 -7 -270 -22 -426 -85 -554 -131 -676 -245 -144 -134 -417 -465 -434 -525
-26 -98 52 -193 157 -192 60 1 95 28 188 145 175 220 302 357 355 384 33 17
131 43 212 56 36 6 36 6 43 -37 4 -24 22 -119 40 -213 84 -425 95 -485 95
-501 0 -9 -60 -136 -133 -283 -73 -146 -149 -312 -170 -368 -57 -157 -54 -235
25 -598 36 -167 102 -420 124 -475 29 -71 106 -120 190 -120 52 0 131 47 159
93 40 69 40 106 0 257 -86 327 -135 555 -135 631 0 55 32 134 159 387 l81 162
73 0 c39 0 96 7 126 15 30 8 58 12 62 10 13 -9 200 -316 255 -420 30 -56 54
-113 54 -128 0 -59 -72 -311 -160 -557 -76 -214 -81 -235 -69 -292 41 -188
294 -211 378 -33 26 55 173 493 201 600 28 106 60 269 60 305 0 43 -38 156
-81 241 -78 156 -291 505 -376 616 -31 41 -34 51 -53 205 -11 90 -25 198 -31
241 -6 44 -8 81 -6 84 3 2 23 -7 44 -20 111 -70 166 -91 238 -92 84 0 139 24
261 116 105 78 380 334 413 383 33 50 35 132 5 173 -49 65 -137 91 -199 58z"/>
<path d="M3950 2846 c0 -8 13 -43 28 -78 78 -172 107 -318 98 -490 -4 -88 -3
-129 5 -134 18 -11 35 17 59 96 19 65 22 90 17 185 -8 153 -49 272 -133 388
-33 46 -74 64 -74 33z"/>
<path d="M3716 2622 c-3 -5 3 -35 14 -67 29 -83 50 -207 50 -289 0 -72 -26
-205 -55 -285 -13 -39 -13 -47 -1 -59 12 -12 17 -9 41 22 15 19 40 70 57 112
66 171 52 369 -36 516 -30 50 -57 70 -70 50z"/>
<path d="M1242 1823 c-130 -185 -143 -457 -30 -642 37 -61 62 -81 78 -65 7 7
3 30 -14 76 -74 195 -73 365 3 582 11 32 18 62 15 67 -10 17 -33 9 -52 -18z"/>
<path d="M1559 1569 c-12 -12 -34 -50 -51 -85 -40 -85 -49 -195 -23 -286 22
-80 73 -168 98 -168 28 0 29 21 6 91 -14 42 -23 101 -26 174 -5 100 -3 117 21
188 14 42 26 81 26 86 0 20 -32 19 -51 0z"/>
</g>
</svg>
