<!DOCTYPE svg PUBLIC "-//W3C//DTD SVG 20010904//EN" "http://www.w3.org/TR/2001/REC-SVG-20010904/DTD/svg10.dtd">
<svg version="1.0" xmlns="http://www.w3.org/2000/svg" width="1200px" height="711px" viewBox="0 0 12000 7110" preserveAspectRatio="xMidYMid meet">
<g id="layer101" fill="#ffffff" stroke="none">
 <path d="M0 6490 l0 -620 145 0 145 0 0 -52 c0 -35 7 -64 20 -85 36 -60 52 -63 329 -63 l249 0 33 27 c38 33 59 79 59 133 l0 40 180 0 c102 0 180 -4 180 -9 0 -5 -4 -11 -9 -13 -5 -1 -212 -185 -460 -406 l-451 -404 32 -38 c18 -21 61 -70 95 -108 l62 -69 -39 -38 c-24 -23 -42 -52 -46 -72 -13 -70 0 -95 142 -255 161 -182 194 -214 236 -222 43 -8 100 9 128 39 13 14 29 25 35 25 10 0 223 -233 413 -451 l32 -36 -39 -41 c-47 -49 -60 -102 -38 -153 18 -45 299 -359 340 -381 17 -10 44 -18 60 -18 31 0 97 30 116 54 8 9 17 16 21 16 5 0 55 -52 111 -115 57 -63 106 -114 110 -113 3 2 210 185 459 408 249 223 456 407 461 408 5 2 9 -184 9 -422 l0 -426 1325 0 1325 0 0 620 0 620 -1325 0 -1325 0 0 -191 c0 -113 -4 -189 -9 -187 -5 2 -54 53 -108 113 -264 296 -533 598 -598 670 -39 44 -172 193 -295 330 -122 138 -342 384 -489 548 -146 164 -267 303 -269 308 -2 5 58 9 142 9 l146 0 0 -32 c0 -58 19 -105 56 -137 l35 -31 252 0 c232 0 255 2 284 20 42 25 56 53 63 120 l5 55 163 3 162 2 0 620 -1 620 -1329 0 -1330 0 0 -620z"/>
 <path d="M3120 6490 l0 -620 1325 0 1325 0 0 620 0 620 -1325 0 -1325 0 0 -620z"/>
 <path d="M6230 6485 l0 -625 1328 2 1327 3 2 623 3 622 -1330 0 -1330 0 0 -625z"/>
 <path d="M9340 6490 l0 -619 93 -3 92 -3 5 -46 c6 -52 28 -91 67 -116 24 -16 55 -18 273 -18 237 0 246 1 281 23 40 24 69 81 69 132 l0 30 329 0 328 0 7 -50 c8 -62 51 -115 104 -130 47 -13 436 -13 483 0 55 15 90 59 97 122 l7 53 213 3 212 2 0 620 0 620 -1330 0 -1330 0 0 -620z"/>
 <path d="M3120 5070 l0 -620 1325 0 1325 0 0 620 0 620 -1325 0 -1325 0 0 -620z"/>
 <path d="M6230 5070 l0 -620 1330 0 1330 0 -2 618 -3 617 -1327 3 -1328 2 0 -620z"/>
 <path d="M6230 3650 l0 -620 1330 0 1330 0 -2 618 -3 617 -1327 3 -1328 2 0 -620z"/>
 <path d="M3120 2240 l0 -620 1325 0 1325 0 0 620 0 620 -1325 0 -1325 0 0 -620z"/>
 <path d="M6230 2240 l0 -620 145 0 145 0 0 -52 c0 -35 7 -64 20 -85 36 -60 53 -63 322 -63 223 0 246 2 275 20 45 27 63 60 70 124 l6 56 328 0 329 0 0 -42 c0 -55 26 -107 69 -135 33 -22 41 -23 278 -23 270 0 287 3 323 63 13 21 20 50 20 85 l0 52 160 0 160 0 0 620 0 620 -1325 0 -1325 0 0 -620z"/>
 <path d="M3120 820 l0 -620 139 0 139 0 4 -55 c5 -64 29 -102 79 -127 29 -16 65 -18 264 -18 199 0 235 2 265 18 50 25 80 74 80 133 l0 49 335 0 335 0 0 -49 c0 -59 30 -108 80 -133 30 -16 66 -18 265 -18 199 0 235 2 264 18 50 25 74 63 79 127 l4 55 159 0 159 0 0 620 0 620 -1325 0 -1325 0 0 -620z"/>
 </g>

</svg>