<?xml version="1.0" standalone="no"?>
<!DOCTYPE svg PUBLIC "-//W3C//DTD SVG 20010904//EN"
 "http://www.w3.org/TR/2001/REC-SVG-20010904/DTD/svg10.dtd">
<svg version="1.0" xmlns="http://www.w3.org/2000/svg"
 width="727.328186pt" height="831.898220pt" viewBox="0 0 727.328186 831.898220"
 preserveAspectRatio="xMidYMid meet">
<metadata>
Created by potrace 1.12, written by Peter Selinger 2001-2015
</metadata>
<g transform="translate(-280.500000,1069.751263) scale(0.100000,-0.100000)"
fill="#ffffff" stroke="none">
<path d="M6305 10686 c-133 -31 -209 -73 -318 -176 -78 -73 -124 -146 -161
-250 -27 -76 -30 -98 -31 -205 0 -106 3 -130 29 -209 34 -103 83 -181 164
-260 79 -77 148 -119 250 -153 77 -25 101 -28 207 -27 104 0 130 4 200 28 110
38 180 83 261 168 82 86 114 138 151 244 24 70 27 94 27 204 0 111 -3 134 -28
205 -35 104 -91 189 -176 269 -83 78 -130 106 -235 141 -98 33 -247 42 -340
21z m247 -266 c128 -39 219 -131 259 -261 65 -207 -60 -428 -273 -485 -156
-41 -333 25 -419 158 -45 70 -58 109 -66 194 -12 135 70 292 187 358 98 56
208 68 312 36z"/>
<path d="M8125 10036 c-234 -54 -409 -211 -481 -432 -25 -77 -29 -104 -29
-204 0 -100 4 -127 29 -204 36 -108 84 -183 175 -269 83 -78 130 -107 236
-143 70 -24 95 -28 200 -28 108 0 129 3 210 30 109 37 167 72 245 149 83 80
132 157 166 261 25 77 29 104 29 204 0 100 -4 127 -29 204 -36 108 -84 183
-175 269 -84 79 -131 107 -236 142 -98 33 -247 42 -340 21z m246 -265 c127
-40 220 -133 260 -260 24 -79 24 -143 0 -222 -51 -162 -206 -279 -371 -279
-115 0 -250 71 -315 164 -43 63 -75 159 -75 226 0 115 71 250 164 315 104 72
222 91 337 56z"/>
<path d="M4422 9955 c-74 -25 -84 -31 -179 -92 -116 -75 -213 -219 -253 -377
-94 -371 168 -749 553 -797 266 -33 542 116 656 356 85 178 93 343 25 526 -66
178 -217 320 -406 383 -66 22 -94 26 -200 26 -104 0 -134 -4 -196 -25z m363
-267 c85 -44 147 -108 186 -190 31 -66 34 -82 34 -163 0 -81 -3 -97 -34 -163
-40 -85 -101 -146 -189 -189 -52 -26 -67 -28 -167 -28 -101 0 -114 2 -164 28
-83 44 -143 107 -182 189 -30 66 -34 82 -34 163 0 81 3 97 33 160 48 101 108
159 210 202 50 21 69 23 157 20 84 -3 108 -7 150 -29z"/>
<path d="M3364 8549 c-206 -24 -404 -166 -493 -354 -55 -115 -66 -165 -66
-290 0 -125 11 -175 66 -290 92 -194 289 -332 506 -354 377 -38 696 230 720
605 22 342 -227 641 -568 684 -46 5 -86 9 -89 9 -3 -1 -37 -5 -76 -10z m246
-290 c86 -40 151 -106 191 -191 31 -66 34 -82 34 -163 0 -81 -3 -97 -34 -163
-39 -82 -100 -145 -186 -190 -45 -24 -60 -27 -160 -27 -98 0 -116 3 -165 26
-85 40 -151 106 -191 191 -31 66 -34 81 -34 163 0 81 4 97 33 160 37 79 75
122 145 167 77 49 112 58 217 55 78 -2 105 -7 150 -28z"/>
<path d="M9345 8550 c-260 -29 -489 -240 -549 -507 -70 -311 107 -635 408
-748 124 -46 301 -51 422 -10 260 87 434 311 451 581 22 341 -232 646 -570
684 -45 6 -84 9 -87 9 -3 -1 -36 -5 -75 -9z m247 -293 c88 -43 149 -104 189
-189 31 -66 34 -82 34 -163 0 -81 -3 -97 -34 -163 -39 -82 -93 -138 -182 -187
-51 -28 -60 -30 -164 -30 -98 0 -116 3 -167 27 -84 39 -149 104 -189 190 -31
66 -34 81 -34 163 0 81 4 97 35 163 46 100 136 179 240 213 14 5 68 7 120 6
81 -2 103 -6 152 -30z"/>
<path d="M6228 7585 c-216 -47 -390 -140 -543 -290 -135 -132 -224 -276 -278
-450 -40 -127 -50 -219 -44 -373 9 -214 62 -377 181 -556 60 -91 200 -231 289
-289 333 -220 740 -247 1092 -72 129 63 216 127 308 224 124 132 216 298 264
476 23 89 27 119 27 265 1 188 -16 275 -84 432 -201 468 -721 740 -1212 633z"/>
<path d="M9441 6739 c-164 -32 -316 -119 -531 -303 -130 -112 -189 -163 -330
-281 -86 -72 -364 -310 -575 -493 -264 -227 -568 -369 -985 -457 -707 -149
-1481 -25 -2015 323 -49 32 -185 139 -300 238 -116 98 -229 195 -252 214 -22
19 -157 136 -298 260 -142 124 -288 251 -326 282 -75 64 -206 142 -307 184
-61 26 -78 28 -197 29 -120 0 -134 -2 -185 -26 -170 -80 -290 -256 -290 -424
0 -126 37 -231 133 -375 66 -99 112 -147 387 -410 864 -824 1081 -1038 1185
-1165 156 -192 273 -374 337 -528 22 -50 23 -67 29 -502 6 -482 9 -516 60
-616 75 -149 210 -256 374 -295 92 -21 2151 -21 2244 1 187 44 354 205 408
393 14 47 17 134 23 512 6 437 7 457 28 514 52 140 193 368 348 564 57 71 309
330 754 772 591 588 675 675 726 755 76 119 110 194 130 284 36 163 -3 300
-118 414 -125 124 -282 170 -457 136z"/>
</g>
</svg>
