
<svg width="130px" height="36px" viewBox="0 0 942 251" version="1.1" xmlns="http://www.w3.org/2000/svg" xmlns:xlink="http://www.w3.org/1999/xlink">
    <!-- Generator: Sketch 49.3 (51167) - http://www.bohemiancoding.com/sketch -->
    <desc>Created with Sketch.</desc>
    <defs>
        <polygon id="path-1" points="0.64327929 0.0325578275 97.2483195 0.0325578275 97.2483195 124.609551 0.64327929 124.609551"></polygon>
    </defs>
    <g id="Page-1" stroke="none" stroke-width="1" fill="none" fill-rule="evenodd">
        <g id="Identity-colors-+-logo" transform="translate(-250.000000, -592.000000)">
            <g id="Page-1" transform="translate(250.000000, 592.000000)">
                <polygon id="Fill-1" fill="#4FA8FC" points="0 2 0 126 15.9768738 126 15.9768738 75.3380711 69 75.3380711 69 60.8115791 15.9768738 60.8115791 15.9768738 16.526492 69 16.526492 69 2"></polygon>
                <path d="M152.581851,125 L110,249 L126.961884,249 L133.323087,230.044403 L183.501761,230.044403 L190.038913,249 L207,249 L164.242997,125 L152.581851,125 Z M158.58877,151.394799 L178.553715,215.341603 L138.26954,215.341603 L158.58877,151.394799 Z" id="Fill-2" fill="#4FA8FC"></path>
                <polygon id="Fill-3" fill="#FE4A49" points="23.9768738 16.5257873 23.9768738 60.8111595 77 60.8111595 77 75.3385431 23.9768738 75.3385431 23.9768738 126 8 126 8 2 77 2 77 16.5257873"></polygon>
                <path d="M157.580706,125 L115,249 L131.961744,249 L138.322896,230.044403 L188.500361,230.044403 L195.03746,249 L212,249 L169.242552,125 L157.580706,125 Z M163.588371,151.394799 L183.553153,215.341603 L143.268512,215.341603 L163.588371,151.394799 Z" id="Fill-4" fill="#FE4A49"></path>
                <path d="M157.626021,125 L115,249 L126.879657,249 L133.246663,230.045755 L138.34728,230.045755 L183.477386,230.045755 L188.578004,230.045755 L195.121937,249 L207,249 L164.198645,125 L157.626021,125 Z M163.639968,151.39434 L183.625623,215.342766 L178.524208,215.342766 L143.298864,215.342766 L138.199044,215.342766 L158.538553,151.39434 L161.06575,159.484177 L163.639968,151.39434 Z" id="Fill-5" fill="#1D0645"></path>
                <g id="Group-39" transform="translate(5.000000, 0.000000)">
                    <path d="M301.035757,90.9855754 L341.507722,90.9855754 L341.507722,63.755684 C341.507722,59.7244476 340.86468,56.3122911 339.573047,53.522422 C338.283,50.7373645 336.640905,48.4815722 334.646763,46.7606585 C332.652621,45.0413486 330.482456,43.8240387 328.135473,43.1127383 C325.790077,42.3998342 323.558858,42.044585 321.448953,42.044585 C319.222491,42.044585 316.904053,42.4311089 314.498396,43.2009492 C312.093533,43.974799 309.89403,45.220176 307.899095,46.9378821 C305.905746,48.6603997 304.264444,50.8528406 302.972018,53.522422 C301.681178,56.1920035 301.035757,59.4846744 301.035757,63.4004348 L301.035757,90.9855754 Z M286.43055,64.2905626 C286.43055,60.2585243 285.816053,56.8768406 284.583888,54.1463134 C283.350929,51.418192 281.766716,49.2241473 279.832041,47.5617735 C277.896574,45.9010035 275.785083,44.7141665 273.498361,44.0020642 C271.20926,43.2891601 269.008964,42.9339109 266.899059,42.9339109 C264.787568,42.9339109 262.588065,43.2891601 260.30055,44.0020642 C258.01145,44.7141665 255.901544,45.9010035 253.965284,47.5617735 C252.029817,49.2241473 250.417852,51.4478629 249.125426,54.2353262 C247.836964,57.0235914 247.190751,60.4950898 247.190751,64.6458118 L247.190751,90.9855754 L286.43055,90.9855754 L286.43055,64.2905626 Z M232.761568,107.180288 L232.761568,64.6458118 C232.761568,57.171946 233.87797,50.9731281 236.105225,46.0485562 C238.334065,41.1263901 241.150444,37.2394987 244.551189,34.3910898 C247.955899,31.5442847 251.650018,29.5587383 255.636716,28.4296393 C259.626586,27.3037479 263.380172,26.7391984 266.899059,26.7391984 C271.006278,26.7391984 274.613178,27.3622879 277.72055,28.6076649 C280.831095,29.8538438 283.470657,31.4552719 285.638444,33.4127511 C287.810195,35.3702304 289.597391,37.5674827 291.00558,39.998093 C292.414562,42.4311089 293.354148,44.892192 293.821166,47.3837479 C294.290562,45.1303613 295.202396,42.7278182 296.54874,40.1753166 C297.89984,37.6252208 299.688621,35.2812176 301.915083,33.1457128 C304.146302,31.010208 306.873083,29.2604252 310.098598,27.8955626 C313.325698,26.5331058 317.049154,25.8490706 321.271343,25.8490706 C324.791024,25.8490706 328.57474,26.414422 332.621698,27.5403134 C336.668657,28.6686105 340.425414,30.6854316 343.884834,33.5907767 C347.345047,36.4993294 350.218515,40.3830131 352.50603,45.2474412 C354.793544,50.1134732 355.937698,56.2818182 355.937698,63.755684 L355.937698,107.180288 L232.761568,107.180288 Z" id="Fill-6" fill="#4FA8FC"></path>
                    <path d="M301.035757,85.6094441 L341.507722,85.6094441 L341.507722,58.3803546 C341.507722,54.3483163 340.86468,50.9369617 339.573047,48.1470927 C338.283,45.3612332 336.640905,43.1062428 334.646763,41.3853291 C332.652621,39.6660192 330.482456,38.4479073 328.135473,37.736607 C325.790077,37.0237029 323.558858,36.6692556 321.448953,36.6692556 C319.222491,36.6692556 316.904053,37.0549776 314.498396,37.8248179 C312.093533,38.5986677 309.89403,39.8440447 307.899095,41.5625527 C305.905746,43.2842684 304.264444,45.4775112 302.972018,48.1470927 C301.681178,50.8166741 301.035757,54.109345 301.035757,58.0251054 L301.035757,85.6094441 Z M286.43055,58.9144313 C286.43055,54.8831949 285.816053,51.5015112 284.583888,48.7701821 C283.350929,46.0420607 281.766716,43.848016 279.832041,42.1864441 C277.896574,40.5248722 275.785083,39.3380351 273.498361,38.6267348 C271.20926,37.9138307 269.008964,37.5585815 266.899059,37.5585815 C264.787568,37.5585815 262.588065,37.9138307 260.30055,38.6267348 C258.01145,39.3380351 255.901544,40.5248722 253.965284,42.1864441 C252.029817,43.848016 250.417852,46.0725335 249.125426,48.8599968 C247.836964,51.6474601 247.190751,55.1189585 247.190751,59.2696805 L247.190751,85.6094441 L286.43055,85.6094441 L286.43055,58.9144313 Z M232.761568,101.804958 L232.761568,59.2696805 C232.761568,51.7958147 233.87797,45.5977987 236.105225,40.6732268 C238.334065,35.7510607 241.150444,31.8633674 244.551189,29.0157604 C247.955899,26.1689553 251.650018,24.182607 255.636716,23.0543099 C259.626586,21.9284185 263.380172,21.3630671 266.899059,21.3630671 C271.006278,21.3630671 274.613178,21.9861565 277.72055,23.2315335 C280.831095,24.4777125 283.470657,26.0791406 285.638444,28.0366198 C287.810195,29.994099 289.597391,32.1921534 291.00558,34.6219617 C292.414562,37.0549776 293.354148,39.5160607 293.821166,42.0076166 C294.290562,39.7550319 295.202396,37.3524888 296.54874,34.7999872 C297.89984,32.2498914 299.688621,29.9050863 301.915083,27.7703834 C304.146302,25.6340767 306.873083,23.8850958 310.098598,22.5194313 C313.325698,21.1569744 317.049154,20.4729393 321.271343,20.4729393 C324.791024,20.4729393 328.57474,21.0382907 332.621698,22.164984 C336.668657,23.2932812 340.425414,25.3093003 343.884834,28.2154473 C347.345047,31.124 350.218515,35.0076837 352.50603,39.8721118 C354.793544,44.7381438 355.937698,50.9064888 355.937698,58.3803546 L355.937698,101.804958 L232.761568,101.804958 Z" id="Fill-8" fill="#FE4A49"></path>
                    <path d="M341.507722,63.5128636 L341.507722,85.6096847 L341.507722,90.742755 L301.035757,90.742755 L301.035757,85.6096847 L301.035757,63.1576144 L301.035757,58.0245441 C301.035757,54.1087837 301.681178,50.8169147 302.972018,48.1473332 C304.264444,45.4777518 305.905746,43.283707 307.899095,41.5627933 C309.89403,39.8434834 312.093533,38.5989083 314.498396,37.8250585 C316.904053,37.0552182 319.222491,36.6686942 321.448953,36.6686942 C323.558858,36.6686942 325.790077,37.0239435 328.135473,37.7360457 C330.483249,38.4481479 332.652621,39.6662597 334.646763,41.3847677 C336.640905,43.1064834 338.283,45.3606719 339.573047,48.1473332 C340.86468,50.9364003 341.507722,54.347755 341.507722,58.3805952 L341.507722,63.5128636 Z M286.43055,64.0477422 L286.43055,85.6096847 L286.43055,90.742755 L247.190751,90.742755 L247.190751,85.6096847 L247.190751,64.4029914 L247.190751,59.2699211 C247.190751,55.1183971 247.836964,51.6477006 249.125426,48.8602374 C250.417852,46.0727741 252.029817,43.8482565 253.965284,42.1858827 C255.901544,40.5251128 258.01145,39.3382757 260.30055,38.6269754 C262.588065,37.9140712 264.787568,37.558822 266.899059,37.558822 C269.008964,37.558822 271.20926,37.9140712 273.498361,38.6269754 C275.785083,39.3382757 277.896574,40.5251128 279.832041,42.1858827 C281.766716,43.8482565 283.350929,46.0423013 284.583888,48.7696208 C285.816053,51.5009498 286.43055,54.8826335 286.43055,58.9146719 L286.43055,64.0477422 Z M343.884834,33.3479562 C340.425414,30.4426112 336.668657,28.4257901 332.622491,27.297493 C328.57474,26.1716016 324.791024,25.6062502 321.272136,25.6062502 C317.049154,25.6062502 313.325698,26.2902853 310.098598,27.6527422 C306.873083,29.0176048 304.146302,30.7673875 301.915083,32.9028923 C299.688621,35.0383971 297.89984,37.3824003 296.549533,39.9324962 C295.202396,42.4849978 294.290562,44.8875409 293.821959,47.1409275 C293.354941,44.6493716 292.414562,42.1882885 291.00558,39.7552725 C289.598183,37.3246623 287.810195,35.1282118 285.638444,33.1699307 C283.470657,31.2124514 280.831095,29.6110233 277.72055,28.3648444 C274.613178,27.1186655 271.006278,26.496378 266.899059,26.496378 C263.380172,26.496378 259.626586,27.0609275 255.636716,28.1868188 C251.650018,29.3159179 247.955899,31.3014642 244.551189,34.1482693 C241.151237,36.9966783 238.334065,40.8835696 236.105225,45.8057358 C233.878763,50.7311096 232.761568,56.9291256 232.761568,64.4029914 L232.761568,101.805199 L355.937698,101.805199 L355.937698,63.5128636 C355.937698,56.0389978 354.793544,49.8706527 352.50603,45.0046208 C350.218515,40.1409946 347.345047,36.2565089 343.884834,33.3479562 Z" id="Fill-10" fill="#1D0645"></path>
                    <path d="M465.867492,214.79329 L506.34025,214.79329 L506.34025,187.563399 C506.34025,183.532162 505.697208,180.120006 504.405575,177.330137 C503.114735,174.545079 501.473433,172.289287 499.478498,170.568373 C497.485149,168.849063 495.314983,167.631753 492.967208,166.920453 C490.621812,166.207549 488.390593,165.8523 486.280688,165.8523 C484.054226,165.8523 481.735788,166.238824 479.330131,167.008664 C476.925267,167.782514 474.726557,169.027891 472.73083,170.746399 C470.738273,172.468114 469.096179,174.660555 467.803753,177.330137 C466.513705,179.999718 465.867492,183.292389 465.867492,187.208951 L465.867492,214.79329 Z M451.263078,188.098277 C451.263078,184.066239 450.647788,180.684555 449.415622,177.954028 C448.183457,175.225907 446.598451,173.031862 444.664569,171.369488 C442.729102,169.708718 440.616818,168.521881 438.330096,167.809779 C436.040995,167.096875 433.841492,166.741626 431.730794,166.741626 C429.619303,166.741626 427.4198,167.096875 425.132285,167.809779 C422.843185,168.521881 420.733279,169.708718 418.797019,171.369488 C416.861551,173.031862 415.249587,175.25638 413.957161,178.043041 C412.668699,180.831306 412.022486,184.302804 412.022486,188.453527 L412.022486,214.79329 L451.263078,214.79329 L451.263078,188.098277 Z M397.593303,230.988003 L397.593303,188.453527 C397.593303,180.979661 398.710498,174.780843 400.93696,169.856271 C403.1658,164.934105 405.982972,161.047213 409.383717,158.198804 C412.787634,155.351999 416.481753,153.366453 420.468451,152.237354 C424.458321,151.111463 428.211907,150.546913 431.730794,150.546913 C435.838013,150.546913 439.445705,151.170003 442.552285,152.41538 C445.66283,153.661558 448.302392,155.262987 450.470972,157.220466 C452.642723,159.177945 454.429918,161.375197 455.837315,163.805808 C457.246297,166.238824 458.185883,168.699907 458.653693,171.191463 C459.12309,168.938878 460.034131,166.535533 461.381267,163.983031 C462.731575,161.433737 464.520356,159.088932 466.746818,156.953427 C468.978037,154.817923 471.704818,153.06814 474.931125,151.703277 C478.157433,150.34082 481.881682,149.656785 486.103078,149.656785 C489.622759,149.656785 493.406475,150.222137 497.454226,151.348028 C501.500392,152.477127 505.257149,154.493146 508.716569,157.399293 C512.176782,160.307044 515.05025,164.19153 517.337764,169.055156 C519.625279,173.921188 520.769433,180.089533 520.769433,187.563399 L520.769433,230.988003 L397.593303,230.988003 Z" id="Fill-12" fill="#4FA8FC"></path>
                    <path d="M465.867492,209.659899 L506.34025,209.659899 L506.34025,182.43081 C506.34025,178.398771 505.697208,174.987417 504.405575,172.197548 C503.114735,169.411688 501.473433,167.156698 499.478498,165.435784 C497.485149,163.716474 495.314983,162.498362 492.967208,161.787062 C490.621812,161.07496 488.390593,160.719711 486.280688,160.719711 C484.054226,160.719711 481.735788,161.105433 479.330131,161.876075 C476.925267,162.649123 474.726557,163.8945 472.73083,165.613008 C470.738273,167.334723 469.096179,169.527966 467.803753,172.197548 C466.513705,174.867129 465.867492,178.1598 465.867492,182.07556 L465.867492,209.659899 Z M451.263078,182.964886 C451.263078,178.93365 450.647788,175.551966 449.415622,172.820637 C448.183457,170.092516 446.598451,167.898471 444.664569,166.236899 C442.729102,164.575327 440.616818,163.38849 438.330096,162.67719 C436.040995,161.964286 433.841492,161.609036 431.730794,161.609036 C429.619303,161.609036 427.4198,161.964286 425.132285,162.67719 C422.843185,163.38849 420.733279,164.575327 418.797019,166.236899 C416.861551,167.898471 415.249587,170.122988 413.957161,172.910452 C412.668699,175.698717 412.022486,179.169413 412.022486,183.320135 L412.022486,209.659899 L451.263078,209.659899 L451.263078,182.964886 Z M397.593303,225.855413 L397.593303,183.320135 C397.593303,175.84627 398.710498,169.647452 400.93696,164.723682 C403.1658,159.801516 405.982972,155.913822 409.383717,153.066215 C412.787634,150.21941 416.481753,148.233062 420.468451,147.104765 C424.458321,145.978873 428.211907,145.414324 431.730794,145.414324 C435.838013,145.414324 439.445705,146.036612 442.552285,147.281988 C445.66283,148.528969 448.302392,150.130397 450.470972,152.087877 C452.642723,154.045356 454.429918,156.242608 455.837315,158.672417 C457.246297,161.105433 458.185883,163.566516 458.653693,166.058072 C459.12309,163.805487 460.034131,161.402944 461.381267,158.850442 C462.731575,156.300346 464.520356,153.955541 466.746818,151.820838 C468.978037,149.684532 471.704818,147.935551 474.931125,146.570688 C478.157433,145.208231 481.881682,144.523394 486.103078,144.523394 C489.622759,144.523394 493.406475,145.088746 497.454226,146.215439 C501.500392,147.343736 505.257149,149.359755 508.716569,152.265902 C512.176782,155.174455 515.05025,159.058139 517.337764,163.922567 C519.625279,168.788599 520.769433,174.956944 520.769433,182.43081 L520.769433,225.855413 L397.593303,225.855413 Z" id="Fill-14" fill="#FE4A49"></path>
                    <path d="M506.34017,187.563319 L506.34017,209.66014 L506.34017,214.79321 L465.867413,214.79321 L465.867413,209.66014 L465.867413,187.208069 L465.867413,182.074999 C465.867413,178.159239 466.513626,174.86737 467.803673,172.197788 C469.096099,169.528207 470.738194,167.334162 472.73075,165.613248 C474.726478,163.893938 476.925188,162.649363 479.330052,161.876315 C481.735709,161.105673 484.054147,160.719149 486.280608,160.719149 C488.390514,160.719149 490.621733,161.074398 492.967129,161.786501 C495.314904,162.498603 497.48507,163.716715 499.478419,165.435223 C501.473354,167.156938 503.114656,169.411127 504.405496,172.197788 C505.697129,174.986855 506.34017,178.39821 506.34017,182.43105 L506.34017,187.563319 Z M451.262999,188.098197 L451.262999,209.66014 L451.262999,214.79321 L412.0232,214.79321 L412.0232,209.66014 L412.0232,188.453446 L412.0232,183.320376 C412.0232,179.168852 412.66862,175.698958 413.957082,172.910692 C415.249508,170.123229 416.861472,167.898712 418.79694,166.236338 C420.7332,164.575568 422.843105,163.388731 425.132206,162.67743 C427.419721,161.964526 429.619224,161.609277 431.730715,161.609277 C433.841413,161.609277 436.040916,161.964526 438.330017,162.67743 C440.616738,163.388731 442.729022,164.575568 444.66449,166.236338 C446.599164,167.898712 448.183378,170.092756 449.415543,172.820076 C450.647709,175.551405 451.262999,178.933088 451.262999,182.965127 L451.262999,188.098197 Z M508.71649,157.398411 C505.257863,154.493066 501.500312,152.477047 497.454147,151.347948 C493.406395,150.222057 489.623472,149.656705 486.103792,149.656705 C481.881602,149.656705 478.158147,150.34074 474.931046,151.703197 C471.704738,153.06806 468.977957,154.817842 466.747531,156.953347 C464.520277,159.088852 462.731496,161.433657 461.381188,163.982951 C460.034052,166.535453 459.123011,168.937996 458.653614,171.191382 C458.186596,168.699827 457.246218,166.238743 455.837236,163.805727 C454.429839,161.375117 452.642644,159.178667 450.470892,157.220386 C448.302312,155.262906 445.66275,153.661478 442.552206,152.415299 C439.445626,151.169922 435.837934,150.546833 431.730715,150.546833 C428.211827,150.546833 424.458241,151.111382 420.468372,152.237274 C416.482466,153.366373 412.787555,155.351919 409.383638,158.198724 C405.982892,161.047133 403.165721,164.934025 400.93688,169.856191 C398.710419,174.781565 397.593224,180.979581 397.593224,188.453446 L397.593224,225.855654 L520.769354,225.855654 L520.769354,187.563319 C520.769354,180.089453 519.6252,173.921108 517.337685,169.055076 C515.05017,164.19145 512.177496,160.306964 508.71649,157.398411 Z" id="Fill-16" fill="#1D0645"></path>
                    <path d="M564.210964,0.795822364 L580.223568,0.795822364 L580.223568,84.9738447 C580.223568,88.7733272 580.839651,92.4212473 582.071024,95.9192089 C583.303189,99.4195764 585.090385,102.477286 587.43816,105.084318 C589.783556,107.696161 592.599142,109.772324 595.884124,111.312004 C599.167521,112.855695 602.862432,113.627139 606.970444,113.627139 C610.957142,113.627139 614.625095,112.855695 617.967959,111.312004 C621.311615,109.772324 624.154953,107.725832 626.502728,105.174132 C628.848917,102.622433 630.666243,99.5984038 631.957083,96.0972345 C633.24713,92.5984709 633.893343,88.8896051 633.893343,84.9738447 L633.893343,0.795822364 L649.905947,0.795822364 L649.905947,84.9738447 C649.905947,90.9088319 648.877556,96.4845604 646.826325,101.703436 C644.772716,106.926321 641.899249,111.491634 638.203544,115.407394 C634.508633,119.321551 629.992278,122.436196 624.655272,124.750528 C619.315095,127.064059 613.42068,128.219621 606.970444,128.219621 C600.398893,128.219621 594.503686,127.064059 589.285615,124.750528 C584.064373,122.436196 579.578148,119.321551 575.824562,115.407394 C572.067805,111.491634 569.19513,106.926321 567.200988,101.703436 C565.206053,96.4845604 564.210964,90.9088319 564.210964,84.9738447 L564.210964,0.795822364 Z" id="Fill-18" fill="#4FA8FC"></path>
                    <path d="M569.285838,0.795822364 L585.298441,0.795822364 L585.298441,84.9738447 C585.298441,88.7733272 585.914524,92.4212473 587.145897,95.9192089 C588.378063,99.4195764 590.165258,102.477286 592.513033,105.084318 C594.85843,107.696161 597.674808,109.772324 600.959791,111.312004 C604.243187,112.855695 607.937305,113.627139 612.045317,113.627139 C616.032015,113.627139 619.699968,112.855695 623.043625,111.312004 C626.386489,109.772324 629.229826,107.725832 631.578394,105.174132 C633.923791,102.622433 635.741116,99.5984038 637.032749,96.0972345 C638.322004,92.5984709 638.969009,88.8896051 638.969009,84.9738447 L638.969009,0.795822364 L654.98082,0.795822364 L654.98082,84.9738447 C654.98082,90.9088319 653.953222,96.4845604 651.901199,101.703436 C649.847589,106.926321 646.974122,111.491634 643.279211,115.407394 C639.583507,119.321551 635.067151,122.436196 629.730146,124.750528 C624.390761,127.064059 618.495554,128.219621 612.045317,128.219621 C605.47456,128.219621 599.579353,127.064059 594.361282,124.750528 C589.140039,122.436196 584.653021,119.321551 580.899436,115.407394 C577.143471,111.491634 574.270004,106.926321 572.276654,101.703436 C570.280927,96.4845604 569.285838,90.9088319 569.285838,84.9738447 L569.285838,0.795822364 Z" id="Fill-20" fill="#FE4A49"></path>
                    <path d="M572.277051,101.734711 C574.2704,106.957596 577.143867,111.522909 580.899832,115.438669 C584.652625,119.352826 589.139643,122.467471 594.361678,124.781803 C598.892305,126.790605 603.935938,127.923714 609.487027,128.187544 C614.961205,127.923714 620.018317,126.790605 624.655986,124.781803 C629.992199,122.467471 634.508554,119.352826 638.203465,115.438669 C641.899962,111.522909 644.77343,106.957596 646.826246,101.734711 C648.877477,96.5158351 649.905867,90.9401067 649.905867,85.0051195 L649.905867,0.827097125 L638.968613,0.827097125 L638.968613,85.0051195 C638.968613,88.9208799 638.3224,92.6297457 637.033146,96.1285093 C635.74072,99.6296786 633.923394,102.653707 631.577998,105.205407 C629.22943,107.757107 626.386092,109.804401 623.043228,111.343279 C619.700364,112.886969 616.032412,113.658413 612.044921,113.658413 C611.168767,113.658413 610.314814,113.615912 609.475927,113.546145 C608.654483,113.615912 607.821146,113.658413 606.970364,113.658413 C602.862353,113.658413 599.167441,112.886969 595.884045,111.343279 C592.599063,109.804401 589.783477,107.727436 587.43808,105.11479 C585.090305,102.50856 583.30311,99.4508511 582.071737,95.9504837 C580.838779,92.452522 580.223489,88.8046019 580.223489,85.0051195 L580.223489,0.827097125 L569.286234,0.827097125 L569.286234,85.0051195 C569.286234,90.9401067 570.28053,96.5158351 572.277051,101.734711" id="Fill-22" fill="#1D0645"></path>
                    <path d="M883.638737,28.1541808 L863.403151,92.398954 L903.522276,92.398954 L883.638737,28.1541808 Z M914.960643,126.213385 L908.450146,107.170264 L858.476075,107.170264 L852.140808,126.213385 L835.248086,126.213385 L877.656311,1.63639169 L889.270702,1.63639169 L931.853364,126.213385 L914.960643,126.213385 Z" id="Fill-24" fill="#4FA8FC"></path>
                    <g id="Group-28" transform="translate(839.680473, 1.603834)">
                        <mask id="mask-2" fill="white">
                            <use xlink:href="#path-1"></use>
                        </mask>
                        <g id="Clip-27"></g>
                        <path d="M49.0339302,26.550347 L28.7975515,90.7951201 L68.9174686,90.7951201 L49.0339302,26.550347 Z M80.3550426,124.609551 L73.8453385,105.56643 L23.8712675,105.56643 L17.5352083,124.609551 L0.64327929,124.609551 L43.0507112,0.0325578275 L54.6651018,0.0325578275 L97.2485574,124.609551 L80.3550426,124.609551 Z" id="Fill-26" fill="#FE4A49" mask="url(#mask-2)"></path>
                    </g>
                    <path d="M903.522434,92.3991144 L868.477866,92.3991144 L863.402517,92.3991144 L883.638896,28.1543412 L886.154766,36.2809674 L888.714245,28.1543412 L908.597783,92.3991144 L903.522434,92.3991144 Z M882.731026,1.63575016 L840.323594,126.213546 L852.140967,126.213546 L858.47544,107.170424 L863.551582,107.170424 L908.450304,107.170424 L913.525653,107.170424 L920.035357,126.213546 L931.853523,126.213546 L889.270067,1.63575016 L882.731026,1.63575016 Z" id="Fill-29" fill="#1D0645"></path>
                    <polygon id="Fill-31" fill="#FE4A49" points="782.585056 236.289155 782.585056 250.948998 726.027541 250.948998 726.027541 125.842739 742.118641 125.842739 742.118641 236.289155"></polygon>
                    <polygon id="Fill-33" fill="#4FA8FC" points="777.510182 236.289155 777.510182 250.948998 720.952667 250.948998 720.952667 125.842739 737.044561 125.842739 737.044561 236.289155"></polygon>
                    <polygon id="Fill-35" fill="#1D0645" points="742.119355 236.340076 737.044799 236.340076 737.044799 125.894463 726.027462 125.894463 726.027462 250.99992 777.51042 250.99992 777.51042 236.340076"></polygon>
                    <polygon id="Fill-37" fill="#1D0645" points="0.396846154 125.588612 13.5518402 125.588612 13.5518402 74.7847684 16.4094497 74.7847684 16.4094497 74.6909441 66.6943373 74.6909441 66.6943373 60.191484 13.5518402 60.191484 13.5518402 15.7003307 16.4094497 15.7003307 16.4094497 15.6057045 66.6943373 15.6057045 66.6943373 1.10624441 0.396846154 1.10624441"></polygon>
                </g>
            </g>
        </g>
    </g>
</svg>